<?xml version="1.0" encoding="UTF-8" standalone="no"?>
<!-- Created with Inkscape (http://www.inkscape.org/) -->

<svg
   version="1.1"
   id="svg2"
   width="300"
   height="300"
   viewBox="0 0 300 300"
   sodipodi:docname="decrypt.svg"
   inkscape:version="1.1.2 (0a00cf5339, 2022-02-04)"
   inkscape:export-filename="/home/tux/.icons/Moonless Night/decrypt.png"
   inkscape:export-xdpi="127"
   inkscape:export-ydpi="127"
   xmlns:inkscape="http://www.inkscape.org/namespaces/inkscape"
   xmlns:sodipodi="http://sodipodi.sourceforge.net/DTD/sodipodi-0.dtd"
   xmlns="http://www.w3.org/2000/svg"
   xmlns:svg="http://www.w3.org/2000/svg">
  <defs
     id="defs6">
    <style
       id="style3231">.cls-1{fill:#2d3e50;}.cls-2{fill:#2e79bd;}</style>
  </defs>
  <sodipodi:namedview
     id="namedview4"
     pagecolor="#ffffff"
     bordercolor="#666666"
     borderopacity="1.0"
     inkscape:pageshadow="2"
     inkscape:pageopacity="0.0"
     inkscape:pagecheckerboard="0"
     showgrid="false"
     inkscape:zoom="1.2405907"
     inkscape:cx="282.52671"
     inkscape:cy="268.01749"
     inkscape:window-width="1920"
     inkscape:window-height="987"
     inkscape:window-x="0"
     inkscape:window-y="0"
     inkscape:window-maximized="1"
     inkscape:current-layer="g8"
     showguides="true"
     inkscape:guide-bbox="true"
     inkscape:snap-global="false" />
  <g
     inkscape:groupmode="layer"
     inkscape:label="Image"
     id="g8">
    <path
       style="fill:#141515;stroke-width:0.70656"
       d="M 127.89563,289.1122 C 86.498229,283.98514 49.747143,261.15802 26.673746,226.24049 -0.4855805,185.13962 -3.8474566,131.4401 17.959557,87.047954 39.722101,42.746345 81.57946,13.550602 130.87067,8.2918316 c 34.92064,-3.7256069 71.97496,6.9040114 100.48601,28.8260024 10.416,8.008841 30.079,29.387038 30.079,32.702859 0,1.365191 -16.555,22.060445 -17.88848,22.362249 -0.4595,0.10395 -1.7736,-1.326793 -2.92034,-3.179526 -3.66699,-5.924698 -9.92334,-13.812348 -15.3001,-19.289444 -16.34875,-16.653954 -36.93853,-27.53681 -61.04324,-32.264795 -9.64313,-1.891441 -30.67042,-1.691343 -40.62725,0.386614 -41.306546,8.62054 -73.253043,36.735916 -86.104899,75.778929 -4.165311,12.65392 -5.286889,20.01642 -5.317141,34.90405 -0.02754,13.54811 0.71393,19.79169 3.566102,30.02885 11.705835,42.01519 45.091437,72.86451 88.071738,81.381 10.45703,2.07203 30.69436,2.24323 40.41145,0.34184 20.86881,-4.08349 37.92716,-12.11108 53.45235,-25.15447 12.88957,-10.8291 27.15276,-26.48297 30.51464,-41.02402 l 1.526,-6.60037 0.42501,-8.91433 c 0.52837,-11.08213 0.0993,-10.43746 -9.69951,-10.55765 -3.65402,-0.0447 -6.0091,-0.39165 -6.47529,-0.95362 -0.53921,-0.65 2.46963,-5.75271 11.39511,-19.325 6.67028,-10.143 14.51242,-22.13062 17.42698,-26.63919 3.00253,-4.6447 5.78441,-8.21189 6.41877,-8.23087 1.33981,-0.0401 28.48225,56.15699 27.88046,57.72513 -0.20751,0.54085 -0.93535,0.82566 -1.61731,0.63291 -0.68195,-0.19276 -4.73743,-0.45314 -9.01215,-0.57864 l -7.77214,-0.22818 v 12.01154 c 0,11.73779 -0.58397,11.91226 -2.18587,17.66403 -10.65359,27.54987 -31.78264,52.99665 -56.95452,68.59323 -27.59169,17.0959 -60.10466,24.33561 -91.71042,20.42124 z m -20.04255,-78.07196 c -5.18697,-1.58571 -10.15185,-6.8112 -11.73944,-12.35563 -0.564084,-1.96993 -0.742208,-11.17526 -0.587911,-30.38211 0.21479,-26.73598 0.267159,-27.64143 1.759971,-30.43034 3.30648,-6.17724 10.23978,-10.19694 17.58801,-10.19694 h 2.9725 l 0.31441,-12.54146 c 0.36709,-14.64261 1.27092,-17.940181 6.57907,-24.002787 11.27273,-12.875022 34.2505,-12.090877 44.01216,1.50198 4.32245,6.018911 4.64423,7.395857 5.05032,21.610437 l 0.37321,13.06422 3.17954,0.4535 c 6.80551,0.97069 12.00208,4.47243 15.07632,10.15924 1.48115,2.73985 1.53421,3.67637 1.73553,30.63631 0.23474,31.43637 0.11085,32.40178 -4.80671,37.46902 -5.50713,5.67474 -3.03467,5.36143 -43.44712,5.50538 -19.81903,0.0706 -36.94598,-0.15029 -38.05986,-0.49082 z m 44.5315,-24.76238 c 0.52695,-0.52695 0.23699,-3.0888 -0.97966,-8.65538 -1.60951,-7.36398 -1.6512,-8.04423 -0.60718,-9.90718 2.18862,-3.90545 1.09909,-7.73565 -2.64553,-9.30024 -2.69709,-1.12692 -5.49378,-0.69787 -7.47352,1.14655 -2.18408,2.03477 -2.54211,4.53799 -1.10494,7.72509 1.22106,2.7078 1.21131,2.98125 -0.36159,10.14846 -0.88905,4.05113 -1.42431,7.86642 -1.18947,8.47843 0.34637,0.90262 1.67205,1.11276 7.0202,1.11276 3.69964,0 6.92169,-0.32848 7.34169,-0.74849 z m 11.40759,-69.55434 c 0.12177,-5.99598 -0.10592,-11.69951 -0.52412,-13.13399 -3.51448,-12.05313 -19.67013,-16.40775 -29.15302,-7.857973 -4.90751,4.424623 -5.47949,6.518183 -5.49733,20.121103 l -0.0155,11.84725 17.48739,-0.18898 17.48739,-0.18899 z"
       id="path11074"
       sodipodi:nodetypes="sssssssssssssssssscssssssssscscssssssscsssscsssssssssssssssssssscccs" />
  </g>
</svg>
