<?xml version="1.0" encoding="UTF-8" standalone="no"?>
<!-- Created with Inkscape (http://www.inkscape.org/) -->

<svg
   version="1.1"
   id="svg2"
   width="300"
   height="300"
   viewBox="0 0 300 300"
   sodipodi:docname="encrypt.svg"
   inkscape:version="1.1.2 (0a00cf5339, 2022-02-04)"
   inkscape:export-filename="/home/tux/.icons/Moonless Night/mouse.png"
   inkscape:export-xdpi="127"
   inkscape:export-ydpi="127"
   xmlns:inkscape="http://www.inkscape.org/namespaces/inkscape"
   xmlns:sodipodi="http://sodipodi.sourceforge.net/DTD/sodipodi-0.dtd"
   xmlns="http://www.w3.org/2000/svg"
   xmlns:svg="http://www.w3.org/2000/svg">
  <defs
     id="defs6">
    <style
       id="style3231">.cls-1{fill:#2d3e50;}.cls-2{fill:#2e79bd;}</style>
  </defs>
  <sodipodi:namedview
     id="namedview4"
     pagecolor="#ffffff"
     bordercolor="#666666"
     borderopacity="1.0"
     inkscape:pageshadow="2"
     inkscape:pageopacity="0.0"
     inkscape:pagecheckerboard="0"
     showgrid="false"
     inkscape:zoom="0.52694223"
     inkscape:cx="463.99773"
     inkscape:cy="670.85153"
     inkscape:window-width="1920"
     inkscape:window-height="987"
     inkscape:window-x="0"
     inkscape:window-y="0"
     inkscape:window-maximized="1"
     inkscape:current-layer="g8"
     showguides="true"
     inkscape:guide-bbox="true" />
  <g
     inkscape:groupmode="layer"
     inkscape:label="Image"
     id="g8">
    <path
       style="fill:#141515;stroke-width:0.712177"
       d="M 130.87028,290.82135 C 89.143765,285.65353 52.10051,262.64495 28.843683,227.44983 1.4684437,186.02221 -1.9201588,131.89578 20.060219,87.150723 41.995771,42.496919 84.185895,13.069075 133.86896,7.768502 c 35.15018,-3.750097 72.55227,6.963145 101.19437,28.985528 10.94851,8.418102 24.11515,22.69314 32.03225,34.72878 4.12057,6.264096 13.33213,24.01314 13.33213,25.68863 0,2.40631 1.92085,2.39131 8.80386,-0.0688 3.80715,-1.36071 7.22955,-2.47405 7.60526,-2.47405 1.13995,0 0.81444,2.62719 -2.56662,20.71565 -1.78737,9.56225 -3.53442,19.30878 -3.88235,21.65896 -0.85552,5.77862 -4.15962,21.85569 -4.57763,22.27371 -0.1847,0.18473 -0.7503,0.16884 -1.25682,-0.0353 -1.7988,-0.725 -47.56859,-41.95933 -47.56859,-42.85487 0,-0.52214 3.67129,-2.20552 8.60144,-3.94396 10.05768,-3.54649 9.75087,-2.64178 4.4716,-13.18499 -14.32473,-28.607867 -38.25072,-49.086305 -68.22921,-58.397913 -13.34808,-4.146051 -19.04636,-4.964645 -34.22219,-4.916264 -15.00255,0.0479 -22.41855,1.179113 -35.25282,5.377655 -34.159501,11.174777 -61.248439,38.286714 -72.545856,72.607472 -4.198423,12.7545 -5.328918,20.17555 -5.359411,35.18152 -0.02772,13.65582 0.719606,19.94903 3.594452,30.26757 11.798894,42.34921 45.449913,73.44379 88.771895,82.02797 10.54016,2.08851 30.93839,2.26107 40.73274,0.34457 21.02985,-4.115 38.22905,-12.2077 53.86723,-25.34603 16.19804,-13.6087 28.48464,-32.01556 35.1837,-52.70962 1.03555,-3.19894 2.1361,-5.71926 2.44566,-5.6007 0.30953,0.11854 5.43587,4.92202 11.39183,10.67437 12.43507,12.00996 11.78358,9.71579 6.1308,21.5892 -21.48768,45.13392 -64.75143,75.72498 -114.25798,80.78984 -9.50934,0.97288 -21.99611,0.84337 -31.43842,-0.32605 z m -20.20191,-78.69261 c -5.22819,-1.59832 -10.23254,-6.86536 -11.83276,-12.45386 -0.56856,-1.9856 -0.7481,-11.26411 -0.59258,-30.62366 0.2165,-26.94851 0.26928,-27.86116 1.77396,-30.67224 3.33277,-6.22635 10.32119,-10.27801 17.72783,-10.27801 h 2.99613 l 0.31691,-12.64116 c 0.37,-14.75903 1.28103,-18.08279 6.63137,-24.193613 11.36235,-12.977374 34.52279,-12.186996 44.36204,1.513933 4.35682,6.06676 4.68117,7.45464 5.09048,21.78222 l 0.37619,13.16808 3.2048,0.45711 c 6.85962,0.97842 12.0975,4.50799 15.19621,10.24001 1.4929,2.76164 1.54638,3.7056 1.7493,30.87988 0.23661,31.68627 0.11178,32.65935 -4.84491,37.76689 -5.55091,5.71984 -3.0588,5.40404 -43.79252,5.54914 -19.9766,0.0711 -37.2397,-0.15147 -38.36245,-0.49472 z m 44.88553,-24.95925 c 0.53115,-0.53114 0.23888,-3.11336 -0.98745,-8.72419 -1.6223,-7.42251 -1.66432,-8.10816 -0.61201,-9.98593 2.20603,-3.93649 1.10784,-7.79715 -2.66655,-9.37418 -2.71854,-1.13588 -5.53746,-0.70341 -7.53295,1.15567 -2.20142,2.05094 -2.56231,4.57406 -1.11371,7.7865 1.23076,2.72932 1.22094,3.00496 -0.36447,10.22915 -0.89612,4.08333 -1.43564,7.92895 -1.19891,8.54583 0.34911,0.9098 1.68534,1.1216 7.07601,1.1216 3.72904,0 6.97671,-0.33111 7.40004,-0.75445 z m 11.49829,-70.10728 c 0.12273,-6.04364 -0.10669,-11.79252 -0.52828,-13.23842 -3.54244,-12.148932 -19.82651,-16.538175 -29.38478,-7.92043 -4.94655,4.4598 -5.52308,6.57 -5.54104,20.28107 l -0.0157,11.94143 17.6264,-0.19049 17.62642,-0.19048 z"
       id="path10974" />
  </g>
</svg>
