<?xml version="1.0" encoding="UTF-8" standalone="no"?>
<!-- Created with Inkscape (http://www.inkscape.org/) -->

<svg
   version="1.1"
   id="svg2"
   width="300"
   height="300"
   viewBox="0 0 300 300"
   sodipodi:docname="bat.svg"
   inkscape:version="1.1.2 (0a00cf5339, 2022-02-04)"
   inkscape:export-filename="/home/tux/.icons/Moonless Night/bat.png"
   inkscape:export-xdpi="127"
   inkscape:export-ydpi="127"
   xmlns:inkscape="http://www.inkscape.org/namespaces/inkscape"
   xmlns:sodipodi="http://sodipodi.sourceforge.net/DTD/sodipodi-0.dtd"
   xmlns="http://www.w3.org/2000/svg"
   xmlns:svg="http://www.w3.org/2000/svg">
  <defs
     id="defs6">
    <style
       id="style3231">.cls-1{fill:#2d3e50;}.cls-2{fill:#2e79bd;}</style>
  </defs>
  <sodipodi:namedview
     id="namedview4"
     pagecolor="#ffffff"
     bordercolor="#666666"
     borderopacity="1.0"
     inkscape:pageshadow="2"
     inkscape:pageopacity="0.0"
     inkscape:pagecheckerboard="0"
     showgrid="false"
     inkscape:zoom="0.81887858"
     inkscape:cx="144.7101"
     inkscape:cy="369.40764"
     inkscape:window-width="1920"
     inkscape:window-height="987"
     inkscape:window-x="0"
     inkscape:window-y="0"
     inkscape:window-maximized="1"
     inkscape:current-layer="g8"
     showguides="true"
     inkscape:guide-bbox="true" />
  <g
     inkscape:groupmode="layer"
     inkscape:label="Image"
     id="g8">
    <circle
       style="fill:#000000;fill-opacity:1;stroke:#ffffff;stroke-width:9.877;stroke-miterlimit:4;stroke-dasharray:none;stroke-opacity:1"
       id="path851"
       cx="149.86972"
       cy="150.41068"
       r="142.94501" />
    <path
       style="fill:#ffffff"
       d="m 145.55448,211.31061 c -0.36667,-0.36666 -0.66667,-1.42538 -0.66667,-2.3527 0,-0.92732 -2.14435,-4.56482 -4.76522,-8.08333 -3.82639,-5.13691 -5.5503,-6.60835 -8.75,-7.46853 -2.19163,-0.58918 -4.65978,-1.36436 -5.48478,-1.72262 -0.825,-0.35826 -3.9693,-0.77621 -6.98733,-0.92877 -5.42621,-0.27429 -5.49374,-0.31636 -6.06366,-3.77738 -0.70491,-4.28075 -5.09128,-11.39189 -8.33982,-13.52041 -1.3187,-0.86405 -4.13275,-1.79872 -6.253419,-2.07704 -2.12067,-0.27832 -5.54791,-1.00631 -7.61608,-1.61776 -2.87384,-0.84963 -4.31206,-0.81643 -6.10076,0.14086 -4.625801,2.47565 -6.604181,1.14352 -9.494731,-6.39321 -2.27107,-5.92154 -3.53062,-7.65907 -8.38986,-11.57376 -6.76782,-5.45227 -12.80243,-6.93955 -28.36964,-6.99195 l -9.8847,-0.0333 2.36078,-1.96673 c 1.29844,-1.0817 3.09844,-1.99663 4,-2.03318 0.90157,-0.0365 3.88922,-1.38293 6.63922,-2.99195 2.75,-1.60903 5.91849,-3.33224 7.0411,-3.82937 1.1226,-0.49714 2.66933,-1.66086 3.43718,-2.58606 0.76785,-0.9252 3.57471,-2.78618 6.23746,-4.1355 4.87852,-2.47213 22.03903,-16.8948 24.738371,-20.79154 1.61849,-2.33643 4.14885,-4.51869 5.29589,-4.56733 0.4125,-0.0175 0.75,0.83292 0.75,1.88981 0,4.18763 8.81579,18.59753 15.648529,25.57839 3.76831,3.85 7.6189,7.45 8.55688,8 0.93797,0.55 4.45773,2.6875 7.82167,4.75 3.36394,2.0625 7.20901,3.75 8.54459,3.75 2.24346,0 2.42833,-0.37616 2.42833,-4.94098 0,-4.92805 1.27649,-7.38685 2.36383,-4.55328 0.46812,1.2199 2.96608,1.49426 13.60479,1.49426 h 13.03138 v 4.03138 c 0,2.58429 0.51634,4.22953 1.43844,4.58337 0.79114,0.30359 4.41723,-1.17303 8.05798,-3.28138 3.64074,-2.10836 8.28235,-4.73337 10.31469,-5.83337 8.68226,-4.69926 16.17679,-14.86822 24.51549,-33.26387 0.98269,-2.16787 1.43625,-1.87103 10.69565,7 9.10728,8.72528 18.9332,16.76387 20.49123,16.76387 0.38429,0 2.33847,1.29473 4.34262,2.87719 3.33059,2.6298 15.50716,8.7986 24.1439,12.2316 3.29154,1.30835 2.6066,1.42443 -11.5,1.94903 -13.57912,0.50499 -15.4755,0.80339 -20.0198,3.1502 -6.88712,3.55671 -14.15328,11.49131 -15.04386,16.42779 -0.38341,2.12531 -1.14355,4.42669 -1.68917,5.11419 -1.18172,1.48897 -7.36559,1.67642 -8.24717,0.25 -0.80132,-1.29656 -5.19868,-1.29656 -6,0 -0.33992,0.55 -2.3703,1 -4.51196,1 -7.12295,0 -12.55833,3.64265 -14.9215,10 -3.73911,10.05887 -3.68369,10 -9.41346,10 -2.88919,0 -5.68058,0.37414 -6.20308,0.83142 -0.5225,0.45728 -2.81113,1.35996 -5.08584,2.00594 -3.62605,1.02974 -9.36416,6.33798 -9.36416,8.66264 0,0.34839 -1.125,2.10839 -2.5,3.91111 -1.375,1.80272 -2.5,3.7977 -2.5,4.43328 0,1.26883 -1.28432,1.53795 -2.33333,0.48894 z m 123.33333,-66.39235 c 0,-0.58246 0.45,-0.7809 1,-0.44098 0.55,0.33992 1,0.81648 1,1.05902 0,0.24254 -0.45,0.44098 -1,0.44098 -0.55,0 -1,-0.47656 -1,-1.05902 z"
       id="path986" />
  </g>
</svg>
