<?xml version="1.0" encoding="UTF-8" standalone="no"?>
<!-- Created with Inkscape (http://www.inkscape.org/) -->

<svg
   version="1.1"
   id="svg2"
   width="300"
   height="300"
   viewBox="0 0 300 300"
   sodipodi:docname="bravebrowser.svg"
   inkscape:version="1.1.2 (0a00cf5339, 2022-02-04)"
   inkscape:export-filename="/home/tux/.icons/Moonless Night/bravebrowser.png"
   inkscape:export-xdpi="127"
   inkscape:export-ydpi="127"
   xmlns:inkscape="http://www.inkscape.org/namespaces/inkscape"
   xmlns:sodipodi="http://sodipodi.sourceforge.net/DTD/sodipodi-0.dtd"
   xmlns="http://www.w3.org/2000/svg"
   xmlns:svg="http://www.w3.org/2000/svg">
  <defs
     id="defs6">
    <style
       id="style3231">.cls-1{fill:#2d3e50;}.cls-2{fill:#2e79bd;}</style>
  </defs>
  <sodipodi:namedview
     id="namedview4"
     pagecolor="#ffffff"
     bordercolor="#666666"
     borderopacity="1.0"
     inkscape:pageshadow="2"
     inkscape:pageopacity="0.0"
     inkscape:pagecheckerboard="0"
     showgrid="false"
     inkscape:zoom="0.73546996"
     inkscape:cx="271.25513"
     inkscape:cy="344.67757"
     inkscape:window-width="1920"
     inkscape:window-height="987"
     inkscape:window-x="0"
     inkscape:window-y="0"
     inkscape:window-maximized="1"
     inkscape:current-layer="g8"
     showguides="true"
     inkscape:guide-bbox="true" />
  <g
     inkscape:groupmode="layer"
     inkscape:label="Image"
     id="g8">
    <circle
       style="fill:#000000;fill-opacity:1;stroke:#ffffff;stroke-width:9.877;stroke-miterlimit:4;stroke-dasharray:none;stroke-opacity:1"
       id="path851"
       cx="149.86972"
       cy="150.41068"
       r="142.94501" />
    <path
       style="fill:#ffffff;stroke-width:0.934187"
       d="m 143.98358,252.70274 c -2.78417,-1.48697 -6.64807,-3.97808 -8.58645,-5.53581 -1.93838,-1.55773 -4.17859,-2.83223 -4.97823,-2.83223 -0.79965,0 -3.03132,-1.50404 -4.95926,-3.34232 -1.92796,-1.83828 -4.76652,-3.99761 -6.30793,-4.79852 -1.54141,-0.80091 -6.08642,-3.92109 -10.10001,-6.93373 -4.0136,-3.01266 -7.61675,-5.47755 -8.00701,-5.47755 -1.25684,0 -9.451502,-8.3336 -9.451502,-9.61175 0,-0.67953 -1.050961,-2.66 -2.335468,-4.40105 -1.284507,-1.74106 -2.335468,-4.14834 -2.335468,-5.34953 0,-1.20119 -0.691737,-3.74691 -1.537195,-5.65718 -0.845468,-1.91025 -1.858369,-5.57511 -2.250905,-8.14413 -0.392546,-2.56901 -1.141428,-6.14228 -1.664199,-7.94059 -0.522771,-1.79831 -1.790481,-6.42253 -2.817153,-10.27606 -3.657118,-13.72675 -5.643359,-20.48875 -6.504287,-22.14344 -0.480284,-0.92308 -1.165511,-4.08861 -1.522734,-7.03452 -0.357224,-2.94591 -1.444767,-7.61889 -2.416771,-10.38441 -0.972003,-2.76552 -1.955515,-6.661 -2.185596,-8.65662 -0.504339,-4.37454 1.389819,-13.17775 3.542251,-16.46278 1.73643,-2.65011 1.400505,-5.17015 -1.428979,-10.72001 -0.971602,-1.90574 -1.766548,-3.91035 -1.766548,-4.45467 0,-1.74695 16.237209,-16.977439 19.431989,-18.227185 2.12535,-0.831408 5.299419,-1.019011 10.213175,-0.603643 6.49265,0.548835 7.32282,0.421 9.29427,-1.431072 1.19064,-1.118549 2.1648,-2.515757 2.1648,-3.104911 0,-0.589155 2.83759,-3.773855 6.30576,-7.077112 l 6.30576,-6.005917 30.62759,0.467093 30.62758,0.467094 7.44054,7.79993 c 4.0923,4.289955 7.44054,8.106408 7.44054,8.481008 0,0.3746 4.40385,0.648092 9.78632,0.607764 l 9.78632,-0.07333 8.89743,8.856327 c 4.89358,4.870974 8.88427,9.285014 8.86821,9.808964 -0.0161,0.52395 -1.00691,2.94761 -2.20186,5.38591 -1.92948,3.93709 -2.06824,4.98267 -1.2397,9.34187 0.51313,2.69973 1.5767,5.65265 2.36351,6.56205 1.75696,2.03073 1.80181,11.96895 0.0727,16.0961 -1.3841,3.30352 -4.11936,13.97872 -6.10375,23.82177 -0.77689,3.85352 -1.96334,8.28722 -2.63656,9.85268 -0.67321,1.56544 -1.73863,5.3489 -2.3676,8.40768 -0.62896,3.05877 -1.40937,5.9818 -1.73425,6.4956 -1.1456,1.81187 -2.85663,9.38413 -2.89736,12.82249 -0.0227,1.91435 -0.88042,4.85704 -1.9061,6.53931 -1.02569,1.68228 -1.86646,4.34326 -1.86838,5.9133 -0.002,1.57335 -1.05174,4.27544 -2.33896,6.02017 -1.28451,1.74105 -2.34259,3.60935 -2.35129,4.15179 -0.0211,1.31493 -8.07931,9.86101 -9.29807,9.86101 -0.52644,0 -4.58001,2.7325 -9.00794,6.07222 -4.42792,3.33972 -8.37213,6.07222 -8.76489,6.07222 -0.39277,0 -3.15031,1.89173 -6.12785,4.20384 -2.97755,2.31211 -5.75699,4.20384 -6.17654,4.20384 -0.41954,0 -2.74214,1.51085 -5.16132,3.35745 -4.00505,3.05714 -12.96245,7.95225 -14.24269,7.78348 -0.28919,-0.0381 -2.80376,-1.28593 -5.58792,-2.77289 z m 17.39398,-47.1368 c 4.89589,-4.36733 9.3789,-7.94507 9.96222,-7.95054 0.58333,-0.006 2.48179,-1.47263 4.21881,-3.26035 3.88643,-3.99989 3.514,-4.57696 -5.66809,-8.78273 -3.7576,-1.72112 -7.46258,-3.49775 -8.23328,-3.94806 -6.40467,-3.74214 -14.35379,-4.16255 -20.61948,-1.09052 -2.27506,1.11545 -5.81801,2.73006 -7.87323,3.58801 -5.1422,2.14663 -10.74315,6.03986 -10.74315,7.46759 0,0.65086 2.20702,2.6645 4.90448,4.47473 2.69747,1.81024 8.38332,6.47534 12.63524,10.36689 5.41529,4.95633 8.44721,7.07557 10.1228,7.07557 1.68083,0 5.03875,-2.36096 11.29368,-7.94059 z m -34.94695,-23.87746 c 8.82667,-4.35001 9.9051,-5.04714 15.70387,-10.15142 5.83085,-5.13252 7.26147,-7.76745 5.42123,-9.9848 -1.56928,-1.89087 -13.90681,-10.19943 -18.36149,-12.36532 -3.57702,-1.73918 -2.50408,-7.49456 3.18354,-17.07689 3.79097,-6.38692 3.87726,-8.15174 0.55321,-11.3144 -2.43584,-2.31758 -4.72645,-3.37073 -15.64764,-7.19427 -3.4138,-1.19519 -4.75127,-2.17665 -4.96945,-3.64666 -0.28335,-1.90913 0.0632,-2.01134 6.81925,-2.01134 4.21627,0 8.14609,0.52619 9.64039,1.29082 1.38744,0.70995 4.33852,1.59261 6.55796,1.96147 2.21943,0.36886 4.25366,1.23961 4.52051,1.935 0.43911,1.14429 -0.46686,7.32386 -3.41178,23.27166 -0.56584,3.06424 -0.90378,6.80379 -0.75097,8.31011 0.24463,2.41151 0.83596,2.89917 4.94877,4.08129 7.69437,2.21154 11.31994,2.40853 15.60393,0.84782 2.2077,-0.80429 5.06496,-1.58224 6.34947,-1.72878 2.20592,-0.25166 2.32048,-0.54339 2.06537,-5.25956 -0.14855,-2.74622 -0.83474,-5.8991 -1.52486,-7.00641 -0.69011,-1.1073 -1.53057,-5.58654 -1.86767,-9.95386 -0.3371,-4.36733 -0.70187,-8.93648 -0.81061,-10.15368 -0.21926,-2.45442 0.50367,-2.98664 7.2758,-5.35631 5.35255,-1.87296 22.03255,-2.44884 22.59307,-0.78004 0.18333,0.54584 -1.88242,1.93961 -4.59056,3.09726 -2.70814,1.15766 -6.30441,2.70789 -7.9917,3.44495 -1.68729,0.73708 -3.71645,1.34013 -4.50925,1.34013 -0.79279,0 -2.67026,1.22881 -4.17214,2.73071 -3.85039,3.85038 -3.54981,7.06391 1.59193,17.01926 l 4.32263,8.36942 -2.15,2.28858 c -1.1825,1.25873 -2.53262,2.28858 -3.00026,2.28858 -0.46763,0 -3.23194,1.86591 -6.14291,4.14646 -2.91097,2.28055 -6.42318,4.57254 -7.8049,5.09331 -1.38172,0.52077 -2.98016,1.82122 -3.5521,2.88989 -0.91628,1.71209 -0.35026,2.6612 4.76222,7.98531 3.19115,3.32325 6.26094,6.04992 6.82175,6.05927 0.56081,0.009 2.83292,1.24591 5.04914,2.74791 6.32649,4.28764 11.93835,6.15215 14.44821,4.80033 6.29232,-3.38908 7.21245,-4.01418 7.21245,-4.89985 0,-0.53317 0.84077,-2.03828 1.86837,-3.34466 2.53892,-3.22771 2.53715,-10.82392 -0.004,-14.99094 -3.23777,-5.31044 -2.68307,-6.45346 9.19291,-18.94298 6.08179,-6.39599 12.2168,-13.46983 13.63336,-15.71964 l 2.57556,-4.09056 -1.65804,-3.85003 c -0.91167,-2.11752 -2.14766,-4.27041 -2.7464,-4.78421 -0.59872,-0.5138 -1.88887,-2.35533 -2.86699,-4.09229 -2.83435,-5.0333 -3.54341,-6.10523 -5.33774,-8.06944 -0.93003,-1.01809 -3.38903,-4.06567 -5.46445,-6.77239 -2.07541,-2.70673 -4.53232,-5.32744 -5.4598,-5.82382 -1.12393,-0.6015 -5.06532,-0.43676 -11.81802,0.49397 -8.77937,1.21009 -11.0369,1.22236 -16.9137,0.0919 -3.73011,-0.71749 -7.47308,-1.87806 -8.31771,-2.57905 -2.18146,-1.81045 -12.22109,-1.62322 -15.72844,0.29332 -5.78301,3.16004 -12.55048,3.78192 -23.91162,2.19732 l -10.53403,-1.46925 -3.57126,3.48725 c -1.96419,1.91798 -5.46562,6.23582 -7.78094,9.59519 -2.31533,3.35938 -5.674619,8.20209 -7.465082,10.76161 -2.842451,4.06334 -3.255184,5.36683 -3.253764,10.27605 l 0.0019,5.62241 12.142796,12.76419 c 12.92105,13.58225 13.60172,14.86846 10.76824,20.34778 -2.51439,4.8623 -2.74265,9.66401 -0.65036,13.68108 2.39953,4.60694 8.86897,10.65946 11.39373,10.65946 1.05564,0 4.52923,-1.28621 7.71907,-2.85825 z"
       id="path2764" />
  </g>
</svg>
