<?xml version="1.0" encoding="UTF-8" standalone="no"?>
<!-- Created with Inkscape (http://www.inkscape.org/) -->

<svg
   version="1.1"
   id="svg2"
   width="300"
   height="300"
   viewBox="0 0 300 300"
   sodipodi:docname="browser.svg"
   inkscape:version="1.1.2 (0a00cf5339, 2022-02-04)"
   inkscape:export-filename="/home/tux/.icons/savetier/xaron/vivaldibrowser.png"
   inkscape:export-xdpi="127"
   inkscape:export-ydpi="127"
   xmlns:inkscape="http://www.inkscape.org/namespaces/inkscape"
   xmlns:sodipodi="http://sodipodi.sourceforge.net/DTD/sodipodi-0.dtd"
   xmlns="http://www.w3.org/2000/svg"
   xmlns:svg="http://www.w3.org/2000/svg">
  <defs
     id="defs6">
    <style
       id="style3231">.cls-1{fill:#2d3e50;}.cls-2{fill:#2e79bd;}</style>
  </defs>
  <sodipodi:namedview
     id="namedview4"
     pagecolor="#ffffff"
     bordercolor="#666666"
     borderopacity="1.0"
     inkscape:pageshadow="2"
     inkscape:pageopacity="0.0"
     inkscape:pagecheckerboard="0"
     showgrid="false"
     inkscape:zoom="0.81887858"
     inkscape:cx="144.7101"
     inkscape:cy="369.40764"
     inkscape:window-width="1920"
     inkscape:window-height="987"
     inkscape:window-x="0"
     inkscape:window-y="0"
     inkscape:window-maximized="1"
     inkscape:current-layer="g8"
     showguides="true"
     inkscape:guide-bbox="true" />
  <g
     inkscape:groupmode="layer"
     inkscape:label="Image"
     id="g8">
    <circle
       style="fill:#000000;fill-opacity:1;stroke:#ffffff;stroke-width:9.877;stroke-miterlimit:4;stroke-dasharray:none;stroke-opacity:1"
       id="path851"
       cx="149.86972"
       cy="150.41068"
       r="142.94501" />
    <path
       d="m 150.36462,56.886908 c -51.94087,0 -94.040834,42.099962 -94.040834,94.040842 0,51.94084 42.099964,94.0408 94.040834,94.0408 51.94088,0 94.04084,-42.09996 94.04084,-94.0408 0,-51.94088 -42.09996,-94.040842 -94.04084,-94.040842 z m 81.75486,91.007262 h -36.37863 c -0.3337,-13.43874 -2.72416,-26.27683 -6.96509,-38.0289 8.19064,-3.41581 15.76245,-7.9601 22.66688,-13.32953 12.27384,13.7785 19.94879,31.67053 20.67684,51.35843 z m -85.10999,84.7702 c -10.08361,-8.39694 -18.54122,-19.29961 -24.72971,-31.96175 7.94191,-2.48146 16.35704,-3.84051 25.05127,-4.11959 v 36.09348 c -0.10927,0 -0.21236,-0.006 -0.32156,-0.0125 z m 6.69814,-163.47328 c 11.44264,9.525423 20.77999,22.284639 27.09589,37.16737 -8.65175,2.9547 -17.8435,4.6717 -27.41139,4.97506 V 69.172889 c 0.11528,0.006 0.21236,0.01215 0.3155,0.01821 z m 10.10786,1.031415 c 16.74535,2.784822 31.76761,10.605382 43.46507,21.926682 -6.3523,4.871923 -13.29312,8.997593 -20.79818,12.122173 -5.52111,-13.086848 -13.26886,-24.656911 -22.66689,-34.048855 z m -16.48444,-1.049616 v 42.160631 c -9.56789,-0.30942 -18.7657,-2.02036 -27.41139,-4.97506 6.3159,-14.882731 15.65326,-27.641947 27.09589,-37.16737 0.10927,-0.006 0.20628,-0.01215 0.3155,-0.01821 z M 114.2408,104.27742 C 106.74788,101.15284 99.80099,97.02717 93.448684,92.155252 105.14008,80.833952 120.16841,73.013395 136.91375,70.228573 127.50966,79.614449 119.76799,91.184512 114.2408,104.27742 Z m 3.39154,7.67495 c 9.35555,3.24592 19.32388,5.13888 29.69871,5.45437 v 30.48743 h -36.2755 c 0.32763,-12.70461 2.57855,-24.84499 6.57679,-35.9418 z m 29.69871,42.00895 v 36.55456 c -9.56789,0.29121 -18.8203,1.85654 -27.5388,4.66563 -5.25415,-12.51046 -8.35446,-26.4467 -8.7367,-41.22019 z m -10.4173,77.67163 c -15.00406,-2.49359 -28.63088,-9.02791 -39.70951,-18.51694 5.97616,-4.14387 12.43766,-7.65068 19.34209,-10.31416 5.29055,10.96941 12.21317,20.70719 20.36742,28.8311 z m 16.48446,1.04962 v -36.09348 c 8.68815,0.27909 17.10936,1.63814 25.05125,4.11959 -6.19455,12.66216 -14.6461,23.56483 -24.7297,31.96176 -0.10313,0 -0.21235,0.006 -0.32155,0.0125 z m 30.78472,-29.88072 c 6.89835,2.66348 13.35379,6.17636 19.34207,10.31416 -11.07861,9.48296 -24.70544,16.02335 -39.70951,18.51694 8.15425,-8.12391 15.07081,-17.86169 20.36744,-28.8311 z m -3.24593,-7.62034 c -8.72457,-2.80909 -17.97698,-4.37442 -27.53879,-4.66563 v -36.55456 h 36.27549 c -0.38223,14.77349 -3.48862,28.70973 -8.7367,41.22019 z m -27.53879,-47.28734 v -30.48743 c 10.36875,-0.31549 20.33708,-2.20237 29.69869,-5.4483 3.99218,11.09682 6.2431,23.23719 6.5768,35.94179 H 153.39821 Z M 89.292688,96.53574 c 6.904412,5.36943 14.476222,9.91372 22.660812,13.32953 -4.24095,11.75207 -6.63141,24.59016 -6.96509,38.0289 H 68.609762 c 0.728068,-19.6879 8.403003,-37.57993 20.682926,-51.35843 z m -20.682926,57.42558 h 36.378648 c 0.37615,15.50154 3.61602,30.14158 9.11893,43.30123 -7.68709,2.99717 -14.8524,6.98936 -21.465593,11.71566 C 78.396083,194.79928 69.404569,175.41473 68.609762,153.96132 Z M 208.0875,208.97214 c -6.6132,-4.72023 -13.7785,-8.71849 -21.47164,-11.71566 5.50896,-13.15965 8.74276,-27.79968 9.12499,-43.30122 h 36.37863 c -0.79479,21.45947 -9.79238,40.84402 -24.03198,55.01688 z"
       fill="#333332"
       id="world"
       style="fill:#ffffff;stroke-width:6.06715" />
  </g>
</svg>
