<?xml version="1.0" encoding="UTF-8" standalone="no"?>
<!-- Created with Inkscape (http://www.inkscape.org/) -->

<svg
   version="1.1"
   id="svg2"
   width="300"
   height="300"
   viewBox="0 0 300 300"
   sodipodi:docname="document.svg"
   inkscape:version="1.1.2 (0a00cf5339, 2022-02-04)"
   inkscape:export-filename="/home/tux/.icons/Moonless Night/document.png"
   inkscape:export-xdpi="127"
   inkscape:export-ydpi="127"
   xmlns:inkscape="http://www.inkscape.org/namespaces/inkscape"
   xmlns:sodipodi="http://sodipodi.sourceforge.net/DTD/sodipodi-0.dtd"
   xmlns="http://www.w3.org/2000/svg"
   xmlns:svg="http://www.w3.org/2000/svg">
  <defs
     id="defs6">
    <style
       id="style3231">.cls-1{fill:#2d3e50;}.cls-2{fill:#2e79bd;}</style>
  </defs>
  <sodipodi:namedview
     id="namedview4"
     pagecolor="#ffffff"
     bordercolor="#666666"
     borderopacity="1.0"
     inkscape:pageshadow="2"
     inkscape:pageopacity="0.0"
     inkscape:pagecheckerboard="0"
     showgrid="false"
     inkscape:zoom="0.61944389"
     inkscape:cx="336.59223"
     inkscape:cy="417.30979"
     inkscape:window-width="1920"
     inkscape:window-height="987"
     inkscape:window-x="0"
     inkscape:window-y="0"
     inkscape:window-maximized="1"
     inkscape:current-layer="g8"
     showguides="true"
     inkscape:guide-bbox="true" />
  <g
     inkscape:groupmode="layer"
     inkscape:label="Image"
     id="g8">
    <circle
       style="fill:#000000;fill-opacity:1;stroke:#ffffff;stroke-width:9.877;stroke-miterlimit:4;stroke-dasharray:none;stroke-opacity:1"
       id="path851"
       cx="149.86972"
       cy="150.41068"
       r="142.94501" />
    <path
       style="fill:#ffffff;stroke-width:1.07692"
       d="m 81.770547,232.06214 c -0.399291,-0.39928 -0.725976,-37.94354 -0.725976,-83.43168 0,-80.666545 0.05137,-82.733214 2.08305,-83.820541 1.348265,-0.72156 19.350489,-1.114809 51.034539,-1.114809 45.10689,0 49.11555,0.148012 51.0401,1.884615 1.14872,1.036539 4.95817,5.447294 8.46545,9.801683 3.50729,4.354378 10.37124,12.835149 15.25321,18.84616 l 8.87633,10.929092 0.009,13.66721 c 0.004,7.51697 0.38965,13.90291 0.85577,14.19099 0.4661,0.28806 2.97141,-1.37949 5.56735,-3.70568 2.59561,-2.32619 5.49678,-4.22944 6.44671,-4.22944 2.15672,0 18.36892,16.1673 18.36892,18.31805 0,0.86794 -6.90577,8.49528 -15.34616,16.94964 l -15.34616,15.37155 -0.53846,28.25732 -0.53846,28.25731 -67.38942,0.27725 c -37.06419,0.1525 -67.716123,-0.0494 -68.115403,-0.44872 z M 211.10886,206.42366 c 0.16226,-10.64163 0.0221,-20.05975 -0.31155,-20.92914 -0.43819,-1.14191 -2.61274,0.40902 -7.83349,5.58703 -6.75096,6.69568 -8.09658,7.49619 -20.4318,12.15491 -7.26268,2.74294 -13.98523,4.68772 -14.93899,4.32173 -2.28685,-0.87755 -1.67457,-3.71161 3.86314,-17.88163 l 4.41184,-11.28912 17.7698,-18.11149 17.76979,-18.11148 -0.29688,-16.35006 -0.29689,-16.35006 -15.07693,-0.53846 -15.07692,-0.53846 -0.60316,-18.846161 c -0.33173,-10.365387 -0.69519,-18.972567 -0.80769,-19.127073 -0.11249,-0.154506 -20.67954,-0.154506 -45.70455,0 l -45.500007,0.280915 -0.278676,76.461559 c -0.153268,42.05385 -0.04577,77.07133 0.238851,77.81661 0.409166,1.07136 13.319482,1.29684 61.663302,1.07693 l 61.14578,-0.27814 z M 104.40045,193.30743 c -1.35043,-1.35043 -0.76685,-4.44866 0.96298,-5.11246 2.22889,-0.85531 35.79278,-0.821 39.00689,0.0399 1.76091,0.47164 2.38517,1.32574 2.15385,2.94683 -0.31716,2.22255 -0.86662,2.29039 -20.85448,2.57448 -11.29081,0.16047 -20.86197,-0.0415 -21.26924,-0.44872 z m 0.60566,-20.46713 c -2.06475,-0.85191 -1.59849,-4.4728 0.7369,-5.72266 1.19263,-0.63827 9.621,-1.11481 19.71725,-1.11481 13.6716,0 18.10394,0.34882 19.72465,1.55231 1.67314,1.24242 1.85226,1.94112 0.89733,3.5 -1.0716,1.74933 -3.15548,1.9677 -20.46154,2.14414 -10.59764,0.10805 -19.8742,-0.0535 -20.61459,-0.35898 z m -0.10597,-21.7907 c -0.79866,-0.50614 -1.27675,-1.83141 -1.06242,-2.94506 0.37192,-1.93249 2.21904,-2.03766 40.51934,-2.30716 35.14199,-0.24728 40.20798,-0.0783 40.75984,1.35987 0.3466,0.90323 0.032,2.36299 -0.69909,3.2439 -1.13148,1.36335 -7.03821,1.59922 -39.6974,1.58519 -21.10249,-0.009 -39.02161,-0.43061 -39.82027,-0.93674 z m 0.10597,-21.29847 c -0.74038,-0.29875 -1.34615,-1.47203 -1.34615,-2.60728 0,-1.99744 1.30231,-2.06411 40.32106,-2.06411 26.84714,0 40.55323,0.37563 41.0158,1.12409 0.38211,0.61827 0.10906,1.8298 -0.60676,2.69231 -1.09742,1.32231 -7.31789,1.55489 -39.66964,1.48319 -21.10249,-0.0467 -38.97392,-0.32945 -39.71431,-0.6282 z m 76.30086,67.32622 c 6.48669,-2.18516 6.83555,-3.01258 2.95723,-7.014 -1.91855,-1.97944 -3.82521,-3.59898 -4.23701,-3.59898 -0.91191,0 -4.21337,8.03359 -4.21337,10.25257 0,1.91718 0.72972,1.96506 5.49315,0.36041 z m 37.58207,-30.53435 23.13335,-23.15214 -5.64445,-5.64445 -5.64445,-5.64445 -23.15214,23.13335 c -12.73368,12.72334 -23.15214,23.84407 -23.15214,24.71273 0,2.12481 7.54715,9.7471 9.65103,9.7471 0.9215,0 12.08546,-10.41846 24.8088,-23.15214 z m -12.43981,-63.98658 c 0.64556,-1.04454 -17.51707,-23.784384 -18.99693,-23.784384 -1.0396,0 -1.1844,23.018184 -0.15129,24.051284 1.09674,1.09674 18.45498,0.85479 19.14822,-0.2669 z"
       id="path10482" />
  </g>
</svg>
