<?xml version="1.0" encoding="UTF-8" standalone="no"?>
<!-- Created with Inkscape (http://www.inkscape.org/) -->

<svg
   version="1.1"
   id="svg2"
   width="300"
   height="300"
   viewBox="0 0 300 300"
   sodipodi:docname="freetube.svg"
   inkscape:version="1.1.2 (0a00cf5339, 2022-02-04)"
   inkscape:export-filename="/home/tux/.icons/savetier/xaron/inkscape.png"
   inkscape:export-xdpi="127"
   inkscape:export-ydpi="127"
   xmlns:inkscape="http://www.inkscape.org/namespaces/inkscape"
   xmlns:sodipodi="http://sodipodi.sourceforge.net/DTD/sodipodi-0.dtd"
   xmlns="http://www.w3.org/2000/svg"
   xmlns:svg="http://www.w3.org/2000/svg">
  <defs
     id="defs6">
    <style
       id="style3231">.cls-1{fill:#2d3e50;}.cls-2{fill:#2e79bd;}</style>
    <style
       id="style5157">.cls-1{fill:#009eeb;}</style>
  </defs>
  <sodipodi:namedview
     id="namedview4"
     pagecolor="#ffffff"
     bordercolor="#666666"
     borderopacity="1.0"
     inkscape:pageshadow="2"
     inkscape:pageopacity="0.0"
     inkscape:pagecheckerboard="0"
     showgrid="false"
     inkscape:zoom="0.92429527"
     inkscape:cx="181.21915"
     inkscape:cy="198.52963"
     inkscape:window-width="1920"
     inkscape:window-height="987"
     inkscape:window-x="0"
     inkscape:window-y="0"
     inkscape:window-maximized="1"
     inkscape:current-layer="g8"
     showguides="true"
     inkscape:guide-bbox="true" />
  <g
     inkscape:groupmode="layer"
     inkscape:label="Image"
     id="g8">
    <circle
       style="fill:#000000;fill-opacity:1;stroke:#ffffff;stroke-width:9.877;stroke-miterlimit:4;stroke-dasharray:none;stroke-opacity:1"
       id="path851"
       cx="149.86972"
       cy="150.41068"
       r="142.94501" />
    <title
       id="title7007" />
    <title
       id="title8480" />
    <desc
       id="desc8482" />
    <title
       id="title9024" />
    <g
       id="g10166"
       transform="matrix(0.36566192,0,0,0.36566192,38.736746,0.5517874)"
       style="fill:#ffffff">
      <path
         style="fill:#ffffff"
         d="m 234.26969,596.551 c -65.78681,-1.51671 -114.56168,-5.02611 -132.33126,-9.52137 -8.487126,-2.14703 -20.94482,-8.71446 -27.377774,-14.43298 -6.652962,-5.9141 -14.723227,-17.51146 -17.674243,-25.39876 -5.167407,-13.81113 -8.610994,-39.10276 -10.631329,-78.08243 -3.199233,-61.72491 -0.458572,-131.14709 6.536772,-165.57941 3.646608,-17.94924 8.625338,-27.73904 19.633553,-38.60593 11.891334,-11.73866 23.894483,-16.73936 47.344281,-19.72435 85.79764,-10.92142 330.93633,-9.02111 379.5,2.94189 8.49293,2.09211 21.08742,8.56246 27.2628,14.0061 19.31143,17.02315 25.38375,38.97966 28.7518,103.9617 3.21672,62.06215 0.46254,131.11348 -6.62106,166 -5.82056,28.66607 -22.38693,47.47257 -47.93861,54.42092 -30.17162,8.20468 -149.85295,12.70286 -266.45493,10.01462 z"
         id="path10170" />
      <path
         style="fill:#ffffff"
         d="m 239.76969,595.00796 c -68.07503,-1.78552 -113.5549,-4.85226 -134,-9.03571 -25.186961,-5.15371 -43.774262,-23.3435 -49.924503,-48.85679 -4.624232,-19.18289 -8.081039,-52.42888 -10.111728,-97.25 -1.925129,-42.49119 3.072405,-112.54849 10.111728,-141.75 6.168299,-25.5882 24.787677,-43.81679 49.924503,-48.87668 30.49131,-6.1377 93.16913,-9.04498 195,-9.04498 101.40746,0 164.99199,2.93071 194.73049,8.97544 25.46521,5.17612 43.99962,23.24978 50.19401,48.94622 4.62423,19.18289 8.08104,52.42888 10.11173,97.25 1.92513,42.49119 -3.07241,112.54849 -10.11173,141.75 -6.17935,25.63405 -24.79062,43.78266 -50.19401,48.94622 -15.51473,3.15357 -44.72571,5.62352 -89.73049,7.58723 -23.30747,1.01698 -141.99486,1.98868 -166,1.35905 z"
         id="path10168" />
    </g>
    <g
       id="g10050"
       transform="translate(-2,-2)">
      <path
         style="fill:#a2a2a2;stroke-width:0.439926"
         d="m 128.8138,155.98744 c 0,-32.37081 0.0262,-33.43434 0.82298,-33.43434 0.82942,0 56.03265,31.64679 57.23149,32.80955 0.56562,0.5486 0.56562,0.70136 0,1.25267 -1.18653,1.15652 -56.40324,32.80647 -57.23438,32.80647 -0.79297,0 -0.82009,-1.10546 -0.82009,-33.43435 z"
         id="path10054" />
      <path
         style="fill:#050505;stroke-width:0.439926"
         d="m 129.69366,155.98744 c 0,-22.39938 0.14379,-32.55449 0.46094,-32.55449 0.66574,0 56.28946,32.16947 56.28946,32.55449 0,0.38503 -55.62372,32.5545 -56.28946,32.5545 -0.31715,0 -0.46094,-10.15512 -0.46094,-32.5545 z"
         id="path10052" />
    </g>
  </g>
</svg>
