<?xml version="1.0" encoding="UTF-8" standalone="no"?>
<!-- Created with Inkscape (http://www.inkscape.org/) -->

<svg
   version="1.1"
   id="svg2"
   width="300"
   height="300"
   viewBox="0 0 300 300"
   sodipodi:docname="gimp.svg"
   inkscape:version="1.1.2 (0a00cf5339, 2022-02-04)"
   inkscape:export-filename="/home/tux/.icons/savetier/xaron/gimp.png"
   inkscape:export-xdpi="127"
   inkscape:export-ydpi="127"
   xmlns:inkscape="http://www.inkscape.org/namespaces/inkscape"
   xmlns:sodipodi="http://sodipodi.sourceforge.net/DTD/sodipodi-0.dtd"
   xmlns="http://www.w3.org/2000/svg"
   xmlns:svg="http://www.w3.org/2000/svg">
  <defs
     id="defs6">
    <style
       id="style3231">.cls-1{fill:#2d3e50;}.cls-2{fill:#2e79bd;}</style>
    <style
       id="style5157">.cls-1{fill:#009eeb;}</style>
  </defs>
  <sodipodi:namedview
     id="namedview4"
     pagecolor="#ffffff"
     bordercolor="#666666"
     borderopacity="1.0"
     inkscape:pageshadow="2"
     inkscape:pageopacity="0.0"
     inkscape:pagecheckerboard="0"
     showgrid="false"
     inkscape:zoom="0.86306847"
     inkscape:cx="-150.04603"
     inkscape:cy="358.60423"
     inkscape:window-width="1920"
     inkscape:window-height="987"
     inkscape:window-x="0"
     inkscape:window-y="0"
     inkscape:window-maximized="1"
     inkscape:current-layer="g8"
     showguides="true"
     inkscape:guide-bbox="true" />
  <g
     inkscape:groupmode="layer"
     inkscape:label="Image"
     id="g8">
    <circle
       style="fill:#000000;fill-opacity:1;stroke:#ffffff;stroke-width:9.877;stroke-miterlimit:4;stroke-dasharray:none;stroke-opacity:1"
       id="path851"
       cx="149.86972"
       cy="150.41068"
       r="142.94501" />
    <title
       id="title7007" />
    <title
       id="title8480" />
    <desc
       id="desc8482" />
    <title
       id="title9024" />
    <g
       id="g9146"
       transform="matrix(0.21684601,0,0,0.21684601,191.70701,109.55952)"
       style="fill:#ffffff">
      <path
         style="fill:#ffffff"
         d="m -274.12164,483.47255 c -17.69667,-0.98946 -31.03948,-2.883 -53.37689,-7.57496 -49.93105,-10.488 -95.59784,-23.89637 -136.46959,-40.06926 -22.71841,-8.98964 -40.67039,-17.48066 -66.65352,-31.52611 -10.725,-5.79751 -27.6,-14.72046 -37.5,-19.82878 -25.79822,-13.31166 -35.73573,-20.1496 -50.07271,-34.45467 -19.9775,-19.93303 -33.45025,-43.04921 -40.53325,-69.54584 -2.60762,-9.7548 -4.84909,-30.47933 -4.87416,-45.06634 -0.0308,-17.94601 2.03132,-26.97945 9.66336,-42.33091 6.03556,-12.14022 9.38215,-16.83933 18.23741,-25.60798 16.01427,-15.85766 36.89182,-21.54127 58.66939,-15.97188 16.12512,4.12383 35.43977,15.65494 51.9515,31.01576 9.00101,8.37361 11.42919,9.46013 20.95846,9.37809 15.86676,-0.13659 20.10843,-2.71434 22.13925,-13.45446 2.40719,-12.73056 11.85131,-28.65066 24.29964,-40.96228 10.06707,-9.95651 18.7268,-13.93392 40.06111,-18.40008 13.43223,-2.81193 16.83006,-3.99348 17.65325,-6.13869 0.85208,-2.22049 -1.64172,-7.29584 -13.95821,-28.40747 -13.43114,-23.02228 -25.71902,-47.78383 -33.77154,-68.05376 -6.4185,-16.15675 -26.71301,-76.311351 -31.47668,-93.299464 -4.6529,-16.593077 -2.25736,-15.490363 18.80868,8.658019 26.50688,30.385316 49.57388,53.220185 77.14983,76.373445 38.44963,32.283 72.9072,54.82511 108.09467,70.7154 32.43382,14.64678 57.21855,22.01732 86.5,25.72358 16.62991,2.1049 86.35107,1.75859 105,-0.52156 34.11112,-4.17065 57.48985,-10.79003 89.10627,-25.22925 72.20702,-32.97696 131.14748,-95.26408 182.30812,-192.65962 7.5361,-14.34663 9.0635,-16.61599 10.33063,-15.34887 0.33657,0.33658 1.49589,11.06914 2.57626,23.85014 2.40995,28.510134 2.97225,110.19054 0.89658,130.23818 -4.72897,45.6742 -13.56371,70.2977 -35.36981,98.57993 -7.70841,9.99771 -29.81514,32.59322 -54.01213,55.20635 -8.1389,7.60614 -16.43195,16.3516 -18.63701,19.6537 -4.22631,6.32895 -4.4403,7.05791 -9.13521,31.11867 -6.40798,32.84006 -12.48687,49.62999 -38.46554,106.24217 -9.2241,20.10097 -15.59816,35.33715 -15.59816,37.28493 0,2.89643 16.42137,6.88626 44.5,10.81198 34.19764,4.78122 45.04594,5.92579 57,6.01386 13.50494,0.0995 14.67607,-0.28694 23.37656,-7.71354 9.34306,-7.9751 16.77934,-8.61491 32.23783,-2.77371 37.69042,14.2418 119.54926,51.62949 126.63561,57.83874 2.60241,2.2803 2.72862,2.90116 0.9511,4.67867 -5.85031,5.85032 -50.50995,18.05511 -79.06291,21.60668 -12.95182,1.61102 -33.60784,0.71054 -44.13819,-1.92416 -10.51014,-2.62965 -20.94008,-7.01572 -30.90697,-12.99723 -20.89785,-12.54158 -18.4973,-12.1218 -75.09303,-13.13124 -49.05661,-0.87496 -63.525,-1.76083 -82.20306,-5.0331 -20.19523,-3.53807 -21.5555,-3.24933 -39.79694,8.44749 -25.20305,16.16076 -68.27245,33.63361 -97.67321,39.62511 -19.70788,4.01621 -35.24461,5.05502 -81.32679,5.43766 -24.2,0.20094 -50.75,-0.0121 -59,-0.47334 z m 64.00723,-206.08821 c 10.7219,-4.01157 18.69067,-12.40471 22.08442,-23.26046 2.38259,-7.62134 2.9155,-23.64141 1.07473,-32.30833 -3.16548,-14.9041 -11.3138,-26.32198 -21.20156,-29.70882 -16.12421,-5.523 -32.42173,-1.59691 -44.17361,10.64145 -15.00381,15.62491 -18.30136,35.43075 -9.06529,54.4482 5.6052,11.54136 15.87368,19.72181 27.95037,22.26686 6.16375,1.29895 16.84711,0.34701 23.33094,-2.0789 z m -170.00723,-32.34277 c 13.21904,-5.96289 19.09219,-19.10684 18.30825,-40.97335 -0.46885,-13.07757 -2.03256,-16.95761 -9.51644,-23.61315 -14.99781,-13.33779 -33.39085,-13.87092 -45.48955,-1.31854 -8.11333,8.41757 -12.16963,23.75541 -10.07654,38.10183 1.8731,12.83861 6.65465,21.21636 15.08164,26.42453 8.20534,5.07118 22.16095,5.67827 31.69264,1.37868 z"
         id="path9150" />
      <path
         style="fill:#ffffff"
         d="m -250.62164,483.38862 c -3.575,-0.45254 -14.56474,-1.31284 -24.42163,-1.91178 -20.37841,-1.23827 -37.11854,-3.86134 -66.63835,-10.44179 -56.44248,-12.58196 -113.8444,-31.53534 -154.44002,-50.99412 -8.25,-3.95449 -25.575,-12.84639 -38.5,-19.75977 -12.925,-6.91339 -30.90981,-16.47381 -39.96624,-21.2454 -20.56197,-10.83353 -29.79585,-17.36258 -42.51717,-30.06283 -21.64811,-21.61226 -36.86194,-50.21931 -42.01386,-79 -0.88608,-4.95 -2.07322,-10.483 -2.6381,-12.29556 -1.42761,-4.58093 -1.65062,-36.26486 -0.27662,-39.30059 0.59841,-1.32212 2.09851,-5.55385 3.33357,-9.40385 9.20294,-28.68811 28.77508,-50.27894 50.77172,-56.00833 7.341,-1.91209 21.99584,-1.88896 30.21178,0.0477 14.06697,3.31583 32.08178,13.8784 49.59492,29.07884 5.5,4.7737 11.575,9.36589 13.5,10.20487 7.67695,3.34587 26.07186,0.92668 30.73258,-4.04178 1.29321,-1.37858 2.73499,-5.13823 3.64366,-9.50133 1.92267,-9.23193 4.35045,-14.65204 11.05974,-24.69127 12.06958,-18.05994 24.84595,-27.11758 44.56402,-31.59309 5.225,-1.18594 12.425,-2.82357 16,-3.63916 7.48327,-1.70722 11.00034,-3.66716 10.99921,-6.12948 -10e-4,-2.7077 -4.9154,-12.3252 -15.44476,-30.22695 -20.17776,-34.3057 -32.97726,-63.27171 -48.38585,-109.50002 -10.55776,-31.675036 -18.44558,-57.556349 -17.75259,-58.249339 0.70426,-0.70426 4.54357,3.373446 21.40571,22.734823 16.9229,19.431147 46.3547,48.795126 64.68218,64.533116 49.61456,42.60454 90.45774,68.56254 135.93603,86.39457 37.40407,14.66612 59.54991,18.83409 105.06007,19.77286 74.50558,1.53688 116.46967,-6.63325 168.87315,-32.87849 29.73472,-14.89203 53.19982,-32.12259 80.49157,-59.10542 34.04379,-33.65844 62.63733,-73.488851 90.13528,-125.5572 4.675,-8.85228 8.77288,-16.10627 9.1064,-16.11999 0.74031,-0.0304 1.3452,6.49699 3.47277,37.47507 2.0423,29.736549 1.4848,98.96273 -0.96639,120 -3.85398,33.0766 -9.98334,53.09132 -22.71253,74.16515 -10.79844,17.87737 -24.49939,32.98766 -63.90025,70.47336 -23.43507,22.29595 -24.0925,23.34017 -27.98752,44.45369 -6.69949,36.31552 -13.66702,56.89687 -34.45848,101.78669 -10.82932,23.38105 -20.06107,44.76356 -21.06487,48.79031 -0.79773,3.20011 1.49972,5.04461 9.09029,7.29812 13.65819,4.05489 74.8953,12.50584 92.92058,12.82339 13.13449,0.23139 16.79028,-0.83153 23.57015,-6.85301 5.97172,-5.30374 7.37494,-6.08077 13.43274,-7.43835 6.05494,-1.35694 9.99098,-0.25951 34.0294,9.4879 42.25832,17.13546 115.80112,51.65114 113.87308,53.44381 -3.86124,3.59013 -36.72585,13.38494 -62.76487,18.70614 -16.68714,3.4101 -42.35811,4.31375 -54.9669,1.93491 -11.54346,-2.17784 -23.44773,-6.54754 -33.2597,-12.20862 -17.26016,-9.95837 -20.43457,-11.4746 -27.04775,-12.91911 -5.16318,-1.12779 -18.89532,-1.73279 -55.36615,-2.43928 -50.50419,-0.97834 -62.45878,-1.72965 -80,-5.02778 -12.31596,-2.31566 -18.83722,-2.49168 -23.28212,-0.62841 -1.76983,0.7419 -7.37373,4.0802 -12.45311,7.41844 -24.46576,16.07925 -69.72868,35.00674 -98.26477,41.09114 -25.30485,5.39544 -98.04787,9.7094 -119,7.0572 z m 44.15125,-205.58844 c 3.65819,-1.72136 8.43089,-4.90939 10.606,-7.0845 19.68,-19.68 14.04717,-68.18338 -9.18663,-79.10455 -21.00845,-9.87514 -47.17476,0.54926 -57.9492,23.08638 -9.1809,19.20386 -6.26755,38.98567 8.08054,54.86729 7.89531,8.73917 16.62986,11.98283 31.29804,11.62283 9.38432,-0.23031 11.20673,-0.59025 17.15125,-3.38745 z m -174.85942,-30.33525 c 15.07046,-5.63858 22.69226,-21.38807 21.48842,-44.4031 -0.60305,-11.52928 -2.72799,-16.4359 -10.13094,-23.39301 -7.78847,-7.31942 -15.08118,-10.54194 -24.95769,-11.02838 -7.14959,-0.35214 -8.34965,-0.11812 -14.22385,2.77374 -10.70944,5.27224 -17.47991,15.81159 -19.50345,30.36033 -3.08301,22.16598 6.16978,41.18108 22.53482,46.31059 6.41481,2.01067 18.57406,1.70652 24.79269,-0.62017 z"
         id="path9148" />
    </g>
  </g>
</svg>
