<?xml version="1.0" encoding="UTF-8" standalone="no"?>
<!-- Created with Inkscape (http://www.inkscape.org/) -->

<svg
   version="1.1"
   id="svg2"
   width="300"
   height="300"
   viewBox="0 0 300 300"
   sodipodi:docname="inkscape.svg"
   inkscape:version="1.1.2 (0a00cf5339, 2022-02-04)"
   inkscape:export-filename="/home/tux/.icons/savetier/xaron/gimp.png"
   inkscape:export-xdpi="127"
   inkscape:export-ydpi="127"
   xmlns:inkscape="http://www.inkscape.org/namespaces/inkscape"
   xmlns:sodipodi="http://sodipodi.sourceforge.net/DTD/sodipodi-0.dtd"
   xmlns="http://www.w3.org/2000/svg"
   xmlns:svg="http://www.w3.org/2000/svg">
  <defs
     id="defs6">
    <style
       id="style3231">.cls-1{fill:#2d3e50;}.cls-2{fill:#2e79bd;}</style>
    <style
       id="style5157">.cls-1{fill:#009eeb;}</style>
  </defs>
  <sodipodi:namedview
     id="namedview4"
     pagecolor="#ffffff"
     bordercolor="#666666"
     borderopacity="1.0"
     inkscape:pageshadow="2"
     inkscape:pageopacity="0.0"
     inkscape:pagecheckerboard="0"
     showgrid="false"
     inkscape:zoom="0.86306847"
     inkscape:cx="-150.04603"
     inkscape:cy="358.60423"
     inkscape:window-width="1920"
     inkscape:window-height="987"
     inkscape:window-x="0"
     inkscape:window-y="0"
     inkscape:window-maximized="1"
     inkscape:current-layer="g8"
     showguides="true"
     inkscape:guide-bbox="true" />
  <g
     inkscape:groupmode="layer"
     inkscape:label="Image"
     id="g8">
    <circle
       style="fill:#000000;fill-opacity:1;stroke:#ffffff;stroke-width:9.877;stroke-miterlimit:4;stroke-dasharray:none;stroke-opacity:1"
       id="path851"
       cx="149.86972"
       cy="150.41068"
       r="142.94501" />
    <title
       id="title7007" />
    <title
       id="title8480" />
    <desc
       id="desc8482" />
    <title
       id="title9024" />
    <g
       id="g9565"
       transform="matrix(0.80880895,0,0,0.80880895,57.334263,-278.56018)"
       style="fill:#ffffff">
      <path
         style="fill:#ffffff"
         d="m 108.26192,642.0767 c -3.22283,-1.40293 -6.6315,-5.45218 -7.82417,-9.29454 -1.094827,-3.52713 -5.121497,-6.01762 -14.212955,-8.79069 -9.70419,-2.95996 -12.359132,-5.06754 -12.359132,-9.81109 0,-3.60908 1.859196,-5.77097 8.251678,-9.59514 3.715938,-2.22298 5.608793,-5.87788 4.213416,-8.13565 -1.505455,-2.43588 -9.479258,-4.9252 -19.046138,-5.94597 -5.455426,-0.58209 -13.84879,-1.46991 -18.651921,-1.97294 -9.995952,-1.04688 -14.996256,-3.03752 -16.628478,-6.61985 -1.712108,-3.75767 -1.394486,-5.94715 1.332953,-9.18853 1.95595,-2.32452 4.511317,-3.50295 12.25,-5.64921 13.20361,-3.66192 14.966472,-5.40214 11.757883,-11.60687 -2.91593,-5.63879 -11.311012,-8.19348 -31.066648,-9.45383 C 12.332396,545.12268 8.885787,544.19275 5.49087,540.40371 2.83806,537.44294 2.657024,536.7436 3.146366,531.34705 3.4969,527.4813 4.640872,523.83077 6.521159,520.57777 c 2.481467,-4.29309 73.291489,-78.35231 91.071544,-95.25048 9.345227,-8.8817 19.332987,-10.84428 29.352937,-5.7678 3.20383,1.62318 25.56288,24.14849 79.14934,79.73788 18.24614,18.92813 21.61854,23.67934 22.52674,31.73678 1.07832,9.56688 -2.20279,15.17276 -11.62786,19.86658 -5.01146,2.49578 -9.89597,3.80715 -32.1282,8.62563 -17.62414,3.81976 -19,4.56209 -19,10.25135 0,3.926 0.48678,4.68638 6.8672,10.72694 7.49448,7.09527 9.1328,9.5144 9.1328,13.48534 0,7.6323 -7.65022,12.52829 -26.61144,17.03082 -11.55621,2.74414 -17.38856,5.4059 -17.38856,7.93577 0,0.81394 1.30678,2.96823 2.90395,4.78731 3.3464,3.81135 3.78558,5.22249 2.79348,8.97585 -1.96476,7.43308 -25.43167,13.65324 -35.30117,9.35696 z M 91.074533,491.25607 c 2.3491,-8.25845 3.98506,-12.34801 5.02075,-12.55078 0.92759,-0.18161 3.44203,2.29472 6.346197,6.25 2.64545,3.60293 5.08987,6.55078 5.43204,6.55078 0.34217,0 3.86497,-4.05 7.82844,-9 3.96347,-4.95 7.77241,-9 8.46431,-9 0.6919,0 7.75662,4.05 15.69939,9 7.94277,4.95 14.94485,9 15.56018,9 1.33812,0 3.43982,-4.30651 3.43982,-7.04839 0,-2.25594 -27.83012,-32.99352 -34.76339,-38.39519 -4.66087,-3.63124 -8.02344,-4.34836 -12.46726,-2.65883 -1.29847,0.49368 -12.191377,11.32006 -24.206467,24.05864 -15.686289,16.63082 -21.540122,23.46653 -20.762102,24.24455 1.601433,1.60143 18.515931,11.59463 19.811416,11.70471 0.611707,0.052 2.680216,-5.41799 4.596676,-12.15549 z M 35.760154,615.39195 c -1.433031,-0.52592 -3.110883,-2.06539 -3.728562,-3.42105 -1.709739,-3.75247 0.305821,-6.94307 6.402528,-10.1351 5.055289,-2.64679 5.550525,-2.71764 11.002209,-1.57414 12.712561,2.66649 13.049979,7.10813 0.979427,12.89278 -7.192448,3.44689 -10.135838,3.89627 -14.655602,2.23751 z M 209.86566,587.37549 c -6.69506,-1.81763 -9.02873,-3.1357 -9.60301,-5.42384 -1.5376,-6.12628 3.45642,-9.59417 14.75853,-10.24844 7.61608,-0.44089 7.8005,-0.39497 10.91273,2.71726 2.66568,2.66568 3.06844,3.67276 2.54981,6.37566 -0.94332,4.9162 -4.78985,7.72799 -10.42382,7.61975 -2.58183,-0.0496 -6.26924,-0.51778 -8.19424,-1.04039 z"
         id="path9569" />
      <path
         style="fill:#ffffff"
         d="m 108.16815,639.03727 c -2.19438,-0.95428 -3.99656,-2.96736 -5.74451,-6.41679 -3.455257,-6.81862 -5.636237,-8.60524 -12.875397,-10.54732 -14.258312,-3.82514 -17.009739,-6.66027 -11.376288,-11.72237 1.756539,-1.57839 4.881208,-4.39416 6.943708,-6.25726 4.69783,-4.24365 4.90723,-7.43593 0.718945,-10.96014 -4.717662,-3.96965 -5.991249,-4.22277 -38.335665,-7.61918 -11.850717,-1.24442 -15.65897,-3.78533 -14.22664,-9.49219 0.748016,-2.98033 4.020803,-4.79776 12.637703,-7.01792 9.147638,-2.35691 12.595564,-4.21448 13.966626,-7.52451 2.353278,-5.68132 -3.881467,-13.4116 -12.893338,-15.98608 -1.989697,-0.56841 -9.917631,-1.48937 -17.617631,-2.04657 -21.535825,-1.55842 -24.509452,-2.8755 -24.487133,-10.84586 0.025967,-9.27341 1.605478,-11.20371 50.445883,-61.64939 49.812597,-51.44983 50.328007,-51.89161 60.541247,-51.89161 9.92729,0 11.56077,1.33038 48.00548,39.09794 55.66804,57.68864 59.11164,61.39376 61.07122,65.7092 1.16328,2.56183 1.88774,6.44553 1.90134,10.19268 0.0201,5.54385 -0.25183,6.31366 -3.22804,9.13805 -6.03251,5.72478 -10.73078,7.41475 -35.31036,12.70115 -18.62069,4.0048 -20.69906,4.71155 -22.83873,7.76636 -3.68402,5.25967 -1.16209,12.24799 6.94624,19.24822 14.12853,12.19769 9.79038,18.59686 -17.04715,25.14611 -11.9712,2.92137 -13.86407,3.66157 -17.25,6.74556 -3.09033,2.81474 -2.83271,4.81403 1.25,9.70072 4.14826,4.96515 4.26608,5.93168 1.08708,8.91819 -6.22078,5.84412 -24.46086,9.01535 -32.28459,5.61301 z M 88.556643,504.25815 c 0.44496,-0.68635 2.20457,-6.17653 3.91024,-12.2004 1.70566,-6.02387 3.53345,-11.09657 4.06174,-11.27267 0.52829,-0.17609 2.90498,2.36386 5.281517,5.64435 2.37655,3.28049 4.91437,6.19223 5.6396,6.47053 0.79427,0.30479 4.1567,-3.0529 8.45584,-8.44394 3.92547,-4.92248 7.77829,-8.94995 8.56183,-8.94995 0.78354,0 7.95747,4.09285 15.94208,9.09523 7.9846,5.00237 15.15514,8.85053 15.93453,8.55145 2.3388,-0.89749 4.75544,-6.57902 4.02918,-9.47265 -0.70308,-2.80128 -2.33766,-4.72348 -20.9214,-24.6027 -12.35016,-13.2111 -19.10287,-18.57133 -23.39577,-18.57133 -1.32993,0 -4.05433,0.95539 -6.05422,2.12308 -4.32894,2.5276 -45.636147,46.4254 -45.636147,48.49824 0,1.21738 20.664344,14.2917 22.690983,14.35656 0.380041,0.0122 1.055037,-0.53944 1.499997,-1.2258 z M 34.726447,611.56872 c -2.950052,-2.42093 -1.926615,-4.55713 3.735099,-7.7962 4.310742,-2.46618 7.1539,-2.75436 12.404117,-1.25729 6.315444,1.80083 6.89552,2.71302 3.5,5.50393 -3.406799,2.80017 -10.539899,5.48691 -14.567355,5.48691 -1.491092,0 -3.77343,-0.87181 -5.071861,-1.93735 z M 209.55593,584.40884 c -5.48192,-1.28976 -7.69027,-2.70113 -7.69027,-4.9149 0,-5.92438 19.79684,-8.72135 23.72322,-3.35171 1.94301,2.65723 1.52916,6.07366 -0.94573,7.80714 -2.42983,1.70192 -8.96096,1.90082 -15.08722,0.45947 z"
         id="path9567" />
    </g>
  </g>
</svg>
