<?xml version="1.0" encoding="UTF-8" standalone="no"?>
<!-- Created with Inkscape (http://www.inkscape.org/) -->

<svg
   version="1.1"
   id="svg2"
   width="300"
   height="300"
   viewBox="0 0 300 300"
   sodipodi:docname="musicplayer.svg"
   inkscape:version="1.1.2 (0a00cf5339, 2022-02-04)"
   inkscape:export-filename="/home/tux/.icons/savetier/xaron/musicplayer.png"
   inkscape:export-xdpi="127"
   inkscape:export-ydpi="127"
   xmlns:inkscape="http://www.inkscape.org/namespaces/inkscape"
   xmlns:sodipodi="http://sodipodi.sourceforge.net/DTD/sodipodi-0.dtd"
   xmlns="http://www.w3.org/2000/svg"
   xmlns:svg="http://www.w3.org/2000/svg">
  <defs
     id="defs6">
    <style
       id="style3231">.cls-1{fill:#2d3e50;}.cls-2{fill:#2e79bd;}</style>
    <style
       id="style5157">.cls-1{fill:#009eeb;}</style>
    <clipPath
       clipPathUnits="userSpaceOnUse"
       id="clipPath10773">
      <circle
         style="fill:#999999;fill-opacity:1;stroke:#ffffff;stroke-width:1.78325;stroke-miterlimit:4;stroke-dasharray:none;stroke-opacity:1"
         id="circle10775"
         cx="30.434607"
         cy="29.713194"
         r="25.808159" />
    </clipPath>
  </defs>
  <sodipodi:namedview
     id="namedview4"
     pagecolor="#ffffff"
     bordercolor="#666666"
     borderopacity="1.0"
     inkscape:pageshadow="2"
     inkscape:pageopacity="0.0"
     inkscape:pagecheckerboard="0"
     showgrid="false"
     inkscape:zoom="0.92429527"
     inkscape:cx="181.21915"
     inkscape:cy="198.52963"
     inkscape:window-width="1920"
     inkscape:window-height="987"
     inkscape:window-x="0"
     inkscape:window-y="0"
     inkscape:window-maximized="1"
     inkscape:current-layer="g8"
     showguides="true"
     inkscape:guide-bbox="true" />
  <g
     inkscape:groupmode="layer"
     inkscape:label="Image"
     id="g8">
    <circle
       style="fill:#000000;fill-opacity:1;stroke:#ffffff;stroke-width:9.877;stroke-miterlimit:4;stroke-dasharray:none;stroke-opacity:1"
       id="path851"
       cx="149.86972"
       cy="150.41068"
       r="142.94501" />
    <title
       id="title7007" />
    <title
       id="title8480" />
    <desc
       id="desc8482" />
    <title
       id="title9024" />
    <title
       id="title10523" />
    <desc
       id="desc10525" />
    <path
       style="fill:#ffffff;stroke-width:1.15088"
       d="m 138.15113,265.30889 c -9.6567,-4.4806 -13.64037,-9.62961 -14.25768,-18.42847 -0.49137,-7.00372 -0.43293,-7.16504 3.95777,-10.92333 3.36902,-2.88377 5.50621,-3.81464 8.7581,-3.81464 6.10093,0 11.81241,3.61487 14.92159,9.44404 3.31371,6.21264 2.26928,8.84233 -5.48121,13.80054 -8.93712,5.71731 -6.84613,8.55134 6.30933,8.55134 7.29562,0 9.5229,-0.43734 12.56369,-2.46692 8.0597,-5.37948 9.94821,-13.63977 6.32932,-27.68437 -2.98662,-11.59086 -5.22995,-16.82938 -7.48339,-17.47486 -1.11966,-0.32073 -6.97432,-1.0455 -13.01033,-1.61061 -12.91173,-1.20884 -17.92029,-3.72905 -30.70309,-15.44913 -13.84865,-12.69731 -18.12073,-21.7344 -18.12073,-38.33226 0,-10.10324 0.21697,-10.98357 4.85034,-19.67936 4.13366,-7.75798 7.01345,-11.10532 19.49031,-22.65467 l 14.64,-13.55166 -0.66262,-7.986844 c -0.36444,-4.392762 -1.29717,-12.180606 -2.07274,-17.306326 -1.8343,-12.122664 -1.04573,-16.770327 4.95095,-29.180151 4.95129,-10.24643 10.91059,-16.869103 15.17941,-16.869103 5.94337,0 18.1082,20.772621 19.40323,33.132921 1.08352,10.34139 -4.20205,29.243485 -10.84999,38.801293 -1.65757,2.38312 -7.5672,8.00933 -13.13249,12.5027 -28.23046,22.79298 -37.30916,33.1696 -39.82422,45.51758 -1.42256,6.98413 0.1679,19.44345 3.15012,24.67748 3.02779,5.31403 13.87003,14.08072 21.59536,17.46132 9.4696,4.14388 21.70059,6.37835 24.27976,4.43563 2.68929,-2.02565 2.29377,-5.21893 -3.19226,-25.77244 -0.64383,-2.41211 -1.82072,-7.54055 -2.61534,-11.39657 -1.71548,-8.32462 -3.98324,-10.29976 -8.93191,-7.7794 -8.65934,4.41019 -10.64718,16.39994 -4.11379,24.81238 4.7892,6.16659 4.80784,7.96615 0.0449,4.32875 -2.04424,-1.56118 -4.18468,-2.83849 -4.75648,-2.83849 -0.57182,0 -2.77939,-3.20733 -4.90574,-7.12739 -3.44939,-6.3592 -3.7808,-7.78602 -3.07476,-13.23808 1.01024,-7.80124 4.09942,-13.24939 10.47833,-18.47977 l 5.07191,-4.15873 11.62624,0.46112 c 8.7573,0.34734 12.81863,1.03012 16.45842,2.76693 8.30356,3.96224 17.49541,14.36119 19.65254,22.23334 2.68886,9.81264 2.77197,11.26326 0.968,16.89528 -2.57391,8.03573 -7.98517,14.3307 -15.15248,17.62703 -7.58975,3.4906 -8.28232,5.71085 -5.65756,18.13761 2.88508,13.65939 2.68446,27.62139 -0.4701,32.71549 -3.84832,6.21438 -10.15257,8.91592 -20.80596,8.91592 -7.33539,0 -10.05267,-0.53185 -15.40472,-3.01512 z m 43.14348,-64.17012 c 5.54853,-7.53501 6.17788,-13.10431 2.27732,-20.1525 -1.71286,-3.09508 -3.1143,-6.10967 -3.1143,-6.69907 0,-0.5894 -2.43415,-3.10802 -5.40923,-5.59693 -5.34032,-4.46766 -11.51603,-6.07142 -13.29871,-3.45356 -1.15935,1.70252 7.28257,37.90444 9.41403,40.3707 2.25561,2.6099 6.19948,0.87031 10.13089,-4.46864 z M 155.76022,93.544481 c 3.10367,-3.262759 7.17446,-8.365911 9.04621,-11.340352 3.03089,-4.816478 3.40888,-6.500883 3.45533,-15.398114 0.0396,-7.595748 -0.39524,-10.39609 -1.81459,-11.684275 -4.31152,-3.913101 -13.22008,-0.224863 -17.65207,7.308138 -2.47613,4.20866 -2.76683,6.200291 -2.76683,18.956098 0,14.122285 0.63892,18.090778 2.91258,18.090778 0.64699,0 3.71571,-2.669523 6.81937,-5.932273 z"
       id="path953" />
    <path
       style="fill:#000000"
       id="path933"
       d="" />
    <path
       style="fill:#000000"
       id="path913"
       d="" />
  </g>
</svg>
