<?xml version="1.0" encoding="UTF-8" standalone="no"?>
<!-- Created with Inkscape (http://www.inkscape.org/) -->

<svg
   version="1.1"
   id="svg2"
   width="300"
   height="300"
   viewBox="0 0 300 300"
   sodipodi:docname="obsstudio.svg"
   inkscape:version="1.1.2 (0a00cf5339, 2022-02-04)"
   inkscape:export-filename="/home/tux/.icons/savetier/xaron/protonvpn.png"
   inkscape:export-xdpi="127"
   inkscape:export-ydpi="127"
   xmlns:inkscape="http://www.inkscape.org/namespaces/inkscape"
   xmlns:sodipodi="http://sodipodi.sourceforge.net/DTD/sodipodi-0.dtd"
   xmlns="http://www.w3.org/2000/svg"
   xmlns:svg="http://www.w3.org/2000/svg">
  <defs
     id="defs6" />
  <sodipodi:namedview
     id="namedview4"
     pagecolor="#ffffff"
     bordercolor="#666666"
     borderopacity="1.0"
     inkscape:pageshadow="2"
     inkscape:pageopacity="0.0"
     inkscape:pagecheckerboard="0"
     showgrid="false"
     inkscape:zoom="0.95462859"
     inkscape:cx="111.56171"
     inkscape:cy="211.07686"
     inkscape:window-width="1920"
     inkscape:window-height="987"
     inkscape:window-x="0"
     inkscape:window-y="0"
     inkscape:window-maximized="1"
     inkscape:current-layer="g8"
     showguides="true"
     inkscape:guide-bbox="true" />
  <g
     inkscape:groupmode="layer"
     inkscape:label="Image"
     id="g8">
    <circle
       style="fill:#000000;fill-opacity:1;stroke:#ffffff;stroke-width:9.877;stroke-miterlimit:4;stroke-dasharray:none;stroke-opacity:1"
       id="path851"
       cx="149.86972"
       cy="150.41068"
       r="142.94501" />
    <g
       id="g2570"
       transform="matrix(0.30310647,0,0,0.30310647,90.398253,79.765125)">
      <path
         style="fill:#f9f9f9"
         d="m 36.7432,523.35026 c -6.325,-0.50068 -14.425,-1.52136 -18,-2.26817 -14.45456,-3.01953 -19.9612,-4.43206 -22.66377,-5.81357 -1.55993,-0.79741 -4.41123,-1.7765 -6.33623,-2.17575 -1.925,-0.39925 -5.075,-1.39933 -7,-2.2224 -1.925,-0.82306 -4.4,-1.83975 -5.5,-2.2593 -2.642956,-1.00806 -22.45115,-10.78534 -24.973791,-12.32701 -1.085584,-0.66344 -5.449314,-3.56875 -9.697176,-6.45625 -4.247862,-2.8875 -8.122157,-5.25 -8.609543,-5.25 -0.487386,0 -2.198657,-1.3375 -3.802823,-2.97222 -1.604167,-1.63472 -3.305995,-2.98472 -3.78184,-3 -0.927223,-0.0298 -3.036629,-1.96197 -11.532068,-10.56328 -2.968482,-3.00547 -5.994426,-5.4645 -6.72432,-5.4645 -0.729893,0 -2.016419,-1.33304 -2.858946,-2.96231 -0.842527,-1.62926 -3.133701,-4.21676 -5.091498,-5.75 -2.988135,-2.34013 -8.026495,-10.02252 -7.148755,-10.90027 0.54175,-0.54175 10.72076,6.77827 10.72076,7.70961 0,0.53208 0.849246,1.29042 1.887214,1.68519 1.037967,0.39478 3.625467,2.16797 5.75,3.94043 4.408863,3.67824 12.6701,9.2568 16.362786,11.04929 1.375,0.66745 3.175,1.63137 4,2.14205 9.38072,5.80669 33.474482,13.6634 49,15.97836 9.151538,1.36456 12.92321,1.49689 33.97447,1.19206 9.0925,-0.13166 32.15769,-5.18683 41.77553,-9.15589 1.2375,-0.51068 3.2625,-1.31267 4.5,-1.78219 10.18512,-3.86435 28.83434,-14.4783 32.73565,-18.63105 1.29964,-1.3834 2.9437,-2.51528 3.65348,-2.51528 0.70978,0 1.77217,-0.9 2.36087,-2 0.5887,-1.1 1.63162,-2 2.31759,-2 0.68597,0 4.74885,-3.7125 9.02864,-8.25 4.27978,-4.5375 8.6527,-9.16583 9.71759,-10.28517 1.0649,-1.11934 1.93618,-2.39917 1.93618,-2.84405 0,-0.44489 2.05109,-3.5059 4.55799,-6.80225 2.50689,-3.29635 4.98852,-6.96652 5.51474,-8.15594 0.52622,-1.18943 2.77007,-5.53759 4.98634,-9.66259 2.21626,-4.125 5.41158,-11.325 7.10072,-16 3.80895,-10.542 8.84792,-33.63657 8.94573,-41 0.0402,-3.025 0.092,-7.525 0.11509,-10 0.15239,-16.3126 -3.21236,-37.24851 -7.87512,-49 -1.41849,-3.575 -2.90697,-7.4 -3.30773,-8.5 -1.18172,-3.24356 -6.96371,-14.71285 -9.34019,-18.52738 -1.20866,-1.94006 -3.09757,-5.02158 -4.19757,-6.84783 -1.1,-1.82624 -3.45206,-4.96392 -5.2268,-6.97261 -1.77474,-2.0087 -3.23724,-4.0588 -3.25,-4.55579 -0.0128,-0.49699 -1.7107,-2.61079 -3.7732,-4.69735 -2.0625,-2.08655 -4.65,-4.75012 -5.75,-5.91905 -3.25521,-3.45918 -11.53493,-10.97999 -12.08795,-10.97999 -0.28115,0 -2.05339,-1.49777 -3.93831,-3.32839 -1.88493,-1.83061 -5.80012,-4.60639 -8.70044,-6.16838 -2.90031,-1.562 -5.63316,-3.43923 -6.07299,-4.17161 -0.43983,-0.73239 -1.38045,-1.33162 -2.09028,-1.33162 -0.70982,0 -3.94996,-1.31428 -7.20031,-2.92063 C 53.96509,195.16281 36.02913,190.18316 16.1566,188.38827 8.67494,187.71252 1.97507,186.69123 1.268,186.11873 c -0.70706,-0.57251 -3.17803,-4.86592 -5.49104,-9.54092 -2.313,-4.675 -4.66402,-9.35696 -5.224484,-10.40436 -4.533018,-8.47134 -13.134839,-41.06038 -14.67437,-55.59564 -0.611671,-5.775 -1.317705,-12.3 -1.568966,-14.5 -0.251261,-2.2 -0.465582,-8.725 -0.476269,-14.5 -0.05732,-30.97266 6.903487,-62.8751 19.309849,-88.5 3.46169,-7.15 6.86754,-14.4625 7.56855,-16.25 0.70101,-1.7875 1.66394,-3.25 2.13983,-3.25 0.47589,0 1.55428,-1.4625 2.39641,-3.25 2.55087,-5.414455 4.81162,-9.027124 8.64164,-13.809308 2.00833,-2.50762 4.54526,-6.02895 5.63761,-7.825179 1.09235,-1.796228 2.93792,-3.932557 4.10127,-4.747396 1.16334,-0.814838 2.11517,-1.826251 2.11517,-2.247582 0,-0.87732 23.84072,-25.120535 24.70348,-25.120535 0.31195,0 1.60606,-1.0125 2.8758,-2.25 4.45611,-4.342972 6.09387,-5.75 6.69289,-5.75 0.33242,0 2.08245,-1.35 3.88897,-3 1.80652,-1.65 3.78469,-3 4.39594,-3 0.61124,0 3.77346,-1.871802 7.02714,-4.15956 5.1758,-3.63926 24.19329,-13.67169 34.41578,-18.15561 3.06829,-1.34585 19.26346,-4.6729 22.78896,-4.68164 2.32609,-0.006 -2.02412,3.62465 -7.78896,6.50017 -9.65101,4.81396 -19.37891,10.70478 -23.5,14.23067 -2.2,1.88225 -5.28047,4.399607 -6.84549,5.594123 -3.6699,2.801077 -13.52528,12.656461 -16.32636,16.326354 -1.19451,1.565021 -3.66951,4.645493 -5.5,6.845493 -3.75957,4.518514 -7.82815,10.180626 -7.82815,10.894198 0,0.261351 -2.68116,5.449003 -5.95812,11.528116 -3.27697,6.079113 -6.47097,12.971002 -7.09778,15.315309 -0.6268,2.344307 -1.46666,4.712377 -1.86635,5.262377 -2.37235,3.264558 -6.56514,25.22283 -7.64371,40.03128 -1.44112,19.78627 4.24693,49.90446 12.55314,66.46872 0.96529,1.925 2.07143,4.85 2.45808,6.5 0.38665,1.65 1.53598,3.9 2.55406,5 1.01808,1.1 2.97914,4.25 4.35792,7 1.37877,2.75 4.11209,6.8 6.07403,9 1.96194,2.2 3.56752,4.54667 3.56795,5.21482 4.3e-4,0.66815 0.90078,1.69648 2.00078,2.28518 1.1,0.5887 2,1.53181 2,2.09579 0,1.32475 15.55963,16.90421 16.88269,16.90421 0.55215,0 1.6057,0.85919 2.34123,1.90931 1.15052,1.64259 7.34916,6.02507 19.27608,13.62831 3.91586,2.4963 15.66349,8.46238 16.66303,8.46238 0.42773,0 3.37208,1.18669 6.54299,2.6371 3.1709,1.4504 8.58424,3.2504 12.02963,4 3.44539,0.74959 9.30185,2.05398 13.01435,2.89863 9.4906,2.15927 31.76771,2.97905 43.46516,1.59949 17.81989,-2.10161 42.2056,-9.56735 53.28484,-16.31327 13.37421,-8.14327 15.18425,-9.34202 19.63878,-13.0062 2.55133,-2.09866 4.94405,-3.81575 5.31715,-3.81575 1.41258,0 20.54407,-19.15326 20.54407,-20.56745 0,-0.31209 1.9125,-2.97727 4.25,-5.92262 2.3375,-2.94534 5.46864,-7.12316 6.9581,-9.28403 2.5842,-3.74911 3.0127,-3.95731 9.36583,-4.55057 3.66176,-0.34194 7.39311,-0.24208 8.2919,0.22192 0.8988,0.464 5.00917,1.15633 9.13417,1.53851 7.93903,0.73555 30.49479,5.01553 34.26478,6.50178 1.22937,0.48466 4.89711,1.66226 8.15054,2.6169 3.25342,0.95463 7.07842,2.34265 8.5,3.08447 1.42157,0.74182 3.34562,1.35154 4.27566,1.35493 0.93004,0.003 1.9691,0.45616 2.30902,1.00616 0.33992,0.55 1.38702,1 2.32688,1 0.93987,0 3.27581,1.03294 5.19099,2.29542 1.91517,1.26248 6.85713,3.80505 10.98213,5.65015 4.125,1.84511 9.43506,4.63717 11.80013,6.20458 2.36507,1.56742 4.67247,2.84985 5.12756,2.84985 0.45508,0 1.42552,0.72066 2.15652,1.60147 0.731,0.8808 3.8236,3.18652 6.87244,5.12381 5.49781,3.49341 7.01053,4.68425 11.46407,9.02472 1.26974,1.2375 2.55365,2.25 2.85313,2.25 0.70683,0 23.72615,22.86334 23.72615,23.56538 0,0.29356 1.58845,2.16933 3.5299,4.16837 4.55861,4.69385 20.43457,28.65558 21.54027,32.51091 0.46702,1.62842 1.99229,4.45951 3.38948,6.29133 1.39719,1.83181 2.54035,4.05947 2.54035,4.95034 0,0.89088 1.125,3.27536 2.5,5.29886 1.375,2.02349 2.5,4.25572 2.5,4.96051 0,0.70479 0.39886,2.06283 0.88636,3.01787 2.1088,4.13124 6.11364,15.4441 6.11364,17.2698 0,1.09657 0.41261,2.77516 0.91691,3.7302 4.14174,7.84359 8.08252,37.91839 8.08949,61.73643 0.008,28.29672 -4.09567,55.7018 -10.7402,71.72036 -1.72076,4.14838 -4.76733,7.39585 -5.62954,6.00076 -0.30904,-0.50004 0.32611,-6.01151 1.41145,-12.2477 1.08534,-6.2362 1.99976,-12.94389 2.03206,-14.90598 0.073,-4.43713 0.0733,-18.54045 3.7e-4,-22.56744 -0.0803,-4.43773 -3.06626,-22.17917 -4.79665,-28.5 -3.33085,-12.16709 -4.14452,-14.81549 -5.10569,-16.61838 -0.55173,-1.03489 -3.17127,-6.38162 -5.8212,-11.88162 -5.51775,-11.45225 -10.98765,-20.63513 -12.98527,-21.79969 -0.75445,-0.43983 -1.37173,-1.28823 -1.37173,-1.88533 0,-0.5971 -1.0125,-2.09371 -2.25,-3.3258 -1.2375,-1.2321 -3.26098,-3.5337 -4.49663,-5.11468 -5.3014,-6.78302 -10.59508,-12.3745 -11.71543,-12.3745 -0.66404,0 -2.36722,-1.2375 -3.78485,-2.75 -4.83658,-5.16025 -26.42424,-19.57364 -33.94849,-22.66632 -2.36753,-0.97312 -6.1046,-2.59999 -8.3046,-3.61525 -9.07793,-4.18932 -34.07372,-9.76734 -44.88879,-10.01731 -4.01251,-0.0927 -16.20991,-0.0927 -20.22242,0 -8.32953,0.19252 -27.90919,3.90302 -33.76091,6.39796 -2.12967,0.90801 -4.53666,1.65092 -5.34887,1.65092 -2.81904,0 -23.35193,10.05992 -32.37508,15.86191 -7.80708,5.02003 -10.39488,6.96652 -13.14592,9.88809 -1.16528,1.2375 -2.55976,2.25 -3.09886,2.25 -0.96366,0 -12.99365,12.22784 -17.41774,17.7042 -1.24223,1.53769 -3.49223,4.28893 -5,6.11387 -7.2087,8.72508 -20.3841,35.16134 -23.26552,46.68193 -0.6878,2.75 -1.83958,7.1424 -2.55952,9.7609 -3.14675,11.44518 -4.30114,35.94558 -2.38818,50.68607 1.45314,11.19731 5.58814,26.98496 9.49229,36.24205 1.91374,4.53764 3.47952,8.67453 3.47952,9.19307 0,0.51855 1.37199,3.08088 3.04887,5.69406 5.1748,8.06424 5.00999,10.17819 -1.55526,19.9486 -3.13223,4.66139 -6.32466,8.83511 -7.09429,9.27494 -0.76962,0.43983 -1.39932,1.35704 -1.39932,2.03824 0,0.6812 -2.025,2.93124 -4.5,5.00008 -2.475,2.06884 -4.5,4.31855 -4.5,4.99935 0,1.56135 -9.16496,10.66264 -10.73723,10.66264 -0.64269,0 -2.61504,1.8 -4.38301,4 -1.76797,2.2 -3.8283,4 -4.57851,4 -0.75021,0 -1.60849,0.63708 -1.90729,1.41573 -0.29879,0.77866 -2.42217,2.68989 -4.71861,4.24719 -2.29644,1.5573 -4.40035,3.10295 -4.67535,3.43478 -0.275,0.33182 -2.525,1.85942 -5,3.39466 -2.475,1.53524 -6.75,4.25514 -9.5,6.04423 -2.75,1.78908 -7.475,4.29198 -10.5,5.56201 -3.025,1.27002 -7.69418,3.58913 -10.37595,5.15358 -2.68177,1.56445 -6.50677,3.46283 -8.5,4.21863 -13.60562,5.15901 -25.05254,8.74627 -36.57909,11.46322 -14.30445,3.37175 -50.43057,4.74731 -74.54496,2.83842 z"
         id="path2574" />
      <path
         style="fill:#f5f5f5"
         d="m 43.2432,523.93939 c -2.75,-0.23137 -5.675,-0.68604 -6.5,-1.01037 -0.825,-0.32433 -3.87509,-0.71639 -6.77799,-0.87123 -2.90289,-0.15485 -5.92068,-0.81493 -6.70619,-1.46685 -0.78552,-0.65192 -1.89792,-0.89501 -2.47202,-0.5402 -0.57409,0.35481 -1.58358,0.3115 -2.2433,-0.0962 -0.65973,-0.40773 -2.12223,-0.8473 -3.25,-0.97682 -5.74834,-0.66018 -16.7107,-3.45795 -18.74244,-4.78338 -1.26943,-0.82813 -4.493462,-1.99326 -7.164508,-2.58919 -2.671046,-0.59592 -6.69307,-1.97085 -8.937829,-3.0554 -2.24476,-1.08458 -5.019329,-1.97194 -6.165708,-1.97194 -1.14638,0 -3.671577,-1.30835 -5.611549,-2.90743 -1.939971,-1.59909 -5.346039,-3.39719 -7.569039,-3.99579 -2.223,-0.59859 -4.858025,-1.99024 -5.85561,-3.09256 -0.997586,-1.10232 -2.35153,-2.00422 -3.008766,-2.00422 -0.657236,0 -3.058595,-1.35 -5.336354,-3 -2.277758,-1.65 -4.482776,-3.00777 -4.900038,-3.01728 -0.417263,-0.01 -1.818391,-1.1345 -3.113619,-2.5 -1.295228,-1.36549 -2.935138,-2.48272 -3.644245,-2.48272 -0.709106,0 -2.734464,-1.35 -4.500795,-3 -1.766331,-1.65 -3.603547,-3 -4.082702,-3 -0.479156,0 -1.60832,-1.125 -2.509255,-2.5 -0.900935,-1.375 -2.175482,-2.5 -2.832328,-2.5 -0.656845,0 -3.331024,-2.475 -5.942619,-5.5 -2.611596,-3.025 -5.385866,-5.5 -6.165046,-5.5 -0.779179,0 -2.115794,-1.35192 -2.970256,-3.00427 -0.854461,-1.65234 -3.341017,-4.18714 -5.52568,-5.63288 -3.857154,-2.55254 -5.275074,-5.36285 -2.705784,-5.36285 0.69648,0 3.726632,2.25 6.73367,5 3.007038,2.75 6.03719,5 6.733671,5 0.696481,0 1.266329,0.44435 1.266329,0.98746 0,0.96904 4.062014,3.77083 11,7.58726 1.925,1.05891 4.772026,2.93778 6.326725,4.17528 1.554699,1.2375 3.724044,2.25 4.820768,2.25 1.096723,0 4.549696,1.31699 7.673274,2.92665 3.123578,1.60966 9.729233,4.1258 14.679233,5.59142 4.95,1.46563 10.638292,3.2431 12.640648,3.94995 2.002357,0.70685 4.22811,0.92211 4.946118,0.47836 0.718917,-0.44432 2.228287,-0.29461 3.359352,0.3332 1.129635,0.62702 2.690012,1.00898 3.467505,0.84881 0.777493,-0.16017 2.489774,0.28473 3.805069,0.98865 1.87799,1.00507 3.064227,1.02592 5.524963,0.0971 2.569455,-0.96986 3.428765,-0.91558 4.773675,0.30155 2.27314,2.05717 11.77133,1.98555 14.08267,-0.10618 1.50888,-1.36552 2.2576,-1.40965 5.29316,-0.31197 2.89314,1.04617 3.98421,1.03847 6.0038,-0.0424 1.35746,-0.7265 3.25,-1.02087 4.20563,-0.65416 0.95563,0.36671 2.00946,0.22672 2.34185,-0.31109 0.33239,-0.53782 4.07888,-1.40921 8.32554,-1.93644 7.16144,-0.88909 12.76159,-2.63192 23.46912,-7.30385 2.33151,-1.01729 4.70684,-1.84961 5.27852,-1.84961 1.77595,0 12.98529,-6.08859 20.64586,-11.21424 2.28991,-1.53217 4.63005,-2.78576 5.20031,-2.78576 0.57026,0 1.39669,-0.5625 1.83652,-1.25 0.96525,-1.50879 9.87634,-8.75 10.76782,-8.75 0.34734,0 4.17682,-3.7125 8.50995,-8.25 4.33313,-4.5375 8.8107,-9.19736 9.95017,-10.35524 1.13946,-1.15788 2.07175,-2.44502 2.07175,-2.86031 0,-0.41529 2.25,-3.84854 5,-7.62945 2.75,-3.7809 5,-7.18333 5,-7.56095 0,-0.37761 0.59949,-1.397 1.3322,-2.26531 0.73271,-0.86831 2.36647,-4.05374 3.63058,-7.07874 1.26411,-3.025 3.13962,-6.57319 4.1678,-7.88486 1.02818,-1.31167 1.86942,-3.64761 1.86942,-5.19098 0,-1.54337 0.45,-3.08424 1,-3.42416 0.55,-0.33992 1,-1.31097 1,-2.15789 0,-0.84692 0.63025,-2.95786 1.40057,-4.69098 1.48495,-3.34099 3.73318,-12.07417 3.44359,-13.37652 -0.2695,-1.21202 1.33271,-6.64848 2.33679,-7.92896 0.49784,-0.63489 0.62433,-2.27329 0.28108,-3.6409 -0.34817,-1.38724 -0.14615,-2.78194 0.45694,-3.15467 1.45551,-0.89956 1.37416,-7.10784 -0.12458,-9.50771 -0.98424,-1.57601 -0.89243,-2.27656 0.5,-3.81517 2.15613,-2.3825 2.17307,-5.05318 0.0469,-7.40252 -1.36137,-1.50429 -1.45099,-2.28861 -0.5,-4.3758 1.45779,-3.1995 1.50024,-8.11974 0.0776,-8.99896 -0.60309,-0.37273 -0.80511,-1.76743 -0.45694,-3.15467 0.34325,-1.36761 0.1724,-3.03081 -0.37966,-3.696 -0.55207,-0.6652 -1.48265,-4.55965 -2.06797,-8.65435 -0.90489,-6.33026 -2.40888,-11.11675 -7.9952,-25.4449 -3.37229,-8.64946 -5.42676,-12.43059 -12.36116,-22.75 -4.34257,-6.46249 -8.29217,-11.74999 -8.7768,-11.74999 -0.48464,0 -0.88116,-0.88844 -0.88116,-1.97432 0,-1.1935 -1.21762,-2.60397 -3.07878,-3.56642 -1.69333,-0.87565 -3.67832,-3.02471 -4.41109,-4.77568 -1.14358,-2.7326 -6.28734,-7.68358 -7.98276,-7.68358 -0.30449,0 -2.79181,-2.25 -5.52737,-5 -2.73556,-2.75 -5.34547,-5 -5.79979,-5 -0.45431,0 -2.11941,-1.35 -3.70021,-3 -1.5808,-1.65 -3.71045,-3 -4.73255,-3 -1.0221,0 -2.94135,-1.08299 -4.265,-2.40664 -1.32365,-1.32365 -4.11569,-2.94569 -6.20454,-3.60454 -2.08885,-0.65885 -5.47576,-2.27586 -7.52647,-3.59336 -2.05071,-1.3175 -4.32868,-2.39546 -5.06217,-2.39546 -0.73349,0 -3.10563,-0.85155 -5.27144,-1.89234 -2.16581,-1.04079 -7.76283,-2.90437 -12.43783,-4.14128 -4.675,-1.23692 -9.04279,-2.6741 -9.7062,-3.19375 -0.6634,-0.51964 -1.69561,-0.64233 -2.2938,-0.27263 -0.59819,0.3697 -1.6623,0.19523 -2.36469,-0.38771 -1.26264,-1.04789 -2.69042,-1.17964 -11.80487,-1.08927 -2.56826,0.0255 -4.95732,-0.4193 -5.30902,-0.98836 -0.3517,-0.56906 -3.27994,-1.03466 -6.5072,-1.03466 -6.54255,0 -5.55992,0.95763 -11.80024,-11.5 -5.112981,-10.2071 -7.21398,-15.06827 -7.21398,-16.69129 0,-0.85792 -1.067888,-3.97834 -2.373085,-6.93428 -1.305197,-2.95594 -2.687598,-7.39943 -3.072003,-9.87443 -0.384405,-2.475 -1.605476,-7.2 -2.713492,-10.5 -1.108016,-3.3 -2.164819,-8.25 -2.348453,-11 -0.183633,-2.75 -0.437605,-5.225 -0.564382,-5.5 -0.453243,-0.98316 -0.888186,-7.59182 -0.845823,-12.85172 0.03029,-3.76121 -0.482503,-5.93251 -1.725442,-7.30594 -1.449267,-1.60142 -1.550894,-2.30273 -0.562932,-3.88471 1.498103,-2.39884 1.581351,-12.38704 0.125908,-15.10656 -0.84551,-1.57985 -0.706376,-2.42997 0.641447,-3.9193 1.358888,-1.50155 1.603208,-3.04461 1.16079,-7.33123 -0.308199,-2.98616 -0.25935,-5.73033 0.108553,-6.09816 0.367902,-0.36784 0.709594,-3.21885 0.759314,-6.33558 0.09256,-5.8022 1.664607,-13.26568 3.466466,-16.45748 0.555988,-0.98487 0.794737,-2.14041 0.530552,-2.56787 -0.651833,-1.05469 3.823658,-17.60173 6.363091,-23.52599 1.12722,-2.6297 2.049491,-5.36386 2.049491,-6.07592 0,-0.71206 0.675,-1.85485 1.5,-2.53954 0.825,-0.68469 1.5,-1.82526 1.5,-2.5346 0,-0.70934 1.75473,-4.36674 3.8994,-8.12756 2.14466,-3.76081 4.2053,-8.29978 4.57918,-10.0866 0.37388,-1.78681 1.43858,-3.811814 2.366,-4.499998 0.92742,-0.688183 2.25988,-2.376242 2.96103,-3.751242 3.41297,-6.693031 6.95311,-12.283972 9.44439,-14.915534 1.5125,-1.597666 2.75,-3.340999 2.75,-3.874074 0,-0.533075 1.8,-2.824005 4,-5.090955 2.2,-2.26695 4,-4.414964 4,-4.773364 0,-0.358401 4.48512,-4.906555 9.96694,-10.10701 5.48182,-5.200455 10.22983,-10.283685 10.55115,-11.296066 0.32132,-1.01238 1.5737,-2.151251 2.78306,-2.530824 1.20937,-0.379573 3.18613,-1.640091 4.3928,-2.801153 5.46754,-5.260882 12.36174,-10.3769 17.50975,-12.993556 2.03703,-1.035394 4.52897,-2.610394 5.53764,-3.500004 2.92703,-2.58152 8.1066,-6.11708 8.96817,-6.12164 0.43477,-0.002 3.00426,-1.12731 5.70997,-2.5 2.70571,-1.3727 5.44847,-2.49582 6.09501,-2.49582 0.64654,0 1.97007,-0.87796 2.94118,-1.95101 0.9711,-1.07306 4.97834,-2.93195 8.90498,-4.13087 3.92664,-1.19892 7.59774,-2.53967 8.158,-2.97943 1.27793,-1.00309 14.41767,-3.3357 15.07687,-2.6765 0.26757,0.26757 -3.46946,2.42506 -8.30451,4.79443 -4.83506,2.36936 -11.16225,5.80091 -14.06043,7.62566 -2.89818,1.82474 -5.5497,3.31772 -5.89227,3.31772 -0.34257,0 -2.02133,1.33129 -3.73058,2.95843 -6.70641,6.384221 -9.95217,9.04157 -11.04364,9.04157 -1.4324,0 -10.56409,9.193875 -10.56409,10.636035 0,1.026139 -2.74646,4.358893 -9.04157,10.971694 -1.62714,1.709251 -2.95843,3.388013 -2.95843,3.730583 0,0.342569 -1.5021,2.994091 -3.338,5.892271 -1.83589,2.898179 -4.8086,8.409086 -6.60601,12.24646 -1.79741,3.837374 -4.12031,8.06056 -5.162,9.384859 -1.0417,1.324298 -1.89399,3.515198 -1.89399,4.868665 0,1.353467 -0.63275,3.65528 -1.40612,5.115141 -2.38386,4.499953 -4.39623,11.387872 -5.08023,17.388532 -0.35949,3.15383 -1.09043,6.0042 -1.62431,6.33415 -0.53388,0.32996 -0.706,1.43391 -0.38248,2.45322 0.32352,1.01931 0.0146,2.77187 -0.68659,3.89457 -1.01178,1.62012 -1.02482,2.70355 -0.0632,5.25114 1.0026,2.65617 0.95555,3.49277 -0.27273,4.85001 -1.94803,2.15254 -1.98981,14.73225 -0.0574,17.28038 1.05501,1.39116 1.11601,2.45291 0.26975,4.69493 -0.83491,2.21191 -0.77867,3.48565 0.23774,5.38483 0.73223,1.36819 1.0817,3.13813 0.7766,3.93321 -0.3051,0.79509 -0.0911,1.90922 0.47552,2.47586 0.56663,0.56663 1.20402,3.25507 1.41642,5.9743 0.2124,2.71923 1.52695,8.27295 2.92122,12.34161 1.39427,4.06865 3.02197,8.96546 3.61711,10.88181 0.59514,1.91634 1.93182,4.56452 2.97039,5.88485 1.03858,1.32034 1.88832,3.71141 1.88832,5.3135 0,1.75312 0.92737,3.78971 2.3292,5.11514 2.50028,2.364 5.6708,8.15394 5.6708,10.35589 0,0.7405 0.36321,1.34636 0.80713,1.34636 0.44392,0 2.95482,2.925 5.57977,6.5 2.62494,3.575 5.08808,6.5 5.47363,6.5 0.38555,0 1.20673,1.33985 1.82486,2.97745 0.61812,1.6376 2.6648,3.88663 4.54817,4.99785 1.88336,1.11121 4.87924,4.04636 6.65751,6.52254 1.94519,2.70864 4.01505,4.50216 5.19582,4.50216 1.17332,0 2.34487,1.00541 2.91311,2.5 0.52277,1.375 1.38362,2.5 1.91299,2.5 0.52937,0 5.35951,2.98118 10.73364,6.62484 5.37413,3.64366 11.13965,7.08749 12.81226,7.65295 1.67261,0.56546 4.23558,1.85929 5.69548,2.87516 1.4599,1.01588 3.27136,1.84705 4.02546,1.84705 0.7541,0 4.05963,1.33588 7.34563,2.96862 3.286,1.63274 6.84579,2.98274 7.91065,3 2.97878,0.0483 14.91422,3.15694 16.2659,4.23655 0.66111,0.52804 2.08574,0.67958 3.16585,0.33677 1.0801,-0.34281 2.25853,-0.14646 2.61871,0.43634 0.36019,0.58279 2.31056,1.02811 4.33416,0.9896 2.0236,-0.0385 9.89403,0.0757 17.48984,0.2538 7.59582,0.17811 14.04678,0.0886 14.33548,-0.19892 0.28869,-0.28752 2.17393,-0.61406 4.18942,-0.72566 4.72921,-0.26185 8.28341,-0.80303 10.16453,-1.5477 0.825,-0.32658 3.975,-1.1318 7,-1.78936 7.1083,-1.54517 17.2335,-4.85924 18.45,-6.03885 0.5225,-0.50665 1.95844,-0.92119 3.19098,-0.92119 1.23254,0 2.5191,-0.45 2.85902,-1 0.33992,-0.55 1.5615,-1 2.71463,-1 1.15312,0 3.48906,-1.06116 5.19098,-2.35812 1.70191,-1.29697 5.34439,-3.55791 8.09439,-5.0243 6.38437,-3.40437 15.60516,-10.05411 16.73099,-12.06586 0.47762,-0.85345 1.67726,-1.55172 2.66589,-1.55172 0.98862,0 2.22438,-0.9567 2.74614,-2.126 0.52175,-1.16929 2.72802,-3.11641 4.90281,-4.32693 2.36517,-1.31648 4.90338,-3.90497 6.31626,-6.44137 1.29914,-2.33224 3.43664,-4.64898 4.75,-5.14831 1.44861,-0.55077 2.38791,-1.71668 2.38791,-2.96402 0,-1.13088 0.65917,-2.30909 1.46482,-2.61824 0.80564,-0.30916 3.04156,-2.88254 4.9687,-5.71862 6.10691,-8.98727 6.66445,-9.44002 13.27592,-10.78073 5.64368,-1.14445 6.39171,-1.09422 8.21,0.55132 1.5286,1.38336 2.8536,1.65046 5.61637,1.13216 2.22366,-0.41716 4.14566,-0.23858 4.99201,0.46382 0.75691,0.62819 2.31939,0.8428 3.47218,0.47692 1.1537,-0.36617 2.74302,-0.12824 3.53525,0.52926 0.79161,0.65697 2.17705,0.91138 3.07876,0.56536 0.90172,-0.34602 2.14495,-0.23119 2.76274,0.25517 0.61779,0.48637 3.87958,1.12137 7.24844,1.41111 3.36885,0.28975 7.64385,1.20854 9.5,2.04177 1.85614,0.83322 4.49981,1.75407 5.87481,2.04632 8.38631,1.78247 12.00435,2.95133 13.05533,4.21768 0.65426,0.78833 2.2329,1.43333 3.5081,1.43333 1.27519,0 2.59665,0.45 2.93657,1 0.33992,0.55 1.6546,1 2.92151,1 1.26692,0 4.00223,1.35 6.07849,3 2.07626,1.65 4.17594,3 4.66596,3 1.87933,0 16.11522,7.28018 21.59359,11.04288 3.15725,2.16849 8.18848,5.62148 11.18051,7.67331 2.99203,2.05182 6.91453,5.20506 8.71666,7.0072 1.80214,1.80214 3.945,3.27661 4.76191,3.27661 0.81691,0 2.81649,1.9125 4.44351,4.25 3.29461,4.73328 9.9384,11.27661 14.88786,14.66273 1.7875,1.2229 3.25,2.64726 3.25,3.16524 0,0.51797 2.5875,4.19983 5.75,8.1819 5.82082,7.3293 12.25,16.39818 12.25,17.27962 0,0.26456 1.575,2.72179 3.5,5.46051 1.925,2.73872 3.5,5.82223 3.5,6.85224 0,1.03001 1.35,3.5715 3,5.64776 1.65,2.07626 3,4.76839 3,5.98252 0,1.21413 0.87796,3.00204 1.95101,3.97315 1.07306,0.9711 2.94146,4.97834 4.15199,8.90498 1.21054,3.92664 2.8166,8.08662 3.56902,9.24439 0.75242,1.15778 1.54856,3.91959 1.76919,6.13736 0.22064,2.21778 0.83138,4.87051 1.35722,5.89496 1.87744,3.65771 3.61044,9.95673 4.36416,15.86264 0.42115,3.3 1.02493,7.35 1.34174,9 0.31681,1.65 0.56973,4.3181 0.56205,5.92911 -0.008,1.61101 0.48843,3.53447 1.10248,4.27436 1.62878,1.96256 2.28741,36.98691 0.8706,46.29653 -0.62777,4.125 -1.26765,8.625 -1.42196,10 -0.15431,1.375 -0.59298,3.625 -0.97483,5 -0.38185,1.375 -0.85209,4.3 -1.04499,6.5 -0.54282,6.19088 -1.62247,11.49618 -3.56129,17.5 -0.97687,3.025 -2.28676,7.35912 -2.91086,9.63137 -0.6241,2.27226 -1.87319,4.74424 -2.77575,5.4933 -1.5025,1.24697 -1.57796,0.85602 -0.8939,-4.63137 0.41092,-3.29632 1.16669,-6.25428 1.67949,-6.57325 0.5128,-0.31897 0.63233,-1.36183 0.26562,-2.31746 -0.36671,-0.95563 -0.0676,-2.85693 0.66459,-4.22512 1.037,-1.93766 1.0795,-3.15477 0.19222,-5.50542 -1.16181,-3.07797 -0.75774,-5.87205 0.84918,-5.87205 1.62766,0 1.03363,-12.18714 -0.68669,-14.08807 -1.22106,-1.34925 -1.33458,-2.20359 -0.5,-3.763 1.50637,-2.81469 1.34576,-5.68323 -0.39929,-7.13149 -1.04012,-0.86323 -1.20237,-1.7443 -0.5468,-2.96925 0.61361,-1.14653 0.54124,-2.13274 -0.21175,-2.88573 -0.62916,-0.62916 -1.28298,-3.7356 -1.45292,-6.9032 -0.16995,-3.16759 -0.69764,-6.65926 -1.17265,-7.75926 -1.8601,-4.30752 -4.14653,-12.10642 -4.14184,-14.12756 0.003,-1.17015 -0.67005,-2.68775 -1.49505,-3.37244 -0.825,-0.68469 -1.5,-1.81027 -1.5,-2.50129 0,-0.69102 -1.60104,-3.89842 -3.55787,-7.12756 -1.95683,-3.22913 -3.81495,-7.11801 -4.12916,-8.64196 -0.31421,-1.52394 -0.92424,-2.98894 -1.35561,-3.25554 -0.43137,-0.26661 -1.73451,-2.44758 -2.89586,-4.84661 -1.16135,-2.39903 -4.12529,-6.49374 -6.58652,-9.09936 -2.46124,-2.60561 -4.47498,-5.06589 -4.47498,-5.46728 0,-0.40139 -1.35,-1.93266 -3,-3.40282 -1.65,-1.47015 -3,-3.25321 -3,-3.96235 0,-1.78124 -7.2391,-8.69523 -9.1041,-8.69523 -0.83588,0 -2.51788,-1.35 -3.73778,-3 -1.2199,-1.65 -2.87952,-3 -3.68806,-3 -0.80853,0 -1.47006,-0.40099 -1.47006,-0.8911 0,-0.95445 -14.51088,-11.1089 -15.8748,-11.1089 -0.44837,0 -1.62971,-0.9 -2.6252,-2 -0.99549,-1.1 -2.36013,-2 -3.03254,-2 -0.67242,0 -1.73305,-0.61509 -2.35697,-1.36687 -0.62392,-0.75178 -3.5765,-2.135 -6.56128,-3.07383 -2.98478,-0.93883 -5.9595,-2.34874 -6.61049,-3.13313 -0.65098,-0.78439 -2.23778,-1.42617 -3.52622,-1.42617 -1.28843,0 -4.27083,-0.6204 -6.62755,-1.37867 -2.35672,-0.75827 -6.75995,-2.1667 -9.78495,-3.12985 -3.025,-0.96314 -8.08483,-1.82507 -11.24407,-1.9154 -3.15924,-0.0903 -6.28674,-0.70689 -6.95,-1.37015 -1.53071,-1.53071 -4.29547,-1.54167 -6.7214,-0.0267 -1.51139,0.94388 -2.39995,0.84407 -4.45125,-0.5 -3.28277,-2.15095 -8.98379,-2.15095 -12.26656,0 -2.0513,1.34407 -2.93986,1.44388 -4.45125,0.5 -2.59128,-1.61828 -5.42258,-1.47811 -6.93421,0.3433 -0.71586,0.86256 -2.05302,1.27203 -3.08467,0.9446 -1.00157,-0.31789 -2.64979,-0.13445 -3.6627,0.40765 -1.04669,0.56017 -2.4355,0.6186 -3.2174,0.13536 -0.82845,-0.51201 -2.91203,-0.23555 -5.2376,0.69496 -2.12403,0.84986 -4.123,1.28407 -4.44217,0.9649 -0.31917,-0.31917 -2.76054,0.5245 -5.42527,1.87482 -2.66473,1.35032 -6.02799,2.45513 -7.47391,2.45513 -2.32391,0 -5.62051,1.31807 -10.43754,4.1732 -0.825,0.48899 -4.78711,2.47506 -8.80469,4.41348 -9.36314,4.51759 -20.33255,11.61723 -24.70478,15.98946 -1.88313,1.88317 -3.91784,3.42391 -4.52159,3.42391 -1.6403,0 -15.96894,14.83455 -15.96894,16.53276 0,0.80698 -0.40234,1.46724 -0.89408,1.46724 -1.07817,0 -11.13654,13.11755 -13.7463,17.92713 -6.42395,11.83884 -8.34758,15.71639 -8.35324,16.83802 -0.004,0.69583 -1.35638,3.65722 -3.00638,6.58086 -1.65,2.92363 -3,6.50016 -3,7.94783 0,1.44766 -0.9662,5.01128 -2.14711,7.91914 -2.95272,7.27076 -4.82825,17.38613 -3.85369,20.78425 0.58126,2.02673 0.36386,3.21113 -0.80372,4.37871 -1.39548,1.39549 -1.44457,2.35545 -0.3832,7.49409 0.92172,4.4625 0.94479,7.16429 0.095,11.12665 -0.83345,3.88627 -0.83053,5.78257 0.0113,7.3682 0.6235,1.17431 1.11639,3.71012 1.09531,5.63512 -0.076,6.94105 0.0962,8.42777 1.11894,9.66011 0.57161,0.68875 0.78278,1.66733 0.46926,2.17462 -0.31352,0.50729 0.0963,2.25809 0.91075,3.89066 0.81444,1.63257 1.90808,5.17473 2.43031,7.87146 0.99347,5.1301 5.57425,17.21802 7.1445,18.85315 0.50176,0.5225 0.9123,1.92312 0.9123,3.1125 0,1.18937 1.3385,3.84678 2.97445,5.90535 5.51493,6.93963 4.8856,11.25539 -3.16078,21.67605 -1.54752,2.00415 -2.81367,4.11133 -2.81367,4.68262 0,0.57129 -0.85526,1.31015 -1.90059,1.64193 -1.04532,0.33177 -2.17358,1.59959 -2.50724,2.81738 -0.33366,1.2178 -2.02716,3.11417 -3.76333,4.21417 -1.73618,1.1 -3.64542,2.89807 -4.24276,3.99571 -2.46261,4.52523 -8.8971,11.50429 -10.60657,11.50429 -1.00886,0 -2.75929,1.2375 -3.88984,2.75 -1.13054,1.5125 -2.47332,3.12739 -2.98394,3.58864 -0.51062,0.46125 -2.11375,1.92375 -3.5625,3.25 -1.44875,1.32625 -2.92217,2.41136 -3.27428,2.41136 -0.3521,0 -2.69415,1.70917 -5.20454,3.79816 -2.5104,2.089 -6.81436,5.07478 -9.56436,6.63509 -2.75,1.5603 -6.46569,3.92646 -8.25709,5.25813 -1.7914,1.33167 -5.62802,3.23694 -8.52581,4.23392 -2.89778,0.99699 -7.82298,3.44665 -10.94487,5.4437 -3.12188,1.99705 -6.31839,3.631 -7.10335,3.631 -0.78496,0 -3.84407,1.10379 -6.79804,2.45287 -2.95396,1.34908 -7.92633,3.11612 -11.04971,3.92675 -3.12338,0.81063 -6.54894,1.93953 -7.61236,2.50865 -1.06341,0.56912 -4.53486,1.27547 -7.71434,1.56966 -3.17947,0.29419 -6.38568,1.03685 -7.12491,1.65036 -0.73923,0.6135 -1.96995,0.87528 -2.73493,0.58173 -0.76498,-0.29355 -1.84885,-0.0758 -2.40858,0.48397 -0.55974,0.55974 -3.46355,1.12603 -6.45293,1.25844 -2.98937,0.1324 -5.99336,0.58568 -6.67552,1.00728 -1.37312,0.84863 -38.69271,1.58695 -46.59756,0.92187 z m -149.83333,-79.02825 c -0.36667,-0.36666 -0.66667,-1.13166 -0.66667,-1.7 0,-0.6266 0.46577,-0.56756 1.18333,0.15 0.65084,0.65084 0.95084,1.41584 0.66667,1.7 -0.28417,0.28417 -0.81667,0.21667 -1.18333,-0.15 z"
         id="path2572" />
    </g>
  </g>
</svg>
