<?xml version="1.0" encoding="UTF-8" standalone="no"?>
<!-- Created with Inkscape (http://www.inkscape.org/) -->

<svg
   version="1.1"
   id="svg2"
   width="300"
   height="300"
   viewBox="0 0 300 300"
   sodipodi:docname="spotify.svg"
   inkscape:version="1.1.2 (0a00cf5339, 2022-02-04)"
   inkscape:export-filename="/home/tux/.icons/savetier/xaron/telegram.png"
   inkscape:export-xdpi="127"
   inkscape:export-ydpi="127"
   xmlns:inkscape="http://www.inkscape.org/namespaces/inkscape"
   xmlns:sodipodi="http://sodipodi.sourceforge.net/DTD/sodipodi-0.dtd"
   xmlns="http://www.w3.org/2000/svg"
   xmlns:svg="http://www.w3.org/2000/svg">
  <defs
     id="defs6">
    <style
       id="style3231">.cls-1{fill:#2d3e50;}.cls-2{fill:#2e79bd;}</style>
    <style
       id="style5157">.cls-1{fill:#009eeb;}</style>
  </defs>
  <sodipodi:namedview
     id="namedview4"
     pagecolor="#ffffff"
     bordercolor="#666666"
     borderopacity="1.0"
     inkscape:pageshadow="2"
     inkscape:pageopacity="0.0"
     inkscape:pagecheckerboard="0"
     showgrid="false"
     inkscape:zoom="0.81887858"
     inkscape:cx="144.7101"
     inkscape:cy="93.420444"
     inkscape:window-width="1920"
     inkscape:window-height="987"
     inkscape:window-x="0"
     inkscape:window-y="0"
     inkscape:window-maximized="1"
     inkscape:current-layer="g8"
     showguides="true"
     inkscape:guide-bbox="true" />
  <g
     inkscape:groupmode="layer"
     inkscape:label="Image"
     id="g8">
    <circle
       style="fill:#000000;fill-opacity:1;stroke:#ffffff;stroke-width:9.877;stroke-miterlimit:4;stroke-dasharray:none;stroke-opacity:1"
       id="path851"
       cx="149.86972"
       cy="150.41068"
       r="142.94501" />
    <title
       id="title7007" />
    <g
       id="g7220"
       transform="matrix(0.94519605,0,0,0.94519605,7.6801282,8.5568192)">
      <path
         style="fill:#fefefe;stroke-width:0.2294"
         d="m 192.23832,241.72062 c -0.23523,-0.13944 -0.88912,-0.38911 -1.45309,-0.55482 -0.77835,-0.22869 -1.40838,-0.68771 -2.61495,-1.9052 -0.87425,-0.88215 -1.68282,-1.61702 -1.79683,-1.63303 -0.11401,-0.016 -0.37241,-0.31293 -0.57423,-0.65981 -0.20182,-0.34687 -0.51607,-0.65163 -0.69834,-0.67723 -0.18227,-0.0256 -0.36976,-0.21275 -0.41664,-0.41588 -0.0469,-0.20313 -0.4294,-0.61063 -0.85004,-0.90555 -0.42064,-0.29493 -0.92929,-0.77892 -1.13033,-1.07554 -0.20104,-0.29662 -0.4881,-0.55652 -0.6379,-0.57757 -0.14981,-0.021 -0.49717,-0.30439 -0.77192,-0.62966 -0.27475,-0.32527 -0.80834,-0.84326 -1.18575,-1.1511 -0.7616,-0.6212 -1.62402,-1.35377 -2.69451,-2.2888 -0.39045,-0.34105 -0.82179,-0.6362 -0.95854,-0.65588 -0.13675,-0.0197 -0.40494,-0.26624 -0.59598,-0.5479 -0.19104,-0.28165 -0.46946,-0.52925 -0.61871,-0.55022 -0.14924,-0.021 -0.67838,-0.40614 -1.17585,-0.85593 -0.49747,-0.4498 -1.07529,-0.8437 -1.28403,-0.87534 -0.20875,-0.0316 -0.6349,-0.33736 -0.947,-0.67937 -0.31211,-0.34201 -0.88669,-0.78324 -1.27685,-0.98052 -0.39016,-0.19727 -0.84252,-0.53534 -1.00524,-0.75125 -0.16272,-0.2159 -0.70599,-0.56722 -1.20727,-0.7807 -0.50128,-0.21348 -1.12348,-0.60917 -1.38267,-0.87931 -0.25919,-0.27014 -0.78916,-0.60496 -1.17772,-0.74405 -0.38855,-0.13909 -1.03126,-0.53801 -1.42824,-0.8865 -0.39697,-0.34849 -1.11567,-0.76102 -1.59711,-0.91674 -0.48144,-0.15571 -0.96374,-0.44812 -1.07178,-0.64979 -0.10804,-0.20168 -0.8623,-0.62024 -1.67614,-0.93014 -0.81383,-0.30989 -1.46792,-0.64733 -1.45351,-0.74985 0.0325,-0.23165 -1.1679,-0.86278 -1.8136,-0.95349 -0.26347,-0.037 -0.90433,-0.37322 -1.42413,-0.74713 -0.5198,-0.37391 -1.49731,-0.83017 -2.17225,-1.0139 -0.67494,-0.18374 -1.54728,-0.58783 -1.93854,-0.89798 -0.41698,-0.33055 -1.4328,-0.75053 -2.45465,-1.01486 -0.95879,-0.24802 -1.96724,-0.64724 -2.241,-0.88715 -0.2748,-0.24083 -1.43671,-0.67659 -2.59412,-0.97289 -1.15302,-0.29517 -2.66132,-0.81795 -3.35179,-1.16173 -0.78982,-0.39326 -2.39879,-0.86524 -4.33844,-1.27267 -1.70825,-0.35881 -3.41683,-0.84524 -3.83157,-1.09084 -0.93592,-0.55423 -2.43146,-0.9195 -8.3988,-2.05134 -5.80308,-1.10068 -9.14231,-1.54399 -16.44666,-2.18342 -4.21423,-0.36892 -5.88766,-0.43067 -6.59386,-0.2433 -0.52051,0.13809 -2.12174,0.18255 -3.558296,0.0988 -1.599092,-0.0932 -2.914243,-0.0461 -3.391566,0.12167 -0.428803,0.15069 -1.805836,0.2684 -3.060067,0.2616 -1.340714,-0.007 -2.459792,0.10929 -2.71571,0.28287 -0.23941,0.16239 -1.197602,0.29625 -2.129318,0.29748 -0.931716,0.001 -1.990243,0.15407 -2.352281,0.33966 -0.36204,0.18559 -1.250795,0.32688 -1.975015,0.31397 -0.741629,-0.0132 -1.589292,0.13511 -1.940718,0.33958 -0.343179,0.19967 -1.165127,0.38895 -1.826556,0.42062 -0.661428,0.0317 -1.476191,0.21677 -1.810586,0.41133 -0.334395,0.19456 -1.071578,0.35805 -1.638185,0.36331 -0.566604,0.005 -1.326163,0.18176 -1.687905,0.39223 -0.746818,0.43452 -2.830797,0.47687 -5.467239,0.11113 -2.132553,-0.29584 -4.804515,-1.06013 -4.868539,-1.39259 -0.0266,-0.13811 -0.45639,-0.49822 -0.955093,-0.80024 -0.498704,-0.30201 -1.149839,-0.84468 -1.446968,-1.20591 -0.297128,-0.36125 -0.621218,-0.75561 -0.7202,-0.87636 -0.523382,-0.63851 -1.487474,-2.45955 -1.448607,-2.73622 0.02467,-0.1756 -0.131906,-0.5538 -0.347943,-0.84046 -0.271374,-0.36008 -0.393882,-1.07548 -0.396309,-2.31429 -0.0046,-2.32523 0.85107,-6.89772 1.436105,-7.67458 0.237552,-0.31544 0.691117,-0.95506 1.007921,-1.42138 0.797285,-1.17355 3.232965,-3.03459 4.346019,-3.32068 0.508184,-0.13062 1.058476,-0.37149 1.222872,-0.53527 0.164395,-0.16377 0.857313,-0.32451 1.539818,-0.35719 0.682505,-0.0327 1.438982,-0.19377 1.681061,-0.35796 0.242078,-0.1642 0.991537,-0.36411 1.665463,-0.44424 0.673926,-0.0801 1.414779,-0.27037 1.64634,-0.42275 0.231561,-0.15238 0.984952,-0.31515 1.674202,-0.3617 0.689249,-0.0465 1.52294,-0.24159 1.852647,-0.43342 0.363031,-0.21123 1.188462,-0.32941 2.092829,-0.29966 0.909024,0.0299 1.729541,-0.0883 2.096946,-0.30205 0.331971,-0.19315 1.322698,-0.36473 2.201613,-0.3813 0.878918,-0.0166 1.789379,-0.1599 2.023253,-0.31853 0.239541,-0.16247 1.399915,-0.28763 2.657345,-0.28663 1.227669,9.8e-4 2.49173,-0.12059 2.809024,-0.27014 0.317297,-0.14956 1.552274,-0.24465 2.744395,-0.21132 1.192121,0.0333 2.756984,-0.0543 3.477474,-0.19486 0.78828,-0.15374 2.332084,-0.17385 3.876461,-0.0505 1.427323,0.11399 3.331443,0.10028 4.289913,-0.0309 1.53795,-0.21047 2.6182,-0.12707 10.03678,0.77486 11.31769,1.37596 20.48022,2.89443 21.59415,3.57868 0.55131,0.33866 1.96845,0.74855 4.22955,1.22334 2.13257,0.4478 3.89505,0.94952 4.72702,1.34562 0.73832,0.35152 2.61439,0.91352 4.23075,1.26739 2.07722,0.45475 3.13069,0.79447 3.6997,1.19305 0.45267,0.31708 1.53979,0.72888 2.52239,0.95547 0.95462,0.22015 2.0772,0.64142 2.5103,0.94205 0.4309,0.29911 1.60704,0.76673 2.61365,1.03915 1.0347,0.28003 1.97589,0.66982 2.16537,0.89677 0.18434,0.2208 1.02627,0.63651 1.87096,0.92381 0.84468,0.2873 1.77527,0.73224 2.06796,0.98875 0.2927,0.25651 1.15875,0.65969 1.92457,0.89595 0.76582,0.23626 1.6124,0.65886 1.88129,0.93912 0.26889,0.28025 0.93335,0.64141 1.47657,0.80258 0.54323,0.16117 1.20153,0.51592 1.46289,0.78832 0.26136,0.27241 0.95741,0.67681 1.54678,0.89867 0.58936,0.22186 1.22278,0.58449 1.40759,0.80584 0.18481,0.22136 0.75395,0.56006 1.26477,0.75267 0.51081,0.19261 1.19359,0.60109 1.51728,0.90772 0.32369,0.30663 0.95447,0.71393 1.40174,0.90511 0.44727,0.19117 0.99188,0.55993 1.21024,0.81945 0.21836,0.25953 0.74452,0.59532 1.16926,0.7462 0.42473,0.15089 0.95089,0.48676 1.16924,0.74638 0.21834,0.25962 0.82364,0.66589 1.34511,0.90281 0.52147,0.23692 0.97951,0.56674 1.01787,0.73294 0.0384,0.1662 0.42692,0.47675 0.86346,0.6901 0.43655,0.21336 1.04887,0.66927 1.36071,1.01315 0.31184,0.34387 0.69262,0.64287 0.84617,0.66444 0.15356,0.0216 0.58319,0.33708 0.95473,0.70112 0.37155,0.36405 0.96054,0.76781 1.30888,0.89725 0.34833,0.12943 0.61931,0.33519 0.60216,0.45723 -0.0171,0.12204 0.42451,0.50294 0.98144,0.84644 0.55694,0.34351 1.07522,0.77631 1.15173,0.96178 0.0765,0.18547 0.47061,0.53384 0.87577,0.77415 0.40516,0.24031 0.72312,0.53327 0.70658,0.65102 -0.0165,0.11776 0.3317,0.42145 0.77389,0.67488 0.44218,0.25342 0.96844,0.70353 1.16948,1.00023 0.20103,0.29669 0.48459,0.55618 0.63014,0.57662 0.14555,0.0205 0.56505,0.39212 0.93223,0.82592 0.36718,0.43381 0.81262,0.80912 0.98988,0.83402 0.17725,0.0249 0.5638,0.36588 0.859,0.75773 0.8384,1.1129 3.41475,3.77462 3.69551,3.81796 0.44886,0.0693 3.58998,4.22605 3.91875,5.18582 0.16048,0.46848 0.39633,1.10761 0.52411,1.4203 0.12778,0.3127 0.20133,1.6782 0.16343,3.03445 -0.0585,2.09451 -0.17419,2.81651 -0.76797,4.79361 -0.49547,1.64979 -0.84855,2.44784 -1.21237,2.74027 -0.28232,0.22692 -0.5303,0.53348 -0.55105,0.68125 -0.0208,0.14777 -0.45118,0.61444 -0.95648,1.03704 -0.5053,0.42261 -0.93494,0.88377 -0.95475,1.02481 -0.0198,0.14103 -0.1858,0.23538 -0.36887,0.20967 -0.18307,-0.0257 -0.75003,0.22713 -1.25991,0.5619 -0.61243,0.40208 -1.41722,0.65482 -2.3713,0.74469 -1.61917,0.15252 -7.5927,-0.47375 -8.25315,-0.86527 z m 21.11763,-47.26069 c -0.17773,-0.0952 -0.46432,-0.33518 -0.63687,-0.5332 -0.17254,-0.19802 -0.78249,-0.5761 -1.35542,-0.84018 -0.57294,-0.26408 -1.15988,-0.71197 -1.30433,-0.99531 -0.14444,-0.28334 -0.37111,-0.5304 -0.50371,-0.54903 -0.21812,-0.0306 -0.72423,-0.53401 -2.20028,-2.18835 -0.2752,-0.30843 -0.73476,-0.71205 -1.02125,-0.89692 -0.2865,-0.18488 -0.71409,-0.57177 -0.95022,-0.85976 -1.13837,-1.38841 -3.04666,-3.27122 -3.56941,-3.52174 -0.2321,-0.11123 -0.63485,-0.48466 -0.895,-0.82985 -0.26014,-0.34518 -0.61513,-0.64757 -0.78886,-0.67198 -0.17373,-0.0244 -0.46503,-0.26429 -0.64734,-0.53308 -0.18231,-0.26879 -0.63778,-0.66632 -1.01215,-0.88341 -0.37438,-0.21709 -0.78403,-0.58891 -0.91033,-0.82628 -0.12632,-0.23737 -0.55877,-0.59396 -0.96102,-0.79243 -0.40225,-0.19846 -0.88473,-0.58695 -1.07217,-0.86331 -0.18745,-0.27635 -0.51536,-0.52698 -0.7287,-0.55695 -0.21334,-0.03 -0.73072,-0.41538 -1.14972,-0.85647 -0.41901,-0.4411 -0.93638,-0.82651 -1.14972,-0.85648 -0.21334,-0.03 -0.54126,-0.2806 -0.7287,-0.55695 -0.18745,-0.27636 -0.69512,-0.67325 -1.12818,-0.88199 -0.43305,-0.20873 -0.96625,-0.5903 -1.18487,-0.84793 -0.21863,-0.25762 -0.76473,-0.62537 -1.21356,-0.81723 -0.44883,-0.19185 -1.05707,-0.60002 -1.35164,-0.90704 -0.29458,-0.30703 -0.75752,-0.5894 -1.02875,-0.62751 -0.27123,-0.0381 -0.79715,-0.36713 -1.16869,-0.73118 -0.37155,-0.36404 -0.97119,-0.77176 -1.33253,-0.90603 -0.36135,-0.13427 -0.96484,-0.52285 -1.34109,-0.86352 -0.37625,-0.34066 -1.10365,-0.74832 -1.61644,-0.90589 -0.51279,-0.15758 -1.1501,-0.51346 -1.41625,-0.79086 -0.26614,-0.27739 -0.90523,-0.63701 -1.42019,-0.79916 -0.51496,-0.16215 -1.1835,-0.52761 -1.48566,-0.81214 -0.30215,-0.28453 -1.12848,-0.70977 -1.83629,-0.94498 -0.70781,-0.2352 -1.43161,-0.59899 -1.60845,-0.80841 -0.17684,-0.20942 -0.95719,-0.59092 -1.73412,-0.84779 -0.77694,-0.25686 -1.6423,-0.68706 -1.92305,-0.956 -0.29543,-0.28301 -1.23859,-0.68671 -2.23914,-0.95841 -0.95079,-0.2582 -1.94709,-0.66082 -2.21399,-0.89473 -0.2669,-0.23391 -1.38001,-0.66055 -2.47356,-0.9481 -1.09355,-0.28754 -2.38337,-0.78124 -2.86628,-1.0971 -0.61124,-0.3998 -1.73953,-0.76311 -3.71363,-1.19575 -1.74827,-0.38316 -3.08147,-0.79578 -3.47671,-1.07606 -0.42418,-0.30079 -1.79797,-0.69965 -4.06061,-1.17893 -2.19745,-0.46548 -3.92417,-0.96277 -4.83156,-1.39148 -1.29253,-0.61068 -2.19887,-0.78729 -10.71031,-2.0871 -9.6899,-1.47976 -15.31536,-2.0316 -17.2561,-1.69276 -0.58544,0.10222 -2.43556,0.0983 -4.1114,-0.009 -1.95013,-0.12451 -3.32975,-0.0982 -3.83255,0.0732 -0.43207,0.14724 -1.71635,0.23551 -2.85395,0.19616 -1.15885,-0.0401 -2.44738,0.0629 -2.93029,0.23423 -0.47406,0.16818 -1.587149,0.27939 -2.473531,0.24713 -0.920745,-0.0335 -1.975827,0.0895 -2.461252,0.28701 -0.467309,0.19011 -1.481178,0.35777 -2.253042,0.37257 -0.771867,0.0148 -1.743657,0.16743 -2.159538,0.33918 -0.41588,0.17175 -1.341123,0.30334 -2.056095,0.29241 -0.714973,-0.0109 -1.574108,0.13966 -1.909189,0.33462 -0.335084,0.19496 -1.12111,0.39597 -1.746722,0.44669 -0.625615,0.0507 -1.473894,0.23689 -1.885065,0.41371 -0.411173,0.17683 -1.203078,0.33169 -1.75979,0.34413 -0.556712,0.0124 -1.226524,0.18414 -1.488472,0.38156 -0.586564,0.44206 -4.421386,0.64317 -6.522795,0.34208 -2.068644,-0.2964 -5.322988,-1.44486 -5.829492,-2.05724 -0.227367,-0.27489 -0.658126,-0.61282 -0.957242,-0.75097 -0.670651,-0.30973 -3.771247,-4.48564 -3.701134,-4.98473 0.02799,-0.1992 -0.15266,-0.76644 -0.401433,-1.26052 -1.009077,-2.00413 0.132448,-10.08207 1.612567,-11.41124 0.358152,-0.32163 0.676677,-0.76623 0.707831,-0.988 0.09801,-0.69765 4.372517,-4.03538 5.046674,-3.94067 0.165572,0.0233 0.718383,-0.16275 1.228471,-0.41335 0.510086,-0.25061 1.437853,-0.4923 2.061703,-0.53711 0.62385,-0.0448 1.275532,-0.21005 1.448181,-0.36722 0.17265,-0.15717 0.751599,-0.33414 1.286553,-0.39328 1.379215,-0.15245 2.286376,-0.38969 2.316747,-0.60588 0.01435,-0.10213 0.521272,-0.18589 1.126501,-0.18614 0.605228,-2.5e-4 1.542453,-0.17698 2.082718,-0.39274 0.540269,-0.21575 1.5816,-0.38313 2.314068,-0.37194 0.732472,0.0112 1.585428,-0.12598 1.89546,-0.30481 0.310033,-0.17883 1.296655,-0.3483 2.192493,-0.3766 0.895838,-0.0283 1.819285,-0.18055 2.052105,-0.33835 0.232817,-0.15781 1.18931,-0.28807 2.125541,-0.28947 0.936227,-0.001 2.051631,-0.14162 2.478675,-0.31159 0.432597,-0.17218 1.731656,-0.2912 2.933418,-0.26877 1.186337,0.0221 2.414166,-0.0808 2.728506,-0.22887 0.32465,-0.15289 1.73715,-0.23562 3.27005,-0.19155 1.48418,0.0427 3.1273,-0.0369 3.65137,-0.17687 0.62923,-0.16805 2.12398,-0.16519 4.40107,0.008 1.89652,0.14458 4.03259,0.18166 4.74682,0.0824 3.22496,-0.44824 28.34244,3.08278 31.34732,4.4068 0.65946,0.29058 2.74168,0.84595 4.62716,1.23414 2.20466,0.45392 3.71603,0.87929 4.23481,1.19188 0.47856,0.28835 2.04102,0.75431 3.84134,1.14557 1.76246,0.38304 3.59717,0.92753 4.37645,1.29881 0.73798,0.35161 2.22908,0.86807 3.31356,1.14769 1.08448,0.27962 2.35335,0.76037 2.81972,1.06835 0.46638,0.30797 1.60517,0.73512 2.53066,0.94921 0.92549,0.2141 2.0408,0.63713 2.47845,0.94007 0.43766,0.30294 1.50377,0.76479 2.36915,1.02633 0.86538,0.26154 1.86918,0.70788 2.23069,0.99187 0.36149,0.28399 1.15857,0.65808 1.77128,0.83131 0.61271,0.17324 1.41563,0.5486 1.78426,0.83414 0.36863,0.28554 1.20542,0.69792 1.85953,0.91641 0.65411,0.21848 1.51,0.6499 1.90198,0.9587 0.39198,0.3088 1.11202,0.68706 1.60009,0.84058 0.48806,0.15353 1.13463,0.51062 1.43681,0.79355 0.30218,0.28292 1.01504,0.68969 1.58413,0.90392 0.5691,0.21423 1.2523,0.61628 1.51824,0.89346 0.26593,0.27717 0.90508,0.63494 1.42033,0.79504 0.51525,0.1601 1.11534,0.50434 1.33355,0.76497 0.2182,0.26063 0.8265,0.65512 1.35178,0.87664 0.52527,0.22152 1.13003,0.61862 1.3439,0.88245 0.21388,0.26382 0.71088,0.58819 1.10445,0.72081 0.39358,0.13262 1.02462,0.54391 1.40231,0.91398 0.37769,0.37007 0.84758,0.69545 1.04419,0.72307 0.1966,0.0276 0.69766,0.35862 1.11346,0.73555 0.41579,0.37694 0.88893,0.70591 1.05142,0.73106 0.16249,0.0251 0.70246,0.41373 1.19993,0.86353 0.49747,0.44979 1.07772,0.84214 1.28944,0.87188 0.21172,0.0298 0.53831,0.28019 0.72575,0.55654 0.18745,0.27636 0.6947,0.67632 1.12722,0.88881 0.43253,0.21249 0.88894,0.58501 1.01425,0.82782 0.12531,0.24281 0.52937,0.55352 0.89791,0.69047 0.36855,0.13695 0.90137,0.53278 1.18406,0.87964 0.28268,0.34686 0.62625,0.65066 0.76347,0.67512 0.13722,0.0245 0.56092,0.3967 0.94156,0.82723 0.38064,0.43052 0.84567,0.80434 1.03341,0.83072 0.18774,0.0264 0.52049,0.28295 0.73944,0.57018 0.55036,0.72198 2.49246,2.43203 2.81323,2.47709 0.14487,0.0204 0.45428,0.29837 0.68759,0.61781 0.39716,0.54381 0.93691,1.02752 2.42898,2.17686 0.33866,0.26086 0.73457,0.70739 0.8798,0.99229 0.14525,0.2849 0.37203,0.53317 0.50398,0.55171 0.13195,0.0185 0.52396,0.33962 0.87115,0.71352 0.34719,0.37389 1.04212,1.09427 1.5443,1.60083 0.50218,0.50655 1.1632,1.19342 1.46894,1.52636 0.92704,1.00953 3.09857,3.88716 3.07264,4.07175 -0.0134,0.0952 0.21732,0.66566 0.51263,1.26781 0.29532,0.60215 0.51224,1.29983 0.48204,1.55041 -0.0302,0.25058 0.0975,1.20671 0.28385,2.12475 0.45135,2.22402 0.185,4.12 -0.86167,6.13358 -0.43204,0.83117 -0.81827,1.7151 -0.85829,1.9643 -0.04,0.2492 -0.44076,0.86011 -0.89056,1.35758 -0.44979,0.49747 -0.8282,0.9785 -0.84091,1.06895 -0.0447,0.31797 -3.01822,2.46917 -3.6745,2.65829 -0.36516,0.10523 -0.67748,0.28782 -0.69404,0.40575 -0.0166,0.11794 -0.43091,0.28465 -0.92075,0.37049 -0.48984,0.0858 -1.38377,0.33319 -1.98651,0.54968 -1.02534,0.36827 -1.32983,0.35957 -4.72989,-0.13519 -1.9987,-0.29084 -3.77942,-0.60673 -3.95716,-0.70197 z m 27.31516,-44.38077 c -0.29929,-0.13689 -0.87888,-0.46347 -1.28797,-0.72574 -0.40908,-0.26226 -1.1426,-0.60616 -1.63003,-0.76422 -0.48743,-0.15805 -0.97073,-0.42797 -1.074,-0.59981 -0.10327,-0.17185 -0.51117,-0.54165 -0.90645,-0.82177 -0.39527,-0.28012 -0.94793,-0.79075 -1.22813,-1.13474 -0.2802,-0.34399 -0.60197,-0.63843 -0.71504,-0.65431 -0.11307,-0.0159 -0.39122,-0.26962 -0.61812,-0.56385 -0.40598,-0.52646 -1.31514,-1.46601 -2.96805,-3.06726 -0.46148,-0.44706 -1.03916,-1.07549 -1.28372,-1.39652 -0.24457,-0.32103 -0.54556,-0.59786 -0.66888,-0.61519 -0.12333,-0.0173 -0.50063,-0.357 -0.83846,-0.75483 -0.95405,-1.1235 -1.74095,-1.87562 -2.40221,-2.29601 -0.33324,-0.21186 -0.79292,-0.61996 -1.02151,-0.90689 -0.22859,-0.28693 -0.73545,-0.77511 -1.12636,-1.08484 -0.83799,-0.66398 -1.7946,-1.46954 -2.61171,-2.19931 -1.68239,-1.50257 -2.07356,-1.81786 -2.2937,-1.84879 -0.13229,-0.0186 -0.58334,-0.39468 -1.00234,-0.83577 -0.41901,-0.44109 -0.93638,-0.8265 -1.14973,-0.85647 -0.21334,-0.03 -0.54125,-0.2806 -0.72869,-0.55696 -0.18745,-0.27635 -0.69513,-0.67324 -1.12818,-0.88198 -0.43306,-0.20873 -0.9672,-0.58356 -1.18698,-0.83294 -0.21978,-0.24938 -0.73336,-0.64301 -1.14127,-0.87473 -0.40792,-0.23172 -0.8899,-0.61801 -1.07108,-0.85842 -0.18119,-0.2404 -0.74613,-0.56918 -1.25543,-0.7306 -0.50931,-0.16143 -0.96064,-0.44353 -1.00296,-0.62689 -0.0423,-0.18336 -0.56913,-0.55806 -1.17068,-0.83266 -0.60155,-0.27461 -1.18868,-0.67652 -1.30472,-0.89313 -0.11604,-0.21662 -0.65373,-0.56077 -1.19487,-0.76479 -0.54114,-0.20401 -1.16204,-0.58684 -1.37979,-0.85072 -0.21775,-0.26389 -0.74342,-0.60323 -1.16815,-0.75411 -0.42474,-0.15087 -1.08644,-0.53129 -1.47044,-0.84539 -0.384,-0.31409 -1.14219,-0.72032 -1.68486,-0.90272 -0.54267,-0.18241 -1.2065,-0.56077 -1.47519,-0.84081 -0.26869,-0.28004 -0.93298,-0.64103 -1.4762,-0.8022 -0.54323,-0.16117 -1.21894,-0.53406 -1.50158,-0.82865 -0.28264,-0.29458 -1.13984,-0.72871 -1.90488,-0.96474 -0.76505,-0.23602 -1.53562,-0.60236 -1.71239,-0.81408 -0.17676,-0.21172 -1.05853,-0.62253 -1.95948,-0.9129 -0.90095,-0.29038 -1.88617,-0.74543 -2.18938,-1.01123 -0.30322,-0.2658 -1.21398,-0.67401 -2.02392,-0.90713 -0.80994,-0.23312 -1.69039,-0.61471 -1.95656,-0.84798 -0.26618,-0.23327 -1.42546,-0.67268 -2.57619,-0.97646 -1.15073,-0.30379 -2.453,-0.79994 -2.89393,-1.10255 -0.51478,-0.35329 -1.67011,-0.75088 -3.2281,-1.11091 -1.33451,-0.30838 -2.79329,-0.77832 -3.24172,-1.0443 -0.47982,-0.28459 -2.07176,-0.75407 -3.86847,-1.14085 -1.87609,-0.40386 -3.537,-0.89887 -4.30824,-1.28401 -0.8859,-0.44239 -2.37114,-0.84934 -5.04901,-1.38341 -2.08664,-0.41616 -4.04886,-0.8969 -4.3605,-1.06832 -1.29523,-0.712456 -5.90102,-1.579113 -13.51222,-2.542554 -6.25657,-0.791968 -8.05656,-0.949498 -9.14571,-0.800395 -0.77633,0.106277 -3.06858,0.04417 -5.36195,-0.145285 -2.87725,-0.237685 -4.37149,-0.257419 -5.30343,-0.07004 -0.74151,0.149089 -2.33913,0.18626 -3.72831,0.08674 -1.66508,-0.119282 -2.71613,-0.07579 -3.3366,0.138058 -0.49819,0.171706 -1.83872,0.287214 -2.97894,0.256685 -1.14024,-0.03053 -2.33222,0.0666 -2.64887,0.215858 -0.31664,0.14925 -1.47021,0.29008 -2.56348,0.312951 -1.09327,0.02287 -2.17901,0.1713 -2.41275,0.329843 -0.23374,0.15854 -1.15457,0.29947 -2.04629,0.313177 -0.891715,0.01371 -1.912366,0.179285 -2.268114,0.367952 -0.355751,0.188668 -1.237621,0.334009 -1.959711,0.322979 -0.722092,-0.01103 -1.566643,0.126879 -1.876781,0.306458 -0.310138,0.17958 -1.120564,0.365993 -1.800946,0.414253 -0.680382,0.0483 -1.541823,0.24395 -1.914314,0.43487 -0.37249,0.19091 -1.095846,0.35862 -1.607457,0.37268 -0.511611,0.0141 -1.160644,0.18183 -1.442294,0.37283 -0.28165,0.191 -1.068449,0.38449 -1.74844,0.42996 -0.679991,0.0455 -1.54221,0.24671 -1.916043,0.44718 -1.065577,0.57141 -5.515216,0.3084 -8.92624,-0.52761 -2.184799,-0.53547 -2.785329,-0.77016 -3.38487,-1.32282 -0.400868,-0.36953 -0.947569,-0.702593 -1.214891,-0.740148 -0.267322,-0.03755 -0.593035,-0.276276 -0.723808,-0.530493 -0.130773,-0.254215 -0.521508,-0.668585 -0.868301,-0.92082 -0.346792,-0.252235 -0.904245,-0.841228 -1.238783,-1.308874 -0.810492,-1.132976 -2.133415,-3.543861 -2.094932,-3.817791 0.01689,-0.120253 -0.162959,-0.49304 -0.399673,-0.828413 -0.3574,-0.506366 -0.407514,-1.006996 -0.295507,-2.952107 0.180464,-3.133955 0.45246,-5.057383 1.117491,-7.902383 0.457718,-1.958115 0.653864,-2.450948 1.113273,-2.797178 0.306715,-0.231154 0.578706,-0.570062 0.604424,-0.753129 0.02572,-0.183067 0.386819,-0.627497 0.802448,-0.987621 0.415628,-0.360124 0.854741,-0.864149 0.975806,-1.120055 0.121064,-0.255907 0.436436,-0.490536 0.700826,-0.5214 0.264389,-0.03086 0.564584,-0.257103 0.6671,-0.502755 0.102515,-0.245652 0.414633,-0.481862 0.693595,-0.52491 0.278961,-0.04305 0.795722,-0.27694 1.148356,-0.519759 0.352635,-0.242818 1.046647,-0.545266 1.54225,-0.672106 0.495603,-0.12684 0.914322,-0.32476 0.930486,-0.439823 0.01616,-0.115063 0.645712,-0.242944 1.398994,-0.28418 0.753283,-0.04124 1.567901,-0.240533 1.810265,-0.442882 0.242363,-0.202349 0.838223,-0.37546 1.324135,-0.384691 0.485911,-0.0092 1.156226,-0.175476 1.489588,-0.369433 0.333362,-0.193958 1.200968,-0.391444 1.928015,-0.438858 0.727046,-0.04741 1.561504,-0.241439 1.85435,-0.431167 0.292847,-0.189728 1.00317,-0.343382 1.578495,-0.341453 0.575325,0.0019 1.565599,-0.185917 2.20061,-0.417437 0.63501,-0.23152 1.46287,-0.377633 1.839688,-0.324697 0.376817,0.05294 1.178367,-0.08154 1.781222,-0.298837 0.602853,-0.217297 1.68861,-0.384327 2.412795,-0.371178 0.724183,0.01315 1.584305,-0.131792 1.911379,-0.322091 0.358538,-0.208606 1.32102,-0.345005 2.423832,-0.343495 1.006033,0.0014 2.091852,-0.121322 2.412932,-0.272664 0.32108,-0.151343 1.49503,-0.283113 2.60877,-0.292824 1.11375,-0.0097 2.35549,-0.133699 2.75942,-0.275532 0.40394,-0.141832 1.76223,-0.228554 3.01843,-0.192716 1.25621,0.03584 2.61823,-0.05097 3.02671,-0.192916 0.435,-0.151157 1.88538,-0.193956 3.50079,-0.103305 1.51695,0.08512 3.37681,0.04095 4.13302,-0.09816 5.07763,-0.934088 45.71418,4.775833 50.29611,7.067205 0.8303,0.415222 2.40678,0.869004 4.63419,1.333921 2.10729,0.439846 3.67329,0.883908 4.16748,1.181752 0.43542,0.262423 2.03311,0.762202 3.55042,1.11062 1.60345,0.368197 2.94536,0.796147 3.20436,1.021908 0.47893,0.417471 2.75621,1.188619 4.05904,1.374501 0.43902,0.06265 1.15731,0.376577 1.59621,0.697643 0.4389,0.321067 1.60311,0.801654 2.58714,1.067973 0.98403,0.266318 2.12482,0.729768 2.53508,1.029887 0.41027,0.300121 1.31081,0.693827 2.0012,0.874903 0.6904,0.181076 1.56393,0.568751 1.94118,0.8615 0.37726,0.292749 1.34674,0.735223 2.1544,0.983277 0.80766,0.248054 1.6842,0.675851 1.94787,0.95066 0.26366,0.274808 1.00416,0.645927 1.64554,0.824708 0.64138,0.17878 1.45356,0.560167 1.80486,0.847526 0.35129,0.287359 1.17675,0.718851 1.83434,0.958871 0.6576,0.240021 1.40673,0.655538 1.66474,0.923372 0.25801,0.267835 0.91357,0.618839 1.45679,0.78001 0.54323,0.161171 1.20153,0.515916 1.46289,0.788321 0.26136,0.272405 0.94778,0.673179 1.52537,0.890609 0.5776,0.217429 1.27431,0.628928 1.54825,0.914442 0.27393,0.285515 0.86171,0.637944 1.30617,0.783177 0.44445,0.145233 0.98648,0.478372 1.2045,0.740308 0.21802,0.261937 0.82424,0.637548 1.34715,0.834691 0.52291,0.197144 1.11227,0.551902 1.30968,0.788353 0.19741,0.23645 0.73932,0.592585 1.20424,0.791411 0.46493,0.198826 1.02371,0.575736 1.24174,0.83758 0.21804,0.261844 0.80323,0.647541 1.30044,0.857106 0.49721,0.209565 1.00562,0.545587 1.12981,0.746715 0.12418,0.201128 0.5841,0.53844 1.02203,0.749581 0.43793,0.21114 0.9755,0.59189 1.19461,0.8461 0.21911,0.25421 0.75668,0.63495 1.19461,0.8461 0.43793,0.21114 0.89475,0.54343 1.01515,0.73842 0.1204,0.195 0.57678,0.53036 1.01418,0.74525 0.43741,0.21489 0.89781,0.58938 1.02311,0.8322 0.12531,0.24281 0.52028,0.55014 0.87771,0.68296 0.35742,0.13281 0.89809,0.50019 1.20147,0.8164 0.60483,0.63038 1.3776,1.24603 2.69301,2.14545 0.4722,0.32287 1.01325,0.81514 1.20234,1.09392 0.1891,0.27878 0.63158,0.61381 0.98329,0.7445 0.35172,0.1307 0.71417,0.44107 0.80545,0.68973 0.0913,0.24866 0.38597,0.55645 0.65486,0.684 0.26888,0.12754 0.74394,0.5141 1.05568,0.85902 0.31174,0.34492 0.80575,0.72409 1.09781,0.84259 0.29205,0.11851 0.51915,0.29986 0.50466,0.403 -0.032,0.22743 1.43624,1.64695 2.43436,2.35366 0.66905,0.47372 1.10191,0.9161 2.13994,2.18703 0.21742,0.26621 0.68014,0.68435 1.02827,0.92922 0.34813,0.24486 0.79727,0.68745 0.99809,0.98352 0.20082,0.29608 0.47347,0.55354 0.60589,0.57214 0.13242,0.0186 0.42031,0.26594 0.63975,0.54963 0.43966,0.56838 2.61092,2.92517 3.72562,4.04396 1.2325,1.23702 2.93126,3.86903 2.85367,4.42137 -0.0237,0.16851 0.13566,0.47306 0.35408,0.67677 0.86133,0.80335 0.84493,5.99912 -0.0311,9.86495 -0.62652,2.7647 -1.31548,4.50944 -2.06441,5.228 -0.30127,0.28906 -0.56621,0.65683 -0.58874,0.81726 -0.0523,0.37229 -4.65354,3.85103 -5.02469,3.79889 -0.15301,-0.0215 -0.65869,0.16684 -1.12372,0.41851 -0.46504,0.25168 -1.2196,0.46994 -1.6768,0.48503 -0.45721,0.0151 -1.2184,0.18589 -1.69154,0.37956 -0.72384,0.29629 -1.33,0.29682 -3.82274,0.003 -1.62937,-0.19181 -3.20737,-0.46075 -3.50666,-0.59764 z"
         id="path7224" />
      <path
         style="fill:#fcfcfc;stroke-width:0.2294"
         d="m 192.74226,241.84365 c 0.16503,-0.0411 0.4206,-0.005 0.56792,0.0798 0.14733,0.085 0.0123,0.11857 -0.30006,0.0747 -0.31235,-0.0439 -0.43289,-0.11339 -0.26786,-0.15447 z m 5.2249,0.73401 c 0.16503,-0.0411 0.4206,-0.005 0.56792,0.0798 0.14733,0.085 0.0123,0.11857 -0.30006,0.0747 -0.31235,-0.0439 -0.43289,-0.11339 -0.26786,-0.15447 z m -7.20127,-1.81624 c -1.268,-0.87022 -4.85305,-4.30787 -4.81025,-4.61248 0.0153,-0.10876 -0.12092,-0.21863 -0.30265,-0.24416 -0.18174,-0.0255 -0.53921,-0.3103 -0.79439,-0.63281 -0.25518,-0.32252 -0.7394,-0.80516 -1.07604,-1.07254 -0.33664,-0.26738 -1.02156,-0.91046 -1.52204,-1.42908 -0.50048,-0.51862 -1.1502,-1.08798 -1.44382,-1.26525 -0.58904,-0.35562 -1.63074,-1.58375 -1.5899,-1.87444 0.0572,-0.40708 0.91515,-0.0205 1.63398,0.73619 0.419,0.44109 0.88267,0.81896 1.03037,0.83971 0.14771,0.0207 0.45486,0.32451 0.68257,0.67502 0.22772,0.35051 0.54634,0.65588 0.70807,0.6786 0.16172,0.0227 0.60548,0.39356 0.98611,0.82408 0.38064,0.43052 0.81692,0.80454 0.9695,0.83116 0.15258,0.0266 0.40898,0.32747 0.56976,0.66858 0.16079,0.34111 0.4346,0.64019 0.60847,0.66462 0.17387,0.0244 0.50244,0.33119 0.73015,0.6817 0.22771,0.35051 0.53308,0.65402 0.6786,0.67447 0.14551,0.0204 0.42888,0.27941 0.6297,0.57548 0.20082,0.29607 0.64983,0.73953 0.99781,0.98546 0.34798,0.24593 0.73306,0.64212 0.85572,0.88044 0.12267,0.23831 0.57938,0.55337 1.01492,0.70013 0.43553,0.14676 0.95625,0.48494 1.15715,0.75151 0.2009,0.26656 0.64869,0.5623 0.9951,0.6572 0.45582,0.12486 0.32444,0.15983 -0.47551,0.12655 -0.87925,-0.0366 -1.3361,-0.20433 -2.23338,-0.82014 z m 7.53077,1.53199 c -0.7914,-0.22278 -0.85126,-0.26834 -0.28399,-0.21611 0.39533,0.0364 0.79617,-0.0735 0.89075,-0.24416 0.0946,-0.1707 0.62972,-0.37593 1.1892,-0.45607 1.69354,-0.24258 4.36242,-2.01084 5.3393,-3.53754 0.30988,-0.48429 0.71732,-0.91605 0.90543,-0.95947 0.1881,-0.0434 0.41131,-0.33324 0.49602,-0.64405 0.11447,-0.42002 0.22826,-0.50276 0.44322,-0.32227 0.19096,0.16034 0.20713,0.37696 0.0476,0.63766 -0.13287,0.21716 -0.23855,0.52995 -0.23484,0.69509 0.004,0.16515 -0.29787,0.57381 -0.67018,0.90815 -0.3723,0.33434 -0.69103,0.70836 -0.70828,0.83116 -0.0444,0.31615 -1.95516,2.0103 -2.22461,1.97244 -0.12289,-0.0173 -0.51934,0.17927 -0.881,0.43673 -1.12311,0.79953 -3.15494,1.2232 -4.30864,0.89844 z m 9.28047,-9.67911 c 0.199,-1.43725 0.44285,-2.6018 0.54192,-2.58788 0.40619,0.0571 0.63544,0.80551 0.41394,1.3514 -0.129,0.31789 -0.13878,0.72265 -0.0221,0.91171 0.15255,0.24706 0.1242,0.45736 -0.1037,0.76931 -0.1725,0.23611 -0.28502,0.69742 -0.25004,1.02512 0.0603,0.56491 -0.37215,1.22356 -0.76693,1.1681 -0.0962,-0.0135 -0.0121,-1.20051 0.18687,-2.63776 z m -29.91273,-3.85475 c -0.28258,-0.29452 -0.67051,-0.5575 -0.86208,-0.58442 -0.19157,-0.0269 -0.39806,-0.16214 -0.45886,-0.30052 -0.0608,-0.13837 -0.55247,-0.57798 -1.09261,-0.97691 -0.54013,-0.39893 -1.64145,-1.22584 -2.44738,-1.83758 -0.80592,-0.61174 -1.86051,-1.37104 -2.34353,-1.68734 -0.48302,-0.31629 -0.93107,-0.69537 -0.99568,-0.8424 -0.0646,-0.14703 -0.34123,-0.3003 -0.61472,-0.3406 -0.27349,-0.0403 -0.73235,-0.25488 -1.01969,-0.47684 -0.91464,-0.70654 -1.94434,-1.32606 -2.28312,-1.37365 -0.1805,-0.0254 -0.63759,-0.35912 -1.01577,-0.74169 -0.37818,-0.38258 -0.79092,-0.65019 -0.91719,-0.59471 -0.12627,0.0555 -0.33375,-0.0678 -0.46107,-0.27401 -0.12732,-0.2062 -0.33107,-0.33114 -0.45278,-0.27766 -0.12172,0.0535 -0.45844,-0.14991 -0.74827,-0.45199 -0.28983,-0.30208 -0.63201,-0.50308 -0.7604,-0.44666 -0.12839,0.0564 -0.39336,-0.089 -0.58884,-0.32312 -0.19547,-0.23413 -0.52891,-0.38564 -0.74097,-0.33669 -0.2275,0.0525 -0.75578,-0.24448 -1.28856,-0.72439 -0.5845,-0.52651 -1.02668,-0.76531 -1.25371,-0.67709 -0.21835,0.0849 -0.81553,-0.17476 -1.58208,-0.68777 -0.67724,-0.45323 -1.42324,-0.80166 -1.65778,-0.77428 -0.26877,0.0314 -0.49553,-0.13844 -0.61331,-0.45927 -0.15368,-0.41864 -0.26685,-0.47346 -0.6372,-0.30865 -0.3597,0.16006 -0.65565,0.0597 -1.47072,-0.49853 -1.37285,-0.94031 -1.46554,-1.45571 -0.19801,-1.10095 0.5162,0.14447 1.10077,0.457 1.29906,0.69449 0.19828,0.2375 1.04746,0.62807 1.88705,0.86794 0.84567,0.24161 1.76247,0.66537 2.05552,0.9501 0.29095,0.28269 1.02071,0.65333 1.62169,0.82364 0.60099,0.17032 1.36478,0.56599 1.69732,0.87927 0.33254,0.31328 1.10897,0.72269 1.72541,0.9098 0.65967,0.20023 1.24028,0.53661 1.41122,0.8176 0.16467,0.27069 0.73023,0.6079 1.30609,0.77875 0.55862,0.16574 1.32115,0.60066 1.69452,0.9665 0.37338,0.36583 0.87018,0.69203 1.104,0.72488 0.5268,0.074 1.30082,0.61543 1.47449,1.0314 0.0716,0.17138 0.53452,0.43978 1.02883,0.59646 0.49431,0.15667 1.11921,0.55538 1.38868,0.88601 0.26946,0.33064 0.8322,0.71649 1.25053,0.85745 0.41832,0.14096 0.86613,0.45386 0.99513,0.69532 0.12901,0.24147 0.63516,0.62025 1.12479,0.84173 0.48963,0.22148 1.04722,0.63413 1.23908,0.917 0.19187,0.28288 0.51964,0.53831 0.72838,0.56764 0.20874,0.0293 0.57681,0.33282 0.81793,0.67443 0.24111,0.34162 0.6997,0.72716 1.01908,0.85675 0.72007,0.29218 1.09819,0.69265 1.04067,1.10215 -0.0643,0.45745 -0.81318,0.27539 -1.40514,-0.34159 z m 30.10856,0.49485 c 0.0427,-0.30395 -0.10472,-0.75926 -0.32761,-1.01178 -0.22288,-0.25253 -0.42318,-0.76896 -0.4451,-1.14763 -0.0219,-0.37866 -0.261,-0.88229 -0.53129,-1.11916 -0.27029,-0.23688 -0.46305,-0.63278 -0.42835,-0.87979 0.0416,-0.29591 -0.0901,-0.47062 -0.38601,-0.51219 -0.24701,-0.0347 -0.58065,-0.34218 -0.74144,-0.68329 -0.16078,-0.34111 -0.43156,-0.63976 -0.60172,-0.66367 -0.17017,-0.0239 -0.44094,-0.32255 -0.60173,-0.66366 -0.16078,-0.34111 -0.42424,-0.63873 -0.58547,-0.66138 -0.263,-0.0369 -0.75372,-0.50776 -2.60924,-2.50331 -0.31015,-0.33356 -0.77111,-0.85189 -1.02436,-1.15185 -0.25325,-0.29995 -0.76558,-0.72509 -1.13853,-0.94474 -0.37294,-0.21965 -0.77792,-0.5867 -0.89994,-0.81566 -0.12202,-0.22895 -0.53512,-0.598 -0.918,-0.8201 -0.38288,-0.22209 -0.67862,-0.52857 -0.6572,-0.68105 0.0214,-0.15248 -0.35115,-0.45645 -0.82793,-0.6755 -0.47679,-0.21905 -0.94616,-0.61422 -1.04305,-0.87816 -0.0969,-0.26394 -0.33056,-0.50158 -0.51925,-0.52808 -0.1887,-0.0265 -0.55455,-0.32879 -0.813,-0.67172 -0.25845,-0.34294 -0.81549,-0.79402 -1.23785,-1.00241 -0.42236,-0.20839 -0.87035,-0.57978 -0.99552,-0.82532 -0.12516,-0.24553 -0.54173,-0.56316 -0.92569,-0.70583 -0.38396,-0.14268 -0.93201,-0.54641 -1.21789,-0.89718 -0.28588,-0.35077 -0.69339,-0.66228 -0.90558,-0.69224 -0.21219,-0.03 -0.64058,-0.34442 -0.95197,-0.69878 -0.31138,-0.35436 -0.8558,-0.75192 -1.20982,-0.88346 -0.35401,-0.13155 -0.71744,-0.44016 -0.80761,-0.68581 -0.0948,-0.25818 -0.53117,-0.56303 -1.03422,-0.72247 -0.47863,-0.15171 -1.02335,-0.50156 -1.21048,-0.77745 -0.18713,-0.27588 -0.76085,-0.67267 -1.27494,-0.88173 -0.51409,-0.20907 -1.23205,-0.67146 -1.59546,-1.02753 -0.36342,-0.35608 -0.88862,-0.67942 -1.16711,-0.71855 -0.2785,-0.0391 -0.76162,-0.35169 -1.0736,-0.69459 -0.31197,-0.3429 -0.95643,-0.74204 -1.43213,-0.88697 -0.47569,-0.14494 -1.05218,-0.49356 -1.28108,-0.77471 -0.2289,-0.28115 -0.8929,-0.65119 -1.47555,-0.8223 -0.58265,-0.17112 -1.29419,-0.55588 -1.5812,-0.85501 -0.28701,-0.29915 -0.97946,-0.69772 -1.53878,-0.88572 -0.55932,-0.188 -1.20533,-0.57619 -1.43557,-0.86264 -0.23024,-0.28646 -0.709,-0.56162 -1.06391,-0.61148 -0.63176,-0.0888 -0.63529,-0.099 -0.16836,-0.48883 0.44,-0.36736 0.50416,-0.36555 0.82882,0.0233 0.19354,0.23182 0.45356,0.37681 0.57783,0.32221 0.22483,-0.0988 1.54242,0.72679 2.05032,1.2847 0.14652,0.16096 0.44433,0.25158 0.6618,0.20138 0.23475,-0.0542 0.73099,0.20556 1.22135,0.63927 0.45428,0.4018 0.95367,0.72427 1.10977,0.71661 0.40546,-0.0199 1.28189,0.4433 1.8797,0.99342 0.28206,0.25956 0.63714,0.44663 0.78907,0.41571 0.15193,-0.0309 0.32763,0.0608 0.39045,0.20371 0.0628,0.14296 0.27742,0.28285 0.47691,0.31087 0.19948,0.028 0.69073,0.38303 1.09168,0.7889 0.40093,0.40587 1.01464,0.79296 1.36378,0.86019 0.34914,0.0672 0.82941,0.35868 1.06728,0.64766 0.23786,0.28897 0.77994,0.6492 1.20462,0.8005 0.42467,0.15129 0.9074,0.42531 1.07272,0.60893 0.43286,0.48075 3.58546,2.7087 3.89427,2.75208 0.14319,0.0201 0.51108,0.38453 0.81753,0.80981 0.30645,0.42528 0.78759,0.8056 1.0692,0.84516 0.28161,0.0396 0.56158,0.18472 0.62215,0.32256 0.0606,0.13785 0.41438,0.44571 0.78626,0.68414 1.09018,0.69897 2.93707,2.14226 3.30456,2.58242 0.18674,0.22367 0.62082,0.61897 0.96462,0.87845 0.3438,0.25948 1.1558,0.96331 1.80445,1.56407 0.64865,0.60076 1.32667,1.21696 1.5067,1.36935 0.18004,0.15238 0.6204,0.55303 0.9786,0.89034 0.35819,0.33731 0.71227,0.62187 0.78684,0.63234 0.1278,0.018 1.89151,1.87281 3.61548,3.80233 0.42681,0.47769 0.88337,0.93794 1.01458,1.02278 0.93326,0.60343 1.80135,1.53919 1.96652,2.11983 0.10745,0.37771 0.50958,0.89465 0.89363,1.14877 0.38405,0.25412 0.6785,0.60276 0.65434,0.77476 -0.0242,0.172 0.13835,0.69168 0.36115,1.15483 0.77616,1.61351 0.82854,2.08307 0.27433,2.45898 -0.47695,0.3235 -0.49251,0.31543 -0.41777,-0.21663 z M 65.681006,205.15158 c -0.173178,-0.47174 -0.108933,-0.47861 1.87319,-0.20015 1.128886,0.15859 2.04103,0.37012 2.026988,0.47008 -0.06948,0.49459 -0.767575,0.63346 -2.18409,0.43446 -1.304262,-0.18323 -1.563891,-0.28979 -1.716088,-0.70439 z m -1.900797,-0.50246 c -0.06064,-0.138 -0.211714,-0.20634 -0.335719,-0.15185 -0.124004,0.0545 -0.572201,-0.21526 -0.995993,-0.59945 -0.423792,-0.38418 -0.886888,-0.71486 -1.029103,-0.73484 -0.381306,-0.0536 -2.818709,-3.3668 -2.915736,-3.96344 -0.04577,-0.28148 -0.223458,-0.7921 -0.394851,-1.1347 -0.474118,-0.94772 -0.496808,-1.82121 -0.05441,-2.09437 0.313153,-0.19336 0.367256,-0.15672 0.315243,0.21353 -0.03453,0.24582 0.110614,0.65463 0.322549,0.90848 0.211936,0.25384 0.407757,0.75351 0.435159,1.11038 0.0274,0.35687 0.276814,0.92837 0.554251,1.27002 0.277436,0.34165 0.560967,0.86367 0.630068,1.16004 0.0691,0.29638 0.262383,0.55808 0.429515,0.58156 0.167132,0.0235 0.550548,0.38501 0.852038,0.8034 0.301489,0.41839 0.836179,0.86774 1.1882,0.99854 0.35202,0.13081 0.734548,0.45022 0.850062,0.70981 0.127802,0.2872 0.466325,0.50798 0.864704,0.56395 0.55618,0.0781 0.604928,0.13726 0.324008,0.39299 -0.381077,0.34692 -0.879768,0.33059 -1.039989,-0.034 z m 6.637077,0.82035 c -0.06037,-0.26155 0.07502,-0.33694 0.498284,-0.27748 0.319645,0.0449 0.780058,-0.10207 1.023139,-0.32662 0.248144,-0.22922 0.848661,-0.41066 1.369346,-0.41374 0.51006,-0.003 1.317902,-0.18819 1.795205,-0.4115 0.477303,-0.22331 1.370485,-0.40594 1.984847,-0.40584 0.614364,1e-4 1.333391,-0.16288 1.59784,-0.36218 0.448338,-0.33789 2.508896,-0.53402 2.716486,-0.25857 0.202949,0.26929 -0.330621,0.84088 -0.681088,0.72962 -0.205118,-0.0651 -0.644871,0.003 -0.977229,0.15108 -1.085012,0.48383 -1.845778,0.61917 -2.134118,0.37967 -0.185217,-0.15385 -0.609322,-0.0404 -1.247108,0.33349 -0.709417,0.41593 -1.107227,0.5095 -1.495793,0.35183 -0.29114,-0.11814 -0.608345,-0.11968 -0.704901,-0.003 -0.230217,0.27716 -1.767443,0.67565 -2.311527,0.59922 -0.23463,-0.033 -0.440958,0.0423 -0.458511,0.16724 -0.05064,0.36048 -0.88315,0.14461 -0.974872,-0.25278 z m 11.802112,-2.19843 c -0.330709,-0.43881 0.809784,-1.02726 1.976871,-1.01998 1.205447,0.008 1.075144,0.42193 -0.307144,0.97684 -1.11335,0.44694 -1.360592,0.45333 -1.669727,0.0431 z m 65.942722,8.38603 c -0.17303,-0.12868 -0.70563,-0.41868 -1.18355,-0.64444 -0.47792,-0.22577 -1.01699,-0.58162 -1.19792,-0.79078 -0.22106,-0.25556 -0.38917,-0.30782 -0.51251,-0.15934 -0.32493,0.39119 -1.26564,0.0972 -1.46997,-0.45939 -0.19247,-0.52432 -0.18515,-0.52492 1.55509,-0.12864 1.12218,0.25554 2.00123,0.59948 2.45412,0.96022 0.3881,0.30913 1.03156,0.61131 1.4299,0.67151 l 0.72425,0.10946 -0.59906,0.37144 c -0.6578,0.40785 -0.73956,0.41262 -1.20035,0.07 z m -62.430305,-9.14521 c -0.185535,-0.30048 -0.13774,-0.35415 0.264993,-0.29757 0.270243,0.038 0.802956,-0.10002 1.183806,-0.30663 0.479426,-0.26009 1.209784,-0.3467 2.374055,-0.28151 1.668558,0.0934 1.679035,0.0977 1.350838,0.54688 -0.346779,0.47465 -0.905627,0.50886 -1.403865,0.0859 -0.203594,-0.17282 -0.556275,-0.10353 -1.138468,0.22369 -0.984339,0.55323 -2.298792,0.56781 -2.631359,0.0292 z m 55.568865,6.57319 c -0.55619,-0.28471 -1.07426,-0.6028 -1.15127,-0.70685 -0.077,-0.10406 -0.39026,-0.16249 -0.69611,-0.12984 -0.56064,0.0598 -1.18067,-0.39873 -1.12029,-0.82856 0.0516,-0.36723 3.02019,0.39608 4.01361,1.03202 0.81921,0.52441 0.84502,0.57705 0.41914,0.85486 -0.41061,0.26783 -0.55016,0.24672 -1.46508,-0.22162 z m -49.524632,-7.02104 c -0.08523,-0.45013 1.963331,-1.07382 3.039215,-0.92529 0.873379,0.12061 1.012786,0.50571 0.268204,0.74099 -1.632626,0.5159 -3.227803,0.60479 -3.307419,0.1843 z m 5.77149,-0.31192 c -0.340479,-0.50198 -0.332954,-0.51008 0.380654,-0.40983 0.4004,0.0562 1.06385,-0.0157 1.474334,-0.15979 0.870124,-0.30552 3.244044,-0.27384 3.199574,0.0427 -0.0495,0.35236 -0.62365,0.68609 -1.07198,0.6231 -0.2311,-0.0325 -0.75367,0.0581 -1.16126,0.20119 -0.666032,0.23386 -0.775082,0.21948 -1.076888,-0.142 -0.303609,-0.36365 -0.36847,-0.36327 -0.676415,0.004 -0.429453,0.51213 -0.633212,0.48174 -1.068019,-0.15933 z m 37.134822,5.19768 c -0.17534,-0.47762 -0.20786,-0.48692 -0.53291,-0.15234 -0.32603,0.3356 -0.39807,0.32659 -1.23863,-0.15487 -0.49085,-0.28117 -1.14236,-0.54631 -1.4478,-0.58922 -0.33543,-0.0471 -0.63152,-0.28558 -0.74775,-0.60218 -0.18955,-0.51634 -0.17059,-0.51928 1.2705,-0.19753 0.8046,0.17964 1.77222,0.53929 2.15027,0.7992 0.37804,0.25992 1.09639,0.53005 1.59634,0.60028 0.89459,0.12568 0.90146,0.13398 0.43398,0.52427 -0.61399,0.51263 -1.24796,0.41539 -1.484,-0.22761 z m -31.37691,-5.55476 -0.47354,-0.52212 2.0697,0.29076 c 1.13833,0.15991 2.0582,0.37253 2.04416,0.47249 -0.1166,0.82995 -2.83204,0.65009 -3.64032,-0.24113 z m 24.06719,3.57406 c -0.44654,-0.5925 -0.17537,-0.67323 1.46267,-0.43544 l 1.64591,0.23894 -0.59906,0.37144 c -0.67335,0.4175 -2.1401,0.31526 -2.50953,-0.17493 z m -17.15133,-2.8425 c -0.28886,-0.42588 -0.23484,-0.45042 0.92346,-0.41957 2.13768,0.0569 10.05582,1.16928 11.20645,1.57429 l 1.10369,0.38848 -0.64609,0.31082 c -0.54629,0.26281 -0.86623,0.24766 -2.07109,-0.0981 -1.28119,-0.36767 -3.66848,-0.68796 -8.55616,-1.14795 -1.35406,-0.12743 -1.709,-0.23751 -1.96026,-0.60795 z m -52.5259,-7.40927 c -0.139236,-0.18475 -0.140235,-0.98054 -0.0025,-1.96125 0.199183,-1.41785 0.300664,-1.67561 0.720344,-1.82967 0.472622,-0.1735 0.478609,-0.10893 0.184197,1.98678 -0.299999,2.13548 -0.440538,2.41655 -0.902079,1.80414 z m 1.127354,-4.71545 c -0.295415,-0.48227 0.04886,-1.47917 0.706572,-2.046 0.254233,-0.2191 0.571626,-0.64361 0.705316,-0.94335 0.282462,-0.6333 3.279815,-3.01404 3.717297,-2.95258 0.1628,0.0229 0.868568,-0.24422 1.568372,-0.59353 0.948758,-0.47358 1.338406,-0.56258 1.532002,-0.34992 0.193346,0.21239 0.534613,0.13947 1.336689,-0.28562 0.592382,-0.31395 1.247875,-0.49953 1.45665,-0.4124 0.208776,0.0871 0.518153,0.0323 0.687506,-0.1219 0.169352,-0.15417 0.487332,-0.2551 0.706621,-0.2243 0.219289,0.0308 0.551172,-0.0828 0.737518,-0.25242 0.186346,-0.16964 0.49932,-0.26602 0.695498,-0.21417 0.196178,0.0518 0.551153,0.0406 0.788835,-0.0251 0.237681,-0.0656 0.481103,-0.0544 0.540937,0.025 0.05983,0.0794 0.564911,-0.0974 1.122391,-0.39284 1.110541,-0.58856 1.420662,-0.61693 1.764014,-0.16134 0.359136,0.47654 -1.069399,1.11579 -2.469396,1.10503 -0.777201,-0.006 -1.323425,0.12594 -1.556568,0.37591 -0.21999,0.23587 -0.784646,0.38809 -1.457049,0.39279 -0.603823,0.004 -1.401583,0.19634 -1.7728,0.42694 -0.404486,0.25126 -1.165368,0.41549 -1.898849,0.40985 -0.794938,-0.006 -1.34845,0.12412 -1.579236,0.37157 -0.195428,0.20953 -0.6796,0.40586 -1.075937,0.4363 -0.396336,0.0304 -1.026753,0.31498 -1.400925,0.63232 -0.374172,0.31734 -0.816754,0.55782 -0.983516,0.53439 -0.166762,-0.0234 -0.32252,0.0949 -0.346128,0.26295 -0.02361,0.16806 -0.289575,0.46948 -0.591038,0.66985 -0.301463,0.20036 -0.81824,0.79544 -1.148394,1.3224 -0.330154,0.52696 -0.744859,1.04204 -0.921567,1.14463 -0.176708,0.10258 -0.388758,0.42879 -0.471222,0.7249 -0.132115,0.4744 -0.17889,0.49111 -0.393593,0.1406 z m 105.631286,4.18598 c -0.83874,-0.65749 -0.86802,-1.06653 -0.0768,-1.07214 0.525,-0.004 2.1936,1.28142 2.14187,1.64965 -0.0554,0.39406 -1.25296,0.0591 -2.06512,-0.57751 z M 77.624767,181.14438 c 0.04626,-0.32932 0.750765,-0.66877 0.984698,-0.47446 0.119873,0.0996 0.554461,0.006 0.965754,-0.20753 0.472195,-0.24535 0.907845,-0.31186 1.182034,-0.18046 0.24915,0.1194 0.44875,0.10475 0.468295,-0.0344 0.05024,-0.35763 0.623987,-0.21278 0.894872,0.22593 0.199994,0.3239 0.133061,0.36618 -0.45009,0.28425 -0.386158,-0.0542 -0.759716,0.0386 -0.856233,0.21277 -0.294355,0.53124 -3.262264,0.69304 -3.18933,0.17388 z m 83.886533,11.79109 c -0.26693,-0.12035 -0.66809,-0.42693 -0.89147,-0.68127 -0.22613,-0.25748 -0.77301,-0.51399 -1.23385,-0.57873 -0.81332,-0.11426 -0.81945,-0.12318 -0.35271,-0.51286 0.55961,-0.46721 1.23073,-0.4326 1.34661,0.0694 0.0453,0.19628 0.24166,0.31822 0.43904,0.27267 0.19639,-0.0453 0.5662,0.11262 0.82179,0.351 0.25558,0.23838 0.67707,0.46326 0.93665,0.49973 0.47413,0.0666 0.96263,0.53098 0.91502,0.86983 -0.0297,0.21118 -1.27353,0.0292 -1.98108,-0.28982 z m -78.856804,-12.5607 c 0.07345,-0.14894 0.380383,-0.35436 0.682065,-0.45648 0.301682,-0.10213 0.678604,-0.28372 0.8376,-0.40355 0.409652,-0.30873 1.497717,-0.1106 1.590074,0.28955 0.0426,0.18454 -0.103201,0.37421 -0.323994,0.42149 -0.220791,0.0473 -0.678104,0.20026 -1.016251,0.33995 -0.768006,0.31728 -1.95687,0.18898 -1.769494,-0.19096 z m 73.555074,10.27562 c -0.28657,-0.22746 -0.68403,-0.50052 -0.88325,-0.6068 -0.59292,-0.31632 -0.10107,-0.86771 0.57007,-0.63908 1.06347,0.36229 2.24743,1.10527 2.40422,1.50876 0.1318,0.33916 0.0244,0.38097 -0.7073,0.27529 -0.47449,-0.0685 -1.09717,-0.31072 -1.38374,-0.53817 z M 86.862651,179.64692 c 0.261249,-0.35759 0.485365,-0.42639 0.913564,-0.28046 0.336889,0.11482 0.877481,0.0593 1.330686,-0.13658 0.920794,-0.39804 1.4812,-0.35165 1.592798,0.13186 0.132495,0.57404 -0.930413,0.91023 -2.628275,0.83129 l -1.554945,-0.0723 z m 64.550229,9.29273 c -0.90336,-0.35314 -1.34099,-0.8297 -1.12307,-1.22299 0.22685,-0.4094 0.66107,-0.32365 1.60561,0.31709 0.43158,0.29276 0.97431,0.51676 1.20606,0.49778 0.43422,-0.0356 1.0257,0.45221 0.97614,0.80499 -0.0334,0.23774 -1.66172,-0.005 -2.66475,-0.39686 z m -60.267843,-9.67208 c 0.06977,-0.14036 0.313433,-0.33923 0.541473,-0.44193 0.322647,-0.14532 0.511472,-0.0582 0.851237,0.3926 l 0.436614,0.57934 -0.97809,-0.13741 c -0.649887,-0.0913 -0.935524,-0.22304 -0.851234,-0.3926 z m 56.509483,7.74063 c 0.97208,-0.60272 2.14806,-0.2202 2.02461,0.65856 -0.007,0.0522 -0.60067,0.009 -1.31851,-0.0961 l -1.30516,-0.19107 0.59906,-0.37144 z m -54.271329,-7.55572 c 0.01786,-0.12713 0.173859,-0.31003 0.346666,-0.40646 0.342818,-0.19129 2.222268,-0.52284 2.818177,-0.49716 0.204402,0.009 0.488894,-0.0355 0.632203,-0.0985 0.143309,-0.063 0.416002,0.0907 0.605982,0.34156 0.330152,0.43589 0.321199,0.45615 -0.202481,0.45846 -0.301347,0.001 -0.798624,0.1206 -1.105062,0.26504 -0.680432,0.32072 -3.142352,0.27064 -3.095485,-0.063 z m 50.327259,7.00335 c -0.36042,-0.15525 -1.02327,-0.48138 -1.473,-0.72473 -0.67931,-0.36758 -0.75575,-0.48069 -0.45168,-0.66844 0.4206,-0.2597 1.65714,0.001 2.32769,0.49107 0.25142,0.18369 0.75008,0.37513 1.10813,0.42543 0.62586,0.0879 1.14753,0.51466 1.0941,0.89499 -0.0322,0.22938 -1.73719,-0.0444 -2.60524,-0.41832 z m -43.74149,-7.33856 c 0.25941,-0.52186 0.9248,-0.6401 1.58133,-0.28102 0.4833,0.26434 0.71181,0.28747 0.97653,0.0989 0.19007,-0.13543 0.96815,-0.33229 1.72907,-0.43747 1.30329,-0.18015 1.40556,-0.1648 1.76428,0.26485 0.37229,0.44591 0.36511,0.46024 -0.32132,0.64171 -1.59666,0.42211 -5.973402,0.20293 -5.729889,-0.28694 z m 35.32957,4.98493 c -0.7024,-0.20581 -1.51925,-0.54787 -1.81522,-0.76015 -0.52452,-0.3762 -0.52588,-0.39426 -0.0539,-0.7144 0.44223,-0.29996 0.55147,-0.28858 1.2591,0.13114 0.42617,0.25277 0.97752,0.48805 1.22521,0.52285 0.24769,0.0348 0.51949,0.24119 0.60399,0.45866 0.12308,0.31673 0.25477,0.35828 0.66191,0.20881 0.82898,-0.30431 1.86191,-0.0565 2.06449,0.49535 0.17093,0.46565 0.11271,0.47782 -1.24459,0.26022 -0.78315,-0.12557 -1.9986,-0.39667 -2.70101,-0.60248 z m 78.41762,9.98121 c -0.37211,-0.22938 -0.72543,-0.52829 -0.78517,-0.66424 -0.0597,-0.13596 -0.52276,-0.42149 -1.02894,-0.63451 -0.50619,-0.21303 -1.14302,-0.65728 -1.41519,-0.98721 -0.27218,-0.32994 -1.04841,-1.11181 -1.72497,-1.73749 -1.39865,-1.29348 -2.85397,-2.72305 -5.04482,-4.95556 -0.83389,-0.84975 -1.61259,-1.55855 -1.73046,-1.5751 -0.11787,-0.0166 -0.41849,-0.3194 -0.66805,-0.67299 -0.24957,-0.35358 -0.62787,-0.66733 -0.84068,-0.69723 -0.21281,-0.0299 -0.49729,-0.2331 -0.63218,-0.45156 -0.1349,-0.21847 -0.53677,-0.60232 -0.89306,-0.85301 -0.35629,-0.2507 -0.90288,-0.73758 -1.21465,-1.08198 -0.31177,-0.34438 -0.74564,-0.65128 -0.96416,-0.68198 -0.21853,-0.0307 -0.6015,-0.34511 -0.85107,-0.69869 -0.24956,-0.35358 -0.64009,-0.66905 -0.86784,-0.70105 -0.22775,-0.032 -0.74954,-0.45504 -1.15955,-0.9401 -0.41001,-0.48506 -0.87169,-0.85652 -1.02595,-0.82546 -0.15427,0.0311 -0.74697,-0.38004 -1.31712,-0.91357 -0.57014,-0.53352 -1.14968,-0.98593 -1.28785,-1.00534 -0.13817,-0.0194 -0.54115,-0.30993 -0.89549,-0.64561 -0.35435,-0.33567 -0.7812,-0.59849 -0.94855,-0.58404 -0.16735,0.0145 -0.65008,-0.26183 -1.07272,-0.61397 -0.42265,-0.35214 -0.85729,-0.62451 -0.96588,-0.60526 -0.23118,0.041 -2.40731,-1.60926 -2.54985,-1.93365 -0.0534,-0.12153 -0.24655,-0.18648 -0.42921,-0.14432 -0.35029,0.0808 -1.40781,-0.71053 -1.64029,-1.22749 -0.0754,-0.16762 -0.29718,-0.2678 -0.49289,-0.22263 -0.19572,0.0452 -0.47589,-0.0497 -0.62261,-0.2109 -0.14672,-0.16117 -0.33739,-0.23981 -0.42372,-0.17475 -0.17826,0.13434 -2.02962,-1.05229 -2.18168,-1.39835 -0.0547,-0.12454 -0.33403,-0.20141 -0.62069,-0.17081 -0.3527,0.0377 -0.79184,-0.20497 -1.3584,-0.75049 -0.61778,-0.59484 -0.91325,-0.74883 -1.12729,-0.58752 -0.21405,0.16132 -0.35149,0.13713 -0.52438,-0.0923 -0.12887,-0.17099 -0.42809,-0.33812 -0.66494,-0.37139 -0.23685,-0.0333 -0.6972,-0.31303 -1.02302,-0.62167 -0.32581,-0.30865 -0.70911,-0.50989 -0.85178,-0.4472 -0.29174,0.12819 -0.86122,-0.40454 -0.81141,-0.75905 0.0536,-0.38185 2.31264,0.32977 2.91068,0.91691 0.2986,0.29316 1.05275,0.67493 1.6759,0.84836 0.64454,0.17939 1.41552,0.59216 1.78831,0.95743 0.36042,0.35315 0.87576,0.67305 1.14521,0.71091 0.73595,0.10339 1.80626,0.70864 1.88929,1.06838 0.0403,0.17467 0.58586,0.46289 1.21232,0.64049 0.70001,0.19845 1.35927,0.56817 1.71047,0.95926 0.3143,0.34999 0.79343,0.66753 1.06473,0.70564 0.58609,0.0823 1.36058,0.60497 1.54261,1.04097 0.0716,0.17138 0.5398,0.44146 1.04054,0.60017 0.50075,0.15872 1.07225,0.50327 1.27001,0.76567 0.19776,0.2624 0.75459,0.64532 1.23739,0.85094 0.48281,0.20561 0.98324,0.57828 1.11206,0.82815 0.12882,0.24988 0.61303,0.58132 1.07601,0.73654 0.46298,0.15522 1.01705,0.552 1.23127,0.88173 0.21421,0.32974 0.72669,0.71315 1.13884,0.85203 0.41215,0.13888 0.82505,0.45867 0.91755,0.71064 0.0925,0.25198 0.454,0.56435 0.80335,0.69416 0.34934,0.12981 0.93916,0.53387 1.3107,0.89792 0.37155,0.36404 0.80666,0.68032 0.96692,0.70283 0.16026,0.0225 0.42294,0.32003 0.58372,0.66114 0.16078,0.34111 0.48147,0.64677 0.71264,0.67924 0.23117,0.0325 0.72651,0.4148 1.10077,0.8496 0.37424,0.4348 0.84349,0.81346 1.04277,0.84145 0.19928,0.028 0.49387,0.32999 0.65466,0.6711 0.16078,0.34111 0.48147,0.64677 0.71264,0.67925 0.23117,0.0325 0.72651,0.41479 1.10076,0.84959 0.37425,0.43481 0.79239,0.80628 0.92919,0.8255 0.1368,0.0192 0.38029,0.31403 0.54107,0.65514 0.16078,0.34111 0.41807,0.63787 0.57175,0.65946 0.15368,0.0216 0.44373,0.28149 0.64455,0.57757 0.20082,0.29607 0.64995,0.73865 0.99808,0.98352 0.34813,0.24486 0.81058,0.66495 1.02767,0.93352 1.12316,1.38953 1.77491,2.06796 2.01964,2.10234 0.14952,0.021 0.43065,0.27231 0.62474,0.55846 0.19408,0.28615 0.77242,0.69088 1.2852,0.89942 0.51277,0.20853 1.08056,0.5977 1.26173,0.86482 0.20385,0.30054 0.63234,0.52823 1.12407,0.59731 l 0.79464,0.11163 -0.58768,0.38075 c -0.67463,0.43708 -0.63582,0.4399 -1.53026,-0.11147 z m 6.02747,0.73839 -0.46004,-0.50765 0.71155,0.0922 c 0.39135,0.0507 0.85989,-0.0428 1.0412,-0.20785 0.18131,-0.16505 0.76883,-0.36061 1.30559,-0.43456 0.53677,-0.074 1.26338,-0.3255 1.61471,-0.55899 0.35132,-0.23349 0.87308,-0.46077 1.15946,-0.50508 0.28637,-0.0443 0.6119,-0.27089 0.72339,-0.50353 0.11149,-0.23264 0.2897,-0.41076 0.39603,-0.39582 0.38371,0.0539 2.21627,-1.44409 2.43944,-1.99407 0.20212,-0.49812 1.35979,-1.64195 1.62421,-1.60481 0.0551,0.008 0.13999,0.18679 0.18872,0.39789 0.17531,0.75957 -3.74983,4.63935 -4.88873,4.83223 -0.25636,0.0434 -0.67713,0.25511 -0.93504,0.47045 -0.25791,0.21533 -0.58096,0.37642 -0.71789,0.35797 -0.13691,-0.0185 -0.57863,0.0871 -0.98157,0.23455 -0.40294,0.14746 -1.18901,0.39558 -1.74681,0.55139 -0.98967,0.27643 -1.02531,0.27101 -1.47422,-0.22436 z M 108.07036,178.88256 c 0.29128,-0.39868 0.48188,-0.41152 1.93763,-0.13055 1.05822,0.20424 1.789,0.47491 2.12077,0.78549 0.49407,0.46251 0.44765,0.46564 -1.93763,0.13055 -2.41394,-0.33912 -2.43987,-0.34871 -2.12077,-0.78549 z m 18.3824,2.66849 c 0.46003,-0.23472 1.213,-0.25351 2.95999,-0.0738 2.26554,0.23301 2.99562,0.50798 2.91286,1.09708 -0.0154,0.10965 -1.48192,-0.005 -3.25892,-0.25453 -3.12969,-0.43967 -3.21159,-0.46376 -2.61393,-0.7687 z m -5.61989,-0.89269 c 0.23711,-0.47699 0.93506,-0.65538 1.31296,-0.33558 0.68309,0.57808 0.48968,0.86185 -0.49328,0.72376 -0.62566,-0.0879 -0.90353,-0.21948 -0.81968,-0.38817 z m 109.5125,6.64501 c 0.0539,-0.3839 0.37801,-1.20707 0.72018,-1.82927 0.74804,-1.36026 0.88668,-2.1593 0.544,-3.13525 -0.36191,-1.03068 -0.30285,-3.12715 0.0827,-2.9355 0.3324,0.16523 0.41235,0.36618 0.85799,2.1566 0.47799,1.92038 0.0202,3.71689 -1.53736,6.03327 -0.39556,0.58826 -0.76813,0.42648 -0.6675,-0.28985 z m 0.53159,-9.14314 c -0.27997,-0.50114 -0.48429,-1.0874 -0.45403,-1.30279 0.0303,-0.2154 -0.17702,-0.59499 -0.46063,-0.84354 -0.2836,-0.24854 -0.4954,-0.59599 -0.47066,-0.77211 0.0247,-0.17611 -0.15046,-0.41387 -0.38933,-0.52835 -0.23887,-0.11447 -0.51421,-0.42577 -0.61186,-0.69178 -0.0977,-0.26601 -0.42294,-0.61863 -0.72287,-0.78361 -0.29993,-0.16498 -0.56992,-0.51065 -0.59998,-0.76816 -0.0301,-0.25751 -0.20537,-0.48937 -0.38959,-0.51525 -0.18422,-0.0259 -0.70268,-0.46356 -1.15213,-0.97264 -0.44946,-0.50907 -0.94524,-0.94357 -1.10175,-0.96556 -0.1565,-0.022 -0.32072,-0.25354 -0.36493,-0.51457 -0.0442,-0.26103 -0.22775,-0.4953 -0.40789,-0.52061 -0.18013,-0.0253 -0.60534,-0.39777 -0.9449,-0.8277 -0.33957,-0.42993 -0.71652,-0.79562 -0.83768,-0.81264 -0.12115,-0.017 -0.52648,-0.38669 -0.90073,-0.82149 -0.37425,-0.43481 -0.8118,-0.80901 -0.97234,-0.83156 -0.16053,-0.0225 -0.47819,-0.32779 -0.7059,-0.6783 -0.22771,-0.35051 -0.55398,-0.65696 -0.72504,-0.68099 -0.17106,-0.024 -0.65384,-0.40458 -1.07285,-0.84567 -0.419,-0.44109 -0.90432,-0.822 -1.07847,-0.84647 -0.17416,-0.0245 -0.35637,-0.21658 -0.40492,-0.42693 -0.0485,-0.21035 -0.50876,-0.6371 -1.02269,-0.94833 -0.51393,-0.31124 -0.97086,-0.72376 -1.01539,-0.91671 -0.0445,-0.19295 -0.37074,-0.45849 -0.7249,-0.59009 -0.35415,-0.1316 -0.71423,-0.43082 -0.80018,-0.66494 -0.0859,-0.23412 -0.55213,-0.60754 -1.03598,-0.82983 -0.48384,-0.22229 -0.95366,-0.6056 -1.04404,-0.85179 -0.0904,-0.24619 -0.47581,-0.55674 -0.85651,-0.69012 -0.38071,-0.13337 -0.96056,-0.54133 -1.28856,-0.90658 -0.328,-0.36525 -0.78513,-0.6906 -1.01585,-0.72302 -0.23071,-0.0324 -0.67472,-0.33954 -0.98669,-0.68251 -0.31197,-0.34297 -0.85673,-0.739 -1.21058,-0.88007 -0.35385,-0.14106 -0.90423,-0.54697 -1.22306,-0.90201 -0.31884,-0.35504 -0.81958,-0.67922 -1.11276,-0.72041 -0.29319,-0.0412 -0.7882,-0.35629 -1.10004,-0.70023 -0.31183,-0.34394 -0.93755,-0.74874 -1.39048,-0.89955 -0.45294,-0.15081 -0.93335,-0.48964 -1.06759,-0.75296 -0.14281,-0.28014 -0.64362,-0.60154 -1.20716,-0.77471 -0.5297,-0.16277 -1.1394,-0.5299 -1.3549,-0.81584 -0.21549,-0.28593 -0.843,-0.67154 -1.39447,-0.8569 -0.55147,-0.18536 -1.18591,-0.56019 -1.40987,-0.83294 -0.22395,-0.27275 -0.95867,-0.69126 -1.6327,-0.93001 -0.69232,-0.24523 -1.36341,-0.64994 -1.54247,-0.9302 -0.297,-0.46487 -0.28907,-0.50634 0.12607,-0.65873 0.33466,-0.12286 0.62691,0.004 1.19485,0.51893 0.4135,0.37486 0.73622,0.79262 0.71715,0.92836 -0.0241,0.17173 0.0713,0.18138 0.31367,0.0317 0.19158,-0.11829 0.53102,-0.12293 0.75432,-0.0103 0.82029,0.41373 2.21176,1.37539 2.30842,1.59536 0.0547,0.12454 0.33102,0.20249 0.61399,0.17323 0.35418,-0.0366 0.70511,0.17483 1.12623,0.67859 0.37462,0.44813 0.89614,0.78582 1.34546,0.87119 0.40354,0.0767 0.92638,0.37342 1.16187,0.65944 0.23548,0.28601 0.75787,0.6397 1.16087,0.78598 0.40299,0.14627 1.03705,0.61953 1.40901,1.05167 0.37196,0.43215 0.77991,0.74019 0.90655,0.68454 0.2901,-0.12747 3.34065,2.0005 3.94413,2.75131 0.24775,0.30823 0.55167,0.51595 0.67539,0.46159 0.12371,-0.0544 0.44702,0.11044 0.71846,0.36623 0.27144,0.25578 0.83564,0.72161 1.25378,1.03517 1.83722,1.37771 2.87845,2.21263 4.03353,3.23431 0.67996,0.60144 1.37993,1.18411 1.55549,1.29483 0.17556,0.11072 0.61433,0.53791 0.97505,0.94931 0.36072,0.41141 0.78781,0.76655 0.9491,0.78921 0.16129,0.0227 0.49744,0.33049 0.74701,0.68408 0.24956,0.35358 0.68642,0.67556 0.97078,0.71551 0.28438,0.04 0.57934,0.22258 0.65548,0.40585 0.14234,0.34261 1.4899,1.59489 2.54114,2.36147 0.32623,0.23788 0.69963,0.62999 0.82977,0.87134 0.13015,0.24135 0.79922,0.96003 1.48681,1.59707 1.84001,1.70471 4.52291,4.74297 4.47698,5.06996 -0.0219,0.15614 0.19426,0.43302 0.48044,0.61529 0.28618,0.18226 0.6553,0.64176 0.82026,1.02111 0.16497,0.37935 0.4904,1.0912 0.72319,1.58188 0.24673,0.52007 0.34103,1.04053 0.2261,1.24794 -0.27941,0.50428 -0.42025,0.4176 -0.996,-0.61296 z M 72.862679,153.48576 c -0.586042,-0.22938 -1.136785,-0.61115 -1.230843,-0.85319 -0.133655,-0.34395 -0.246865,-0.39074 -0.526941,-0.21781 -0.525444,0.32444 -1.199363,-0.0355 -2.940955,-1.57059 -1.545512,-1.36229 -2.921662,-3.20742 -3.281848,-4.40027 -0.241899,-0.80111 -0.334175,-1.02728 -0.743899,-1.82329 -0.278237,-0.54056 -0.279122,-0.71597 -0.0049,-0.96563 0.298617,-0.27185 0.375329,-0.25694 0.704111,0.13686 0.20294,0.24307 0.42051,0.85719 0.483491,1.3647 0.138966,1.11984 2.977417,5.06198 3.920231,5.44455 0.333152,0.13518 0.774373,0.46956 0.980491,0.74305 0.520274,0.69035 3.510537,1.51469 6.083833,1.67716 1.105027,0.0698 1.995727,0.21097 1.979332,0.31379 -0.07128,0.44699 -0.518057,0.61468 -1.845078,0.6925 -1.646317,0.0965 -2.135376,0.0225 -3.577056,-0.54183 z m 6.033406,-0.0934 c -0.05619,-0.24343 0.04379,-0.35329 0.290033,-0.31869 0.206676,0.029 0.632225,-0.12822 0.945664,-0.34945 0.682761,-0.4819 2.613208,-0.56015 2.38277,-0.0966 -0.174229,0.35049 -1.921174,1.01245 -2.862697,1.08475 -0.486945,0.0374 -0.693458,-0.0501 -0.75577,-0.32003 z m 4.181074,-0.73012 c -0.415554,-0.55139 0.754689,-1.10038 2.414426,-1.13267 0.574911,-0.0112 1.297807,-0.19441 1.606434,-0.40718 0.602356,-0.41527 2.690034,-0.49482 2.634624,-0.1004 -0.04376,0.31147 -0.776234,0.74501 -0.925066,0.54752 -0.06582,-0.0873 -0.430867,0.003 -0.811201,0.20051 -0.380336,0.19763 -0.848602,0.33725 -1.04059,0.31028 -0.19199,-0.027 -0.426822,0.0446 -0.52185,0.15897 -0.114899,0.13832 -0.309266,0.10829 -0.580208,-0.0897 -0.236951,-0.17311 -0.419905,-0.20886 -0.437244,-0.0854 -0.02333,0.16607 -1.787046,0.93875 -2.056415,0.90091 -0.03364,-0.005 -0.160945,-0.141 -0.28291,-0.30284 z m 7.200934,-1.52436 c -0.24088,-0.35514 -0.249629,-0.47915 -0.03165,-0.44852 0.165707,0.0233 0.500857,-0.093 0.744784,-0.25849 0.243924,-0.16545 1.210153,-0.30659 2.147177,-0.31364 0.937021,-0.007 1.82873,-0.14108 1.981574,-0.29785 0.484926,-0.49736 3.660995,-0.54511 3.592002,-0.054 -0.05567,0.3963 -0.772802,0.65027 -1.224679,0.43371 -0.283297,-0.13577 -0.62481,-0.11096 -0.888884,0.0646 -0.235861,0.15678 -0.851278,0.39391 -1.367598,0.52697 -0.857539,0.22099 -0.968848,0.20589 -1.286498,-0.17459 -0.317807,-0.38065 -0.370014,-0.38719 -0.606518,-0.0759 -0.142331,0.18731 -0.814082,0.50888 -1.492783,0.71459 -1.213677,0.36786 -1.239484,0.36593 -1.566929,-0.11683 z m 78.676037,10.751 c -1.18096,-0.8884 -1.19397,-1.34108 -0.0292,-1.01507 1.12391,0.31457 2.05813,1.19447 1.61931,1.52518 -0.39277,0.29602 -0.61207,0.22567 -1.59014,-0.51011 z m -2.73886,-1.23776 c 0.0192,-0.13681 -0.16706,-0.20842 -0.42747,-0.16431 -0.2599,0.044 -0.85053,-0.18209 -1.35187,-0.5175 -0.5357,-0.35841 -1.11172,-0.57204 -1.44615,-0.53634 -0.56024,0.0598 -1.18041,-0.3988 -1.12008,-0.82826 0.021,-0.14972 0.58599,-0.1011 1.59308,0.13709 1.56913,0.37112 2.66354,0.89353 2.61379,1.24767 -0.0147,0.10489 0.27668,0.23334 0.64759,0.28545 0.50611,0.0711 0.62981,0.17517 0.49575,0.41712 -0.2025,0.36546 -1.05684,0.33067 -1.00464,-0.0409 z m -66.77259,-10.7995 c -0.180536,-0.23955 0.02623,-0.39267 0.91786,-0.67972 1.1091,-0.35707 2.8823,-0.32799 2.82971,0.0464 -0.0479,0.34075 -0.64628,0.6505 -1.1264,0.58305 -0.26349,-0.037 -0.69859,0.0549 -0.9669,0.20428 -0.59561,0.33159 -1.340564,0.26224 -1.65427,-0.15402 z m 60.06279,8.36529 c -0.21632,-0.22067 -0.66,-0.43869 -0.98596,-0.48449 -0.57616,-0.0809 -1.08745,-0.5187 -1.03574,-0.88679 0.014,-0.1 0.45327,-0.12164 0.97607,-0.0482 1.06367,0.14943 2.86329,1.23738 2.67641,1.61801 -0.18433,0.37545 -1.18791,0.25328 -1.63078,-0.19853 z m -55.18576,-8.7936 -0.46003,-0.52793 0.75517,0.10609 c 0.41535,0.0583 0.954,-0.0288 1.19701,-0.19359 0.49536,-0.33599 3.04187,-0.32857 2.99449,0.009 -0.051,0.36279 -0.62861,0.68502 -1.11851,0.62393 -0.25669,-0.032 -0.68695,0.0644 -0.95614,0.21424 -0.26918,0.14985 -0.65725,0.19202 -0.86237,0.0937 -0.20511,-0.0983 -0.45363,-0.0816 -0.55226,0.0371 -0.25953,0.31245 -0.47876,0.2328 -0.99736,-0.36234 z m 49.91308,7.08976 c -0.26099,-0.34631 -0.39871,-0.38558 -0.69992,-0.1996 -0.29909,0.18467 -0.50386,0.14016 -1.01166,-0.21994 -0.35017,-0.24831 -0.83373,-0.47916 -1.07458,-0.51299 -0.24086,-0.0338 -0.55925,-0.31311 -0.70755,-0.62062 -0.25824,-0.53547 -0.29068,-0.54492 -0.76794,-0.22371 -0.85287,0.57403 -2.62439,0.0639 -2.51372,-0.72386 0.0557,-0.39642 4.95993,0.74203 6.01139,1.39546 0.52238,0.32463 1.31966,0.64567 1.77173,0.71342 l 0.82195,0.12318 -0.59906,0.37144 c -0.72822,0.45152 -0.81859,0.44397 -1.23064,-0.10278 z m -90.396957,-13.75 c -0.346653,-0.45997 -0.196041,-1.01303 0.382791,-1.40564 0.505133,-0.34261 0.51008,-0.33295 0.363545,0.71013 -0.151686,1.07974 -0.330897,1.24675 -0.746336,0.69551 z m 45.527597,6.21053 c -0.34377,-0.50683 -0.33296,-0.51008 1.05088,-0.31567 0.76902,0.10803 1.38673,0.27821 1.37269,0.37816 -0.11062,0.78746 -1.87799,0.7419 -2.42357,-0.0625 z m 34.51601,4.65756 c -0.61705,-0.30249 -1.17808,-0.62452 -1.24673,-0.71561 -0.0686,-0.0911 -0.73732,-0.19574 -1.48594,-0.23256 -1.33838,-0.0658 -2.01688,-0.40481 -1.93775,-0.96814 0.0542,-0.38602 4.49628,0.59973 5.78646,1.2841 1.07977,0.57276 1.11121,0.61636 0.66327,0.92019 -0.25862,0.17541 -0.51234,0.30612 -0.56381,0.29047 -0.0515,-0.0157 -0.59845,-0.27597 -1.2155,-0.57845 z m -30.56429,-4.40573 c -0.14001,-0.60658 1.68747,-0.84699 4.55946,-0.59982 2.74981,0.23666 3.15871,0.40498 2.28869,0.94218 -0.26106,0.16119 -0.78876,0.13808 -1.63719,-0.0717 -0.68858,-0.17027 -1.43131,-0.24919 -1.65051,-0.17537 -0.51702,0.17411 -2.51182,0.35537 -3.06132,0.27817 -0.23473,-0.033 -0.45934,-0.20102 -0.49913,-0.37344 z m -49.355438,-8.99314 c -0.45878,-0.60875 0.0801,-2.02729 0.735178,-1.93526 0.09995,0.014 0.10993,0.53666 0.02217,1.16138 -0.162107,1.15392 -0.336574,1.3322 -0.757346,0.77388 z m 0.751422,-2.79293 c -0.41294,-0.6127 -0.359523,-1.12554 0.150002,-1.44015 0.539799,-0.3333 0.628976,-0.10781 0.391168,0.98909 -0.199855,0.92183 -0.21524,0.93466 -0.54117,0.45106 z m 0.660087,-2.22524 c -0.403184,-0.21188 -0.277944,-0.54015 0.458335,-1.20134 0.364507,-0.32734 0.688925,-0.78154 0.720928,-1.00935 0.06969,-0.49605 4.429876,-3.84117 4.774056,-3.66264 0.132115,0.0685 0.63708,-0.10331 1.122145,-0.38187 0.87843,-0.50446 1.902675,-0.79699 2.257299,-0.64469 0.102539,0.044 0.6645,-0.11673 1.248802,-0.35727 0.584302,-0.24054 1.199279,-0.36148 1.366616,-0.26876 0.167337,0.0927 0.457566,0.029 0.644953,-0.14157 0.187387,-0.17059 0.520122,-0.28496 0.739411,-0.25415 0.219289,0.0308 0.54751,-0.0794 0.729379,-0.24502 0.181869,-0.16556 0.567687,-0.26772 0.857372,-0.22703 0.289686,0.0407 0.608007,-0.0239 0.707381,-0.14353 0.123882,-0.14914 0.268197,-0.12138 0.459085,0.0883 0.218422,0.23993 0.491486,0.1809 1.267384,-0.27401 1.030775,-0.60434 1.608391,-0.67109 1.811303,-0.20929 0.22953,0.52237 -0.867666,1.02233 -2.379404,1.08424 -0.909402,0.0372 -1.637834,0.20165 -1.845451,0.41653 -0.197685,0.20461 -0.807661,0.35486 -1.439739,0.35465 -0.603201,-2.1e-4 -1.487924,0.18713 -1.96605,0.4163 -0.478126,0.22916 -1.288005,0.42883 -1.799731,0.44371 -0.511726,0.0149 -1.050233,0.13794 -1.196682,0.27347 -0.390477,0.36138 -1.268099,0.64468 -1.776066,0.57332 -0.243731,-0.0342 -0.646502,0.16978 -0.895048,0.45339 -0.248546,0.28361 -0.577911,0.50218 -0.731923,0.48572 -0.154011,-0.0165 -0.696974,0.34093 -1.206584,0.79421 -0.50961,0.45327 -1.18663,1.0325 -1.504491,1.28717 -0.31786,0.25467 -0.74437,0.85386 -0.9478,1.33155 -0.370495,0.86998 -0.970002,1.28359 -1.47548,1.01795 z m 123.064209,8.25458 c -0.24139,-0.0956 -0.61733,-0.38768 -0.83541,-0.64917 -0.22668,-0.2718 -0.942,-0.62131 -1.67005,-0.81599 -1.50034,-0.40119 -2.74672,-1.42088 -2.17115,-1.77627 0.26581,-0.16412 0.57826,-0.0721 1.31997,0.38886 0.53445,0.33214 0.99656,0.73646 1.0269,0.8985 0.0424,0.22645 0.1545,0.23365 0.48447,0.0311 0.37408,-0.22963 0.58518,-0.16011 1.64122,0.54056 1.80092,1.19487 1.81541,1.20657 1.87121,1.50945 0.0523,0.284 -0.7912,0.21973 -1.66716,-0.12702 z m 53.21273,6.2514 c -0.17381,-0.47347 -0.10893,-0.47861 2.10835,-0.16712 2.21729,0.31149 2.27824,0.3343 1.9807,0.74156 -0.26736,0.36595 -0.53948,0.38752 -2.10835,0.16712 -1.56887,-0.2204 -1.82452,-0.31611 -1.9807,-0.74156 z m -1.87234,-0.6886 c -0.34273,-0.28125 -0.7745,-0.54697 -0.95948,-0.59048 -1.06095,-0.24955 -1.66571,-0.51166 -1.70781,-0.7402 -0.0263,-0.14252 -0.41184,-0.51432 -0.85686,-0.82622 -0.44501,-0.3119 -1.37672,-1.19577 -2.07046,-1.96415 -0.69374,-0.76839 -1.6962,-1.77592 -2.22768,-2.23896 -0.53148,-0.46304 -1.4016,-1.34002 -1.9336,-1.94883 -0.96596,-1.10542 -3.09946,-3.15881 -4.22664,-4.06791 -0.32795,-0.26451 -0.95636,-0.8703 -1.39646,-1.34621 -0.44009,-0.4759 -0.90356,-0.8798 -1.02994,-0.89756 -0.12638,-0.0178 -0.57391,-0.39335 -0.99452,-0.83467 -0.4206,-0.44131 -0.83166,-0.81179 -0.91346,-0.82328 -0.0818,-0.0115 -0.67727,-0.48924 -1.32326,-1.06165 -0.646,-0.57241 -1.47801,-1.2189 -1.84891,-1.43663 -0.37091,-0.21774 -0.872,-0.67587 -1.11354,-1.01808 -0.24154,-0.34221 -0.58965,-0.64334 -0.77359,-0.66918 -0.18394,-0.0258 -0.82321,-0.4805 -1.4206,-1.01036 -0.59739,-0.52985 -1.171,-0.97572 -1.2747,-0.99083 -0.34663,-0.0506 -2.27395,-1.47928 -2.68465,-1.99025 -0.22308,-0.27754 -0.82918,-0.63478 -1.34689,-0.79387 -0.51771,-0.15908 -0.93142,-0.35948 -0.91936,-0.44531 0.0272,-0.19393 -1.37001,-1.13237 -1.76957,-1.1885 -0.16139,-0.0227 -0.48933,-0.31875 -0.72873,-0.65794 -0.26746,-0.37893 -0.80737,-0.72711 -1.40032,-0.90303 -0.53077,-0.15748 -1.0673,-0.45195 -1.19229,-0.65437 -0.12499,-0.20243 -0.35556,-0.38608 -0.51238,-0.40811 -0.15682,-0.022 -0.39405,-0.21647 -0.52718,-0.43208 -0.13313,-0.21562 -0.39323,-0.35714 -0.57799,-0.31449 -0.38146,0.088 -1.61565,-0.71079 -1.80519,-1.16841 -0.0705,-0.17026 -0.3831,-0.28998 -0.71443,-0.27363 -0.34543,0.017 -0.57432,-0.0758 -0.55343,-0.22458 0.0196,-0.1395 -0.14304,-0.28032 -0.36143,-0.31292 -0.62391,-0.0931 -2.10548,-0.91236 -2.15714,-1.19279 -0.0257,-0.13954 -0.3279,-0.23812 -0.67226,-0.21931 -0.4854,0.0265 -0.78946,-0.1655 -1.35707,-0.857 -0.60154,-0.73284 -0.79157,-0.84592 -1.06951,-0.63645 -0.36199,0.27281 -1.12275,-0.0288 -2.47934,-0.98297 -0.34785,-0.24467 -0.80997,-0.42978 -1.02693,-0.41137 -0.22865,0.0194 -0.47617,-0.18908 -0.58883,-0.49597 -0.14214,-0.3872 -0.27145,-0.47136 -0.48126,-0.31324 -0.3701,0.27892 -1.17922,0.16417 -1.4589,-0.20681 -0.11982,-0.15899 -0.43212,-0.43741 -0.69399,-0.61871 -0.26186,-0.18129 -0.50326,-0.47933 -0.53644,-0.6623 -0.0847,-0.46696 1.69132,0.0424 2.17728,0.62449 0.19828,0.2375 1.04746,0.62807 1.88705,0.86795 0.83959,0.23987 1.75645,0.65944 2.03747,0.93237 0.28101,0.27294 1.01094,0.64242 1.62205,0.82107 0.61111,0.17866 1.48729,0.61528 1.94705,0.97027 0.45977,0.35499 1.22529,0.76297 1.70116,0.90662 0.47588,0.14365 1.05251,0.49122 1.28142,0.77237 0.2289,0.28115 0.88665,0.64933 1.46167,0.81819 0.57501,0.16885 1.34282,0.59834 1.70623,0.95441 0.36342,0.35608 0.90318,0.68148 1.19948,0.7231 0.62204,0.0874 1.40048,0.59828 1.5854,1.0405 0.0701,0.1676 0.57772,0.43833 1.12809,0.60162 0.59983,0.17797 1.09714,0.48615 1.24152,0.76936 0.13247,0.25986 0.665,0.63241 1.1834,0.82788 0.5184,0.19547 1.13444,0.58845 1.36897,0.87328 0.23453,0.28483 0.77362,0.64352 1.19798,0.79709 0.42436,0.15357 1.02648,0.56214 1.33806,0.90794 0.31156,0.3458 0.74528,0.65384 0.9638,0.68454 0.21852,0.0307 0.59371,0.33407 0.83375,0.67416 0.24004,0.34009 0.77351,0.73192 1.18548,0.87075 0.41198,0.13882 0.85557,0.46135 0.98576,0.71672 0.13019,0.25538 0.65063,0.64061 1.15655,0.85606 0.50591,0.21545 0.99384,0.5933 1.08428,0.83966 0.0904,0.24637 0.4411,0.54554 0.77924,0.66484 0.33814,0.11929 0.81653,0.46711 1.0631,0.77294 0.24656,0.30582 0.7338,0.70287 1.08276,0.88233 0.34895,0.17946 0.66696,0.51821 0.70669,0.75279 0.0397,0.23458 0.34544,0.52222 0.67935,0.6392 0.33392,0.11698 0.85361,0.51513 1.15487,0.88478 0.30127,0.36965 0.69347,0.69257 0.87157,0.71758 0.1781,0.025 0.45536,0.32458 0.61615,0.6657 0.16078,0.34111 0.48147,0.64677 0.71264,0.67924 0.23117,0.0325 0.72651,0.4148 1.10076,0.8496 0.37425,0.4348 0.79239,0.80627 0.92919,0.82549 0.13681,0.0192 0.38029,0.31404 0.54107,0.65515 0.16079,0.34111 0.43492,0.64023 0.60919,0.66471 0.17427,0.0245 0.46489,0.282 0.64583,0.57228 0.18094,0.29027 0.61324,0.73049 0.96066,0.97826 0.34742,0.24778 0.80928,0.67024 1.02637,0.93881 1.15868,1.43347 1.77993,2.06867 2.06198,2.10829 0.17281,0.0243 0.35255,0.21034 0.39944,0.41346 0.0469,0.20313 0.44805,0.62361 0.89147,0.9344 0.44343,0.31079 0.86829,0.71966 0.94414,0.90862 0.0758,0.18895 0.49889,0.55653 0.94011,0.81683 0.44121,0.26031 0.78784,0.57559 0.77027,0.70062 -0.0176,0.12503 0.57102,0.43644 1.30797,0.69202 1.42922,0.49566 2.31223,1.21249 1.98252,1.60942 -0.28011,0.33723 -0.64153,0.24503 -1.36423,-0.34804 z m 6.71058,1.05011 c -0.29835,-0.48319 0.71048,-0.93647 2.07407,-0.9319 0.60695,0.002 1.30763,-0.17999 1.67404,-0.4349 0.34658,-0.24113 0.94624,-0.46268 1.33258,-0.49235 0.39746,-0.0305 0.78959,-0.23584 0.90322,-0.47293 0.11044,-0.23044 0.29554,-0.40568 0.41134,-0.38942 0.28471,0.04 2.5331,-1.64316 2.57284,-1.92604 0.0174,-0.12377 0.23246,-0.25905 0.47795,-0.30063 0.24549,-0.0416 0.54403,-0.34545 0.66342,-0.67528 0.1978,-0.54644 1.321,-1.7187 1.60812,-1.67836 0.89713,0.12603 -1.29328,3.02708 -3.46165,4.58473 -1.50896,1.08397 -4.13193,2.31686 -5.35659,2.5178 -0.52166,0.0856 -1.23952,0.25782 -1.59525,0.38271 -0.81117,0.28481 -1.03436,0.25341 -1.30409,-0.18343 z M 85.359742,126.13057 c 0.173245,-0.23713 0.488801,-0.37596 0.701237,-0.30853 0.212435,0.0674 0.696146,-0.0234 1.074909,-0.20199 0.757121,-0.35687 1.326818,-0.18668 1.248208,0.37289 -0.06374,0.45373 -1.465322,0.83204 -2.528962,0.68261 -0.746854,-0.10492 -0.785689,-0.14764 -0.495392,-0.54498 z m 95.669148,13.75497 c -0.67584,-0.23356 -1.12877,-0.9728 -0.82217,-1.34191 0.21211,-0.25537 0.36532,-0.21863 1.05316,0.2525 0.44271,0.30324 0.95105,0.54525 1.12965,0.53782 0.30795,-0.0128 0.64598,0.44435 0.60174,0.81385 -0.021,0.17561 -1.12054,0.0287 -1.96238,-0.26225 z M 88.650246,125.74738 c 0.01577,-0.11222 0.166978,-0.30828 0.336027,-0.43568 0.237092,-0.17869 0.388634,-0.1343 0.662854,0.19414 0.328181,0.39308 0.370723,0.3983 0.553757,0.068 0.20278,-0.36598 2.02645,-1.01429 2.618972,-0.93105 0.180902,0.0254 0.366212,0.20782 0.411803,0.40533 0.04559,0.19752 -0.02027,0.34464 -0.14635,0.32692 -0.126082,-0.0177 -0.533857,0.12561 -0.906171,0.3185 -0.714583,0.37021 -3.581477,0.41394 -3.530892,0.0539 z m 90.113314,12.35948 c 0.36177,-0.30203 0.5383,-0.32542 0.74473,-0.0987 0.44258,0.48616 0.26021,0.70233 -0.50217,0.59522 -0.7019,-0.0986 -0.70692,-0.10887 -0.24256,-0.49656 z m -2.53178,-0.35498 c -0.25312,-0.14596 -0.51247,-0.38427 -0.57632,-0.52958 -0.0639,-0.14527 -0.32703,-0.29379 -0.58484,-0.33001 -0.39091,-0.0549 -0.41383,-0.11584 -0.13807,-0.36688 0.44971,-0.40939 1.11577,-0.25982 2.22906,0.50056 1.18777,0.81126 1.30699,1.27546 0.28561,1.11212 -0.41537,-0.0664 -0.96231,-0.2402 -1.21544,-0.38617 z M 93.840671,125.07781 c 0.04837,-0.34434 0.741064,-0.71175 0.975206,-0.51727 0.112232,0.0932 0.571426,0.0107 1.020424,-0.18332 0.449001,-0.19405 0.984378,-0.3296 1.189725,-0.30123 0.607977,0.084 0.597641,0.7412 -0.01621,1.03054 -0.687122,0.32388 -3.215459,0.30097 -3.169144,-0.0287 z m 77.530509,10.8373 c -0.90336,-0.35314 -1.34098,-0.8297 -1.12307,-1.22298 0.22358,-0.40351 0.67455,-0.32276 1.4989,0.2684 0.37043,0.26565 0.95306,0.50254 1.29474,0.52643 0.41748,0.0292 0.6804,0.20466 0.80168,0.53503 0.1683,0.45845 0.11505,0.48081 -0.78973,0.33159 -0.53361,-0.088 -1.29074,-0.28532 -1.68252,-0.43847 z M 97.97827,124.30578 c 0.103604,-0.18698 0.194376,-0.38272 0.201716,-0.43497 0.036,-0.25628 0.676865,0.0501 1.085368,0.5189 l 0.46003,0.52793 -0.967742,-0.13595 c -0.789123,-0.11086 -0.932973,-0.1987 -0.779372,-0.47591 z m 70.34663,9.78563 c 0.67503,-0.43734 1.01162,-0.43649 1.34311,0.003 0.41541,0.5512 0.20554,0.6775 -0.87377,0.52588 l -1.05703,-0.1485 z m -68.337671,-9.60569 c 0.07896,-0.15884 0.301091,-0.34118 0.493611,-0.40518 1.86328,-0.61944 3.1965,-0.65843 3.32602,-0.0973 0.0534,0.23149 -0.0504,0.3424 -0.28916,0.30886 -0.2049,-0.0288 -0.56744,0.0799 -0.80567,0.24145 -0.58653,0.39782 -2.925923,0.35674 -2.724801,-0.0479 z m 65.313671,9.17709 c -0.33676,-0.15493 -0.71955,-0.39824 -0.85065,-0.5407 -0.13111,-0.14246 -0.48254,-0.32937 -0.78096,-0.41535 -0.51858,-0.14942 -0.52234,-0.17152 -0.0849,-0.49956 0.25174,-0.18877 0.54887,-0.2675 0.66028,-0.17495 0.11142,0.0925 0.42223,0.23192 0.69068,0.30973 0.495,0.14346 1.74796,0.75402 2.30543,1.12341 0.1679,0.11126 0.32851,0.32841 0.35691,0.48256 0.0603,0.32752 -1.34408,0.15317 -2.2968,-0.28514 z m -59.94405,-9.79761 c 0.28835,-0.39469 0.47783,-0.43731 1.09461,-0.24622 0.49288,0.15271 1.07462,0.12561 1.715,-0.0799 1.14909,-0.36872 1.5422,-0.341 1.83254,0.12921 0.33247,0.53846 -1.12477,0.88798 -3.21936,0.77216 l -1.77152,-0.098 z m 52.26435,7.53618 c -0.65126,-0.20456 -1.36499,-0.54063 -1.58607,-0.74683 -0.36277,-0.33834 -0.36287,-0.40436 -0.001,-0.67703 0.3618,-0.27267 0.50435,-0.24851 1.46195,0.24781 0.58359,0.30246 1.18496,0.68603 1.33639,0.85237 0.17685,0.19426 0.40506,0.24381 0.63806,0.13854 0.77553,-0.35042 2.05366,0.16688 1.96536,0.79544 -0.0326,0.23211 -2.27454,-0.12658 -3.81463,-0.6103 z m -46.64632,-7.91486 c 0.40899,-0.55981 1.78349,-0.36672 2.61245,0.367 l 0.6181,0.54709 -1.76878,-0.24686 c -1.69855,-0.23725 -1.75657,-0.26373 -1.46177,-0.66723 z m 41.63402,5.84887 c 0.36838,-0.21433 0.9854,-0.32487 1.44948,-0.25967 0.57557,0.0808 0.85966,0.25407 0.98739,0.60201 0.17158,0.46739 0.10894,0.47861 -1.44948,0.25968 l -1.62882,-0.22882 z m -37.78325,-5.22724 c 0.0594,-0.42293 0.66341,-0.68242 1.36049,-0.5845 0.38963,0.0547 1.26812,0.0155 1.95219,-0.0873 1.00773,-0.15138 1.30175,-0.12314 1.5493,0.1488 0.25101,0.27573 0.35388,0.27202 0.57636,-0.0208 0.36342,-0.47828 1.00859,-0.35667 1.43384,0.27029 0.34086,0.50254 0.3329,0.51013 -0.42663,0.40674 -0.42569,-0.0579 -1.24421,-0.0122 -1.81895,0.10162 -1.25775,0.24912 -4.67026,0.0759 -4.6266,-0.23486 z m 33.01072,4.54373 c -1.40546,-0.48825 -1.65151,-0.72611 -1.21544,-1.17498 0.3363,-0.34616 0.42321,-0.33665 1.52662,0.16705 0.64351,0.29376 1.48881,0.57889 1.87845,0.63363 0.67497,0.0948 1.20649,0.51167 1.15151,0.90306 -0.0322,0.22921 -2.10234,-0.0984 -3.34114,-0.52876 z m -3.308,-1.60993 c 0.67503,-0.43733 1.01162,-0.43649 1.34312,0.003 0.4154,0.5512 0.20554,0.67751 -0.87378,0.52588 l -1.05702,-0.14849 z m -14.99431,-2.09829 c 0.0704,-0.501 1.1362,-0.5435 3.89838,-0.15546 2.78474,0.39121 3.44779,0.63039 3.36578,1.21413 -0.014,0.0999 -1.66115,-0.048 -3.66024,-0.32888 -2.18333,-0.30672 -3.62242,-0.59814 -3.60392,-0.7298 z m 128.72858,16.99091 c 0.0471,-0.33539 0.36659,-1.02899 0.70996,-1.54136 0.54041,-0.80641 0.66168,-0.88195 0.90261,-0.56226 0.24094,0.31969 0.20712,0.49653 -0.25168,1.31617 -0.87267,1.55902 -1.52207,1.93478 -1.36089,0.78745 z m 1.85266,-4.81271 c 0.0481,-0.26311 0.10946,-0.30938 0.15652,-0.11797 0.0426,0.1732 0.007,0.368 -0.0791,0.43289 -0.0861,0.0649 -0.12093,-0.0768 -0.0774,-0.31492 z m 0.45433,0.0638 c 0.0481,-0.26311 0.10947,-0.30937 0.15653,-0.11797 0.0426,0.17321 0.007,0.36801 -0.0791,0.4329 -0.0861,0.0649 -0.12093,-0.0768 -0.0774,-0.31493 z m -0.70454,-3.02524 c -0.17579,-0.57059 -0.31862,-1.52321 -0.31739,-2.11695 10e-4,-0.60462 -0.13206,-1.15393 -0.30305,-1.24867 -0.1679,-0.093 -0.3993,-0.52569 -0.51422,-0.96146 -0.32724,-1.24083 -4.32815,-6.35152 -5.05189,-6.45319 -0.10301,-0.0145 -0.22196,-0.23096 -0.26431,-0.48108 -0.0424,-0.25012 -0.36471,-0.60271 -0.71632,-0.78354 -0.35162,-0.18082 -0.61858,-0.47635 -0.59324,-0.65672 0.0253,-0.18037 -0.1787,-0.41915 -0.45342,-0.53062 -0.27473,-0.11148 -0.80356,-0.56193 -1.1752,-1.001 -0.37163,-0.43907 -0.79886,-0.81561 -0.9494,-0.83676 -0.15054,-0.0212 -0.40527,-0.31754 -0.56605,-0.65865 -0.16078,-0.34111 -0.42488,-0.63882 -0.58689,-0.66158 -0.162,-0.0228 -0.48085,-0.32816 -0.70857,-0.67868 -0.22771,-0.35051 -0.56447,-0.65843 -0.74837,-0.68426 -0.18389,-0.0258 -0.64055,-0.40272 -1.0148,-0.83752 -0.37425,-0.43481 -0.79239,-0.80628 -0.92919,-0.8255 -0.13681,-0.0192 -0.37411,-0.30093 -0.52735,-0.62602 -0.15323,-0.32509 -0.57107,-0.69354 -0.92851,-0.81876 -0.35745,-0.12522 -0.83835,-0.51775 -1.06868,-0.87228 -0.23032,-0.35453 -0.55855,-0.66424 -0.7294,-0.68824 -0.17085,-0.024 -0.50209,-0.31493 -0.7361,-0.64651 -0.234,-0.33158 -0.69982,-0.71251 -1.03515,-0.84652 -0.33533,-0.134 -0.79402,-0.52739 -1.01931,-0.87418 -0.2253,-0.3468 -0.5816,-0.6547 -0.79177,-0.68423 -0.21018,-0.0295 -0.72496,-0.41457 -1.14397,-0.85567 -0.419,-0.44109 -0.89531,-0.82073 -1.05846,-0.84365 -0.16315,-0.0229 -0.40447,-0.24372 -0.53626,-0.49066 -0.13179,-0.24695 -0.65458,-0.6368 -1.16174,-0.86633 -0.50717,-0.22954 -1.00139,-0.63329 -1.09829,-0.89723 -0.0969,-0.26394 -0.38374,-0.50905 -0.63744,-0.54469 -0.56566,-0.0795 -1.33333,-0.61148 -1.51617,-1.05073 -0.0746,-0.17922 -0.52541,-0.49185 -1.00181,-0.69473 -0.4764,-0.20288 -1.01933,-0.58028 -1.20651,-0.83867 -0.18719,-0.25838 -0.63675,-0.58597 -0.99903,-0.72797 -0.36228,-0.142 -0.83677,-0.47464 -1.05442,-0.7392 -0.21765,-0.264558 -0.81359,-0.657185 -1.32431,-0.872506 -0.51073,-0.215321 -1.08162,-0.603739 -1.26866,-0.863151 -0.18704,-0.259412 -0.71924,-0.596697 -1.18266,-0.749521 -0.46342,-0.152824 -1.00447,-0.492664 -1.20233,-0.755198 -0.19785,-0.262535 -0.69239,-0.596613 -1.09896,-0.742396 -0.40657,-0.145784 -1.06402,-0.550187 -1.46099,-0.898675 -0.39698,-0.348488 -1.08564,-0.750894 -1.53036,-0.894237 -0.44472,-0.143342 -1.03776,-0.49948 -1.31786,-0.791418 -0.2801,-0.291937 -0.84073,-0.643248 -1.24583,-0.78069 -0.83545,-0.283446 -1.45281,-0.68159 -1.82722,-1.178381 -0.21152,-0.280675 -0.15361,-0.351005 0.33168,-0.402804 0.41145,-0.04392 0.78751,0.126287 1.25269,0.566959 0.37798,0.358062 0.92199,0.638737 1.26106,0.650629 0.33426,0.01172 0.82821,0.262599 1.12397,0.57086 0.29021,0.302469 0.62679,0.563872 0.74797,0.580895 0.12117,0.01702 0.32762,0.204745 0.45878,0.41716 0.13664,0.221294 0.42527,0.354574 0.67594,0.312123 0.27253,-0.04615 0.7055,0.197065 1.14839,0.645097 0.39101,0.395552 0.86721,0.683112 1.05823,0.639025 0.19101,-0.04409 0.6664,0.208761 1.05641,0.561888 0.39002,0.353126 1.08463,0.832691 1.54358,1.0657 0.45895,0.233009 1.15439,0.743397 1.54542,1.134196 0.39103,0.390799 0.85549,0.68179 1.03213,0.646647 0.17664,-0.03514 0.56471,0.170589 0.86238,0.457181 0.29768,0.286592 0.87918,0.712607 1.29222,0.946707 0.41305,0.2341 1.06612,0.76312 1.45129,1.1756 0.38516,0.41248 0.87965,0.77516 1.09887,0.80596 0.21922,0.0308 1.00218,0.55297 1.73991,1.16038 0.73774,0.60741 1.79611,1.43461 2.35194,1.83821 1.22333,0.88831 1.5913,1.18478 2.69926,2.17483 0.4713,0.42114 1.00658,0.78673 1.18951,0.81243 0.18292,0.0257 0.44901,0.23639 0.59131,0.4682 0.1423,0.23181 0.64198,0.66148 1.11041,0.95483 0.46842,0.29335 0.95086,0.76116 1.07209,1.03957 0.12123,0.27842 0.41149,0.53306 0.64502,0.56587 0.23352,0.0328 0.53496,0.23839 0.66985,0.45686 0.13489,0.21846 0.50439,0.58096 0.8211,0.80554 0.31671,0.22459 1.29816,1.08375 2.18101,1.90927 0.88284,0.82551 1.91481,1.78051 2.29326,2.12223 0.37845,0.34173 0.8308,0.832 1.00521,1.0895 0.17441,0.2575 0.58349,0.65987 0.90907,0.89416 0.32558,0.23429 1.51494,1.41456 2.64302,2.62283 1.12809,1.20827 2.55464,2.69348 3.17012,3.30046 0.61548,0.60699 1.27147,1.31958 1.45775,1.58355 0.722,1.0231 1.64863,2.6879 1.61789,2.90674 -0.0177,0.12632 0.18063,0.5693 0.44084,0.9844 0.26021,0.41509 0.44529,0.95271 0.4113,1.19471 -0.034,0.242 0.004,0.63019 0.0834,0.86265 0.58979,1.71619 0.6617,2.58059 0.23652,2.84312 -0.29346,0.1812 -0.41794,0.0317 -0.67897,-0.81555 z M 76.100573,101.63028 c -0.429685,-0.57014 -0.193645,-0.67573 1.1247,-0.50312 2.579566,0.33776 4.781961,0.30621 5.533642,-0.0793 0.3996,-0.20492 1.194745,-0.37452 1.766989,-0.37689 0.572244,-0.002 1.290733,-0.18098 1.596644,-0.3969 0.636752,-0.449425 2.475408,-0.538104 2.416183,-0.11653 -0.02041,0.14532 -0.224882,0.30222 -0.454374,0.34867 -0.229491,0.0465 -0.655355,0.24436 -0.946363,0.43981 -0.291008,0.19544 -0.934858,0.32633 -1.43078,0.29087 -0.57188,-0.0409 -1.340698,0.1553 -2.101993,0.53642 -1.133019,0.56722 -1.220925,0.57623 -1.567804,0.16076 -0.345729,-0.4141 -0.386411,-0.41425 -0.6872,-0.003 -0.350506,0.47976 -1.212833,0.47335 -1.578404,-0.0117 -0.176088,-0.23365 -0.340387,-0.2297 -0.703995,0.0169 -0.561604,0.38092 -2.608523,0.16949 -2.967245,-0.3065 z m -2.259685,-0.73442 c -0.16748,-0.45622 -0.108933,-0.47861 0.886136,-0.33882 1.051075,0.14766 1.059049,0.15503 0.590466,0.54626 -0.261249,0.21811 -0.66001,0.37058 -0.886136,0.33882 -0.226126,-0.0318 -0.491836,-0.27759 -0.590466,-0.54626 z m -2.28954,-1.016601 c -0.191039,-0.281656 -0.574549,-0.54402 -0.852244,-0.583031 -0.277695,-0.03901 -0.61577,-0.25049 -0.751278,-0.469953 -0.135508,-0.219462 -0.619435,-0.660488 -1.075394,-0.980058 -0.455958,-0.319572 -0.852377,-0.781165 -0.88093,-1.025766 -0.02855,-0.244599 -0.224028,-0.527209 -0.434389,-0.628022 -0.496054,-0.237728 -2.537476,-4.371327 -2.607186,-5.279192 -0.03763,-0.490031 0.06309,-0.769921 0.338174,-0.939771 0.330667,-0.204172 0.381968,-0.172194 0.328972,0.205052 -0.03453,0.245821 0.107646,0.651084 0.315954,0.900585 0.208309,0.249501 0.407505,0.723099 0.442658,1.052439 0.06004,0.562519 0.825211,2.053223 1.60547,3.127786 0.190715,0.262649 0.272042,0.567493 0.180728,0.677425 -0.09132,0.109933 -0.05095,0.216047 0.08971,0.235806 0.140654,0.01976 0.554895,0.338563 0.920537,0.708452 0.365641,0.369889 0.779339,0.688616 0.919329,0.708282 0.13999,0.01967 0.333488,0.250853 0.429996,0.513745 0.09919,0.270191 0.519108,0.593781 0.965934,0.744345 0.998802,0.336561 1.948692,1.402227 1.369122,1.535997 -0.64082,0.14791 -0.94174,0.0317 -1.305159,-0.504121 z m 17.509382,0.351161 c -0.374282,-0.496633 0.533607,-1.025708 1.914658,-1.115772 0.706353,-0.04606 1.580254,-0.244323 1.942004,-0.440573 0.36175,-0.196249 1.313601,-0.357376 2.115222,-0.358056 0.801624,-6.8e-4 1.667073,-0.143387 1.923223,-0.317127 0.256151,-0.17374 0.904292,-0.313156 1.440316,-0.309812 1.303913,0.0081 1.091522,0.432003 -0.520652,1.039076 -1.072447,0.403835 -1.245123,0.411552 -1.540564,0.06885 -0.295941,-0.343284 -0.368088,-0.337574 -0.652451,0.05165 -0.178031,0.243681 -0.54545,0.405897 -0.829101,0.366049 -0.280161,-0.03936 -0.748858,0.05052 -1.041548,0.199728 -0.292691,0.14921 -0.937671,0.251105 -1.433289,0.226433 -0.495617,-0.02467 -1.338394,0.170309 -1.872838,0.433284 -1.102842,0.54267 -1.149934,0.54776 -1.44498,0.15627 z m 10.662386,-2.184826 c -0.152556,-0.41557 -0.108934,-0.478609 0.292204,-0.422256 0.25934,0.03643 0.78495,-0.103789 1.16801,-0.311604 0.76139,-0.413055 3.33953,-0.452699 3.28303,-0.05049 -0.0547,0.389571 -0.76698,0.708087 -1.13161,0.50605 -0.18972,-0.105123 -0.66067,-0.02674 -1.04773,0.174376 -0.38671,0.200933 -0.9113,0.336083 -1.16576,0.300336 -0.25446,-0.03575 -0.54019,0.02836 -0.63496,0.142451 -0.27037,0.325497 -0.567773,0.193447 -0.763184,-0.338867 z m 84.727594,12.032386 c -0.12409,-0.20097 -0.36895,-0.33232 -0.54414,-0.29189 -0.17518,0.0404 -0.72311,-0.19717 -1.21762,-0.52802 -0.5424,-0.36289 -1.11962,-0.578 -1.45493,-0.54221 -0.56024,0.0598 -1.18041,-0.3988 -1.12008,-0.82826 0.021,-0.14972 0.58598,-0.1011 1.59308,0.13709 1.56913,0.37112 2.66354,0.89353 2.61379,1.24767 -0.0147,0.10489 0.34684,0.2432 0.80351,0.30735 0.81591,0.11462 0.82207,0.12352 0.3553,0.51322 -0.56529,0.47196 -0.72974,0.46958 -1.02891,-0.0149 z M 105.0733,97.291461 c -0.0456,-0.197518 0.0336,-0.342756 0.17606,-0.322747 0.14242,0.02001 0.45385,-0.09582 0.69208,-0.257405 0.58653,-0.397828 2.92592,-0.356745 2.7248,0.04785 -0.15123,0.304233 -0.29161,0.365255 -1.75406,0.762522 -1.13659,0.308751 -1.73167,0.234249 -1.83888,-0.230222 z m 72.32718,10.123629 c -1.26902,-0.80119 -1.3527,-0.87217 -1.41281,-1.19841 -0.0832,-0.45141 2.0485,0.13275 2.86753,0.78582 1.18993,0.94881 -0.0489,1.30016 -1.45472,0.41259 z M 109.92901,96.997077 c -0.33613,-0.444338 -0.32303,-0.463328 0.3328,-0.482463 0.37548,-0.01095 0.97793,-0.165109 1.33878,-0.342563 0.7311,-0.359532 4.63201,-0.217718 4.57805,0.166428 -0.0913,0.64955 -1.44321,0.825679 -2.09403,0.272803 -0.18785,-0.159579 -0.58682,-0.09298 -1.17549,0.196235 -0.49011,0.240795 -1.10742,0.377973 -1.3718,0.304843 -0.26437,-0.07313 -0.65567,-0.02491 -0.86955,0.107147 -0.32016,0.19769 -0.45069,0.158391 -0.73876,-0.22243 z m 63.19112,8.908253 c -0.13338,-0.5779 -0.13156,-0.57867 0.99631,-0.42022 l 1.05702,0.14849 -0.58768,0.38075 c -0.70601,0.4574 -1.3459,0.4098 -1.46565,-0.10902 z m -1.69877,-0.45136 c -0.28727,-0.22244 -0.73137,-0.4375 -0.98688,-0.47791 -0.48786,-0.0772 -0.95411,-0.5463 -0.90319,-0.90879 0.0386,-0.27498 2.30987,0.28049 2.89509,0.70804 0.35809,0.26162 0.38444,0.39935 0.14034,0.73347 -0.35397,0.48449 -0.45513,0.47965 -1.14536,-0.0548 z m -4.60705,-1.50432 c -0.43538,-0.57771 -0.18797,-0.67504 1.21498,-0.47795 1.38384,0.19441 1.39334,0.20051 0.92323,0.59301 -0.53189,0.44407 -1.76691,0.37761 -2.13821,-0.11506 z m -49.12344,-7.243268 c -0.30629,-0.40641 -0.26188,-0.453524 0.69041,-0.732444 0.55977,-0.163952 1.7791,-0.25079 2.70962,-0.192973 l 1.69186,0.105123 -0.34592,0.47347 c -0.27236,0.372794 -0.48982,0.43126 -1.0227,0.274966 -0.38001,-0.111459 -1.06141,-0.07756 -1.55391,0.0773 -1.46722,0.461357 -1.81822,0.460476 -2.16936,-0.0054 z m 45.71789,6.420618 c -0.5358,-0.26723 -1.05111,-0.58234 -1.14514,-0.70024 -0.094,-0.1179 -0.51445,-0.20704 -0.93427,-0.19809 -0.62604,0.0133 -0.79989,-0.0834 -0.9667,-0.53778 l -0.20339,-0.55404 1.68379,0.3678 c 0.92609,0.20229 2.0812,0.6222 2.56692,0.93313 0.83193,0.53256 0.85674,0.583 0.42804,0.87021 -0.41063,0.27511 -0.55021,0.25743 -1.42925,-0.18098 z M 64.90412,89.270383 c -0.701142,-0.610877 0.155496,-6.86093 1.05865,-7.723928 0.784583,-0.7497 0.764843,0.389807 -0.04505,2.600685 -0.394683,1.07742 -0.46306,1.561934 -0.36865,2.612219 0.130577,1.45263 0.01309,2.782538 -0.242167,2.741348 -0.09345,-0.01498 -0.27469,-0.118723 -0.402781,-0.230324 z m 0.192019,-4.134821 c -0.02655,-0.22912 -0.09514,-0.110434 -0.152425,0.263745 -0.05729,0.374179 -0.03557,0.56164 0.04827,0.416581 0.08383,-0.145058 0.130704,-0.451205 0.104158,-0.680326 z m 60.123241,11.387755 -0.47353,-0.522122 1.2746,0.17906 c 1.2855,0.180591 1.48193,0.347794 0.91263,0.776838 -0.45555,0.343322 -1.17381,0.161514 -1.7137,-0.433776 z m 30.62776,4.291173 c -0.1759,-0.47918 -0.21443,-0.49 -0.66264,-0.18599 -0.44184,0.29968 -0.57584,0.28223 -1.87323,-0.24393 -0.76855,-0.3117 -1.80484,-0.623967 -2.30288,-0.693933 -0.86973,-0.122183 -1.4079,-0.508676 -1.34378,-0.965061 0.0456,-0.324846 4.2601,0.594719 5.36638,1.170914 0.5195,0.27057 1.40735,0.55696 1.973,0.63643 l 1.02846,0.14448 -0.58768,0.38074 c -0.75685,0.49034 -1.36206,0.39804 -1.59762,-0.24366 z M 128.0707,96.716576 c -0.32382,-0.477435 -0.30497,-0.497819 0.5722,-0.618459 1.26968,-0.174622 5.15766,0.124252 5.11983,0.39357 -0.0648,0.46137 -0.69224,0.67898 -1.59287,0.552456 -0.5174,-0.07269 -1.46393,-0.05042 -2.10341,0.04948 -1.49236,0.233136 -1.59503,0.213739 -1.99575,-0.377045 z m 13.14173,1.208637 c -0.29975,-0.107964 -0.72941,-0.368291 -0.9548,-0.578505 -0.35876,-0.334616 0.0412,-0.318848 3.21244,0.126658 3.48518,0.489609 3.59912,0.520627 3.01177,0.820059 -0.44981,0.229302 -1.15177,0.247628 -2.66743,0.06964 -1.13133,-0.132854 -2.30222,-0.329887 -2.60198,-0.437854 z M 66.534213,80.853654 c -0.234012,-0.312834 0.06638,-1.594889 0.415802,-1.774602 0.09729,-0.05004 0.441639,-0.470759 0.765224,-0.934937 0.323585,-0.464178 0.831025,-1.00845 1.127643,-1.209493 0.296619,-0.201042 0.551426,-0.451797 0.566238,-0.557233 0.03781,-0.269165 1.999476,-1.768345 2.265046,-1.731037 0.120199,0.01689 0.443534,-0.157271 0.718522,-0.387015 0.274988,-0.229745 0.938007,-0.567581 1.473375,-0.750747 0.535368,-0.183166 1.043234,-0.413807 1.128591,-0.512536 0.08536,-0.09873 0.572987,-0.149078 1.083621,-0.111886 0.584983,0.04261 1.260886,-0.119231 1.827163,-0.437497 1.021111,-0.573897 1.300507,-0.592359 1.415639,-0.09355 0.118874,0.515029 -0.991971,1.065926 -2.171439,1.076872 -0.560893,0.0052 -1.219239,0.175973 -1.462993,0.379483 -0.243753,0.20351 -0.720675,0.399636 -1.059827,0.435836 -0.339153,0.0362 -1.000099,0.317577 -1.468771,0.625282 -0.468672,0.307705 -0.995024,0.539389 -1.169672,0.514854 -0.174647,-0.02454 -0.414007,0.156681 -0.53191,0.402702 -0.117903,0.246022 -0.468493,0.52258 -0.779088,0.614575 -0.310596,0.092 -0.653476,0.385999 -0.761957,0.653341 -0.108481,0.267342 -0.475637,0.697841 -0.815902,0.956665 -0.340266,0.258824 -0.731229,0.715385 -0.868808,1.01458 -0.137578,0.299195 -0.461363,0.722806 -0.71952,0.941357 -0.258158,0.218552 -0.531114,0.577229 -0.606568,0.797061 -0.106831,0.311247 -0.188798,0.330704 -0.370409,0.08792 z m 13.240821,-8.601973 c 0.07345,-0.148942 0.35951,-0.347375 0.635678,-0.440961 0.276168,-0.09359 0.684061,-0.282496 0.906429,-0.419797 0.222368,-0.137303 0.547514,-0.170291 0.722545,-0.07331 0.175031,0.09698 0.396103,0.08259 0.49127,-0.03198 0.09517,-0.114571 0.339214,-0.158419 0.542327,-0.09744 0.203112,0.06098 0.840598,-0.105086 1.416634,-0.369034 1.179299,-0.540372 1.326414,-0.551543 1.647781,-0.125125 0.373498,0.49559 -1.08509,1.123195 -2.558082,1.100698 -0.732352,-0.01119 -1.343535,0.104063 -1.435901,0.270763 -0.311765,0.562662 -2.644791,0.746043 -2.368681,0.186184 z M 210.8862,90.626473 c -0.36715,-0.225125 -0.71662,-0.520982 -0.77659,-0.657461 -0.06,-0.136479 -0.60829,-0.38968 -1.21849,-0.562669 -0.61019,-0.172988 -1.3301,-0.544498 -1.59978,-0.825576 -0.26968,-0.281079 -0.59878,-0.526288 -0.73133,-0.544909 -0.13255,-0.01862 -0.16062,-0.17893 -0.0624,-0.356242 0.0982,-0.177311 0.3251,-0.301807 0.50413,-0.276657 0.4897,0.0688 1.94763,1.145919 2.02229,1.494082 0.0489,0.227966 0.14375,0.249748 0.37576,0.08629 0.23105,-0.162789 0.48387,-0.127271 0.98943,0.138998 1.11888,0.589301 2.34015,1.519531 2.39649,1.825388 0.0716,0.388849 -1.05111,0.198976 -1.89954,-0.321239 z M 86.690682,70.727348 c 0.15179,-0.305355 0.279132,-0.361094 1.808103,-0.791421 0.530617,-0.149342 1.158584,-0.335589 1.395483,-0.413883 0.259009,-0.0856 0.591228,-0.02509 0.833317,0.151778 0.272541,0.199117 0.4592,0.225981 0.577831,0.08317 0.538646,-0.648473 2.798692,-0.936114 2.709206,-0.344806 -0.05837,0.385679 -1.769934,0.916991 -2.904934,0.901761 -0.734891,-0.0099 -1.49434,0.13629 -1.799147,0.346235 -0.654843,0.451043 -2.838511,0.507034 -2.61986,0.06718 z M 204.10737,87.15183 c -0.28925,-0.208366 -0.71418,-0.522746 -0.94429,-0.698622 -0.23011,-0.175876 -1.05729,-0.516493 -1.83818,-0.756928 -0.78089,-0.240435 -1.57012,-0.6172 -1.75384,-0.837257 -0.18373,-0.220057 -0.4663,-0.418682 -0.62794,-0.44139 -0.23548,-0.03308 -0.22817,-0.101116 0.0368,-0.342312 0.18187,-0.165564 0.42599,-0.287635 0.54249,-0.271269 0.47289,0.06643 2.12891,1.271344 2.20593,1.605017 0.0714,0.309196 0.14904,0.313027 0.56916,0.02807 0.37297,-0.252976 0.54012,-0.25886 0.71621,-0.02521 0.12633,0.167628 0.40541,0.329464 0.62018,0.359636 0.21478,0.03017 0.70706,0.273265 1.09396,0.540207 0.38691,0.266941 0.84134,0.572778 1.00986,0.679636 0.16852,0.106859 0.32963,0.32041 0.35803,0.474558 0.0712,0.386369 -1.32132,0.166372 -1.98835,-0.314134 z M 94.766519,69.311481 c 0.07835,-0.157612 0.299399,-0.334884 0.491226,-0.393937 0.191826,-0.05905 0.755215,-0.236882 1.251975,-0.395173 0.716021,-0.228159 0.96375,-0.221292 1.195369,0.03314 0.236223,0.259488 0.352843,0.237888 0.609057,-0.112805 0.378874,-0.51858 0.834742,-0.497132 1.175858,0.05532 0.226448,0.366744 0.281173,0.370347 0.602426,0.03967 0.19435,-0.200046 0.92177,-0.515788 1.6165,-0.701649 1.18113,-0.315986 1.28693,-0.309615 1.6294,0.09813 0.35603,0.42389 0.3541,0.437663 -0.0693,0.493475 -0.23957,0.03158 -0.76583,0.182134 -1.16947,0.334567 -0.40364,0.152433 -1.45832,0.253193 -2.343727,0.223912 -1.01862,-0.03369 -1.855196,0.07987 -2.277944,0.309213 -0.816857,0.443147 -2.929866,0.455723 -2.71135,0.01614 z M 195.60458,83.173099 c -0.59355,-0.431188 -1.53271,-0.819472 -2.60511,-1.07705 -0.98969,-0.237712 -1.9596,-0.625764 -2.36663,-0.946862 -0.37933,-0.299243 -0.8497,-0.566557 -1.04527,-0.594031 -0.29032,-0.04078 -0.29489,-0.105206 -0.0249,-0.35098 0.18187,-0.165564 0.50961,-0.275887 0.72832,-0.245163 0.6267,0.08804 2.33968,1.230945 2.51285,1.676582 0.14535,0.374031 0.1889,0.379588 0.5923,0.07557 0.53799,-0.405448 0.95695,-0.361221 1.26226,0.133249 0.14541,0.235492 0.44014,0.355966 0.78168,0.319512 0.3244,-0.03463 0.73865,0.119062 1.01459,0.376425 0.25648,0.23922 0.67871,0.46478 0.93828,0.501246 0.47413,0.06661 0.96263,0.530979 0.91503,0.869834 -0.0542,0.385941 -1.81939,-0.09615 -2.70339,-0.73833 z M 104.40277,67.922124 c 0.21431,-0.293345 0.51271,-0.413289 0.8269,-0.332383 0.27038,0.06962 0.89236,-0.01104 1.3822,-0.179258 0.8708,-0.299042 1.60648,-0.154925 1.54227,0.302128 -0.0641,0.45626 -1.21343,0.770314 -2.63474,0.71994 -1.44,-0.05104 -1.44919,-0.05524 -1.11663,-0.510427 z m 81.42533,11.6577 c -0.93884,-0.371625 -1.57529,-0.964016 -1.3917,-1.295352 0.22185,-0.40039 0.88446,-0.256059 1.70858,0.372169 0.41114,0.313414 0.95507,0.525019 1.30513,0.507742 0.44385,-0.02191 0.64925,0.103973 0.78847,0.483218 0.17812,0.485218 0.13601,0.504221 -0.78194,0.35283 -0.53361,-0.08801 -1.26645,-0.277278 -1.62854,-0.420607 z M 108.63227,67.607069 c 0.0444,-0.316105 0.63218,-0.652479 1.04001,-0.595186 0.21597,0.03034 0.54377,0.255651 0.72844,0.500691 0.31752,0.421311 0.35782,0.420677 0.7414,-0.01167 0.2231,-0.251459 0.60122,-0.429722 0.84026,-0.39614 0.23904,0.03358 0.70488,-0.06633 1.03519,-0.222021 0.33031,-0.155693 0.7021,-0.198731 0.82621,-0.09564 0.12412,0.103091 0.3981,0.08096 0.60886,-0.04917 0.31517,-0.194598 0.45835,-0.136893 0.80646,0.325004 l 0.42326,0.561613 -0.65731,-0.09234 c -0.36152,-0.05079 -0.84525,0.03513 -1.07494,0.190925 -0.66179,0.448873 -5.38273,0.34584 -5.31784,-0.116059 z m 72.95972,9.97162 c 0.65588,-0.424924 1.667,-0.375431 2.02462,0.0991 0.43537,0.577682 0.188,0.675039 -1.21453,0.478007 l -1.39777,-0.196364 z m -3.25116,-0.460571 c -0.33676,-0.154926 -0.71944,-0.398991 -0.85042,-0.542366 -0.13097,-0.143375 -0.51985,-0.335543 -0.86416,-0.427039 -0.58245,-0.154778 -0.59848,-0.194523 -0.23027,-0.570992 0.37571,-0.38414 0.41487,-0.381732 0.77329,0.04756 0.254,0.304237 0.46309,0.387711 0.63902,0.25512 0.17593,-0.132591 0.51651,-0.04581 1.04091,0.265219 0.42868,0.254259 0.98355,0.490968 1.23306,0.526019 0.2495,0.03505 0.53434,0.283554 0.63297,0.552228 0.16678,0.454324 0.11142,0.477565 -0.7914,0.332217 -0.53389,-0.08595 -1.24624,-0.283039 -1.583,-0.437965 z M 116.9996,67.408989 c 0.066,-0.469526 0.79651,-0.703121 1.46574,-0.468673 0.36892,0.129245 0.85856,0.166737 1.08807,0.08332 0.22951,-0.08342 0.86938,-0.24965 1.42193,-0.369397 0.92486,-0.200435 1.03098,-0.182752 1.33655,0.222697 0.31238,0.414503 0.27323,0.456763 -0.66533,0.718175 -1.14998,0.320298 -4.69814,0.178188 -4.64696,-0.186118 z m 53.14041,7.399017 c -0.56307,-0.178525 -1.27763,-0.506673 -1.58791,-0.729218 -0.54945,-0.394074 -0.55153,-0.413193 -0.0799,-0.733075 0.44483,-0.30172 0.55244,-0.28985 1.32238,0.145873 0.46098,0.260877 0.99446,0.592876 1.18552,0.737776 0.19105,0.1449 0.72192,0.255473 1.17969,0.245718 0.80217,-0.01709 1.4744,0.386641 1.40977,0.846692 -0.0332,0.236604 -1.98511,-0.0558 -3.42954,-0.513766 z m -46.39067,-7.625427 c 0.11346,-0.807669 2.1299,-0.704916 3.10508,0.158229 l 0.61811,0.547085 -1.87436,-0.261789 c -1.0309,-0.143984 -1.86287,-0.34357 -1.84883,-0.443525 z m 40.13372,5.360124 c 1.19982,-0.572766 3.37055,-0.08247 3.25566,0.735349 -0.014,0.09995 -0.91991,0.0554 -2.01305,-0.099 l -1.98752,-0.28074 z m -35.56072,-4.932625 c 0.0598,-0.425773 0.73211,-0.673009 1.5019,-0.552322 0.41781,0.06551 1.58168,0.12077 2.58637,0.122811 1.53756,0.0031 1.87216,0.06401 2.11382,0.384671 0.25264,0.335224 0.13939,0.391568 -0.94329,0.46932 -1.85144,0.132961 -5.29803,-0.145241 -5.2588,-0.42448 z m 31.00601,4.374903 c -0.36876,-0.09586 -1.20324,-0.364029 -1.8544,-0.595935 -1.00782,-0.358926 -1.13064,-0.461813 -0.82565,-0.691663 0.56312,-0.424395 5.57718,0.830791 5.80573,1.453368 0.15029,0.409396 0.0566,0.427968 -1.14577,0.227181 -0.72019,-0.120265 -1.61115,-0.297092 -1.97991,-0.392951 z m -23.77968,-4.28366 c 0.35091,-0.0038 0.91315,0.07521 1.24944,0.175524 0.33628,0.10032 0.0492,0.103413 -0.63802,0.0069 -0.68718,-0.09654 -0.96232,-0.178618 -0.61142,-0.182399 z m 18.85824,2.648955 c 0.35265,-0.0037 0.86358,0.0695 1.13541,0.162668 0.27183,0.09317 -0.0167,0.0962 -0.64117,0.0067 -0.62448,-0.08947 -0.84689,-0.165699 -0.49424,-0.169405 z m -18.67846,-3.084922 c 0.29021,-0.01464 0.69882,0.04487 0.90803,0.132238 0.20921,0.08737 -0.0282,0.09935 -0.52766,0.02662 -0.49942,-0.07273 -0.67059,-0.144216 -0.38037,-0.158856 z m 18.96543,2.668477 c 0.22668,-0.02642 0.58447,0.02384 0.7951,0.111697 0.21062,0.08786 0.0252,0.109475 -0.41215,0.04804 -0.4373,-0.06143 -0.60963,-0.133316 -0.38295,-0.159739 z"
         id="path7222" />
    </g>
  </g>
</svg>
