<?xml version="1.0" encoding="UTF-8" standalone="no"?>
<!-- Created with Inkscape (http://www.inkscape.org/) -->

<svg
   version="1.1"
   id="svg2"
   width="300"
   height="300"
   viewBox="0 0 300 300"
   sodipodi:docname="taskmanager2.svg"
   inkscape:version="1.1.2 (0a00cf5339, 2022-02-04)"
   inkscape:export-filename="/home/tux/.icons/Moonless Night/taskmanager2.png"
   inkscape:export-xdpi="127"
   inkscape:export-ydpi="127"
   xmlns:inkscape="http://www.inkscape.org/namespaces/inkscape"
   xmlns:sodipodi="http://sodipodi.sourceforge.net/DTD/sodipodi-0.dtd"
   xmlns="http://www.w3.org/2000/svg"
   xmlns:svg="http://www.w3.org/2000/svg">
  <defs
     id="defs6">
    <style
       id="style3231">.cls-1{fill:#2d3e50;}.cls-2{fill:#2e79bd;}</style>
  </defs>
  <sodipodi:namedview
     id="namedview4"
     pagecolor="#ffffff"
     bordercolor="#666666"
     borderopacity="1.0"
     inkscape:pageshadow="2"
     inkscape:pageopacity="0.0"
     inkscape:pagecheckerboard="0"
     showgrid="false"
     inkscape:zoom="0.73546996"
     inkscape:cx="271.25513"
     inkscape:cy="344.67757"
     inkscape:window-width="1920"
     inkscape:window-height="987"
     inkscape:window-x="0"
     inkscape:window-y="0"
     inkscape:window-maximized="1"
     inkscape:current-layer="g8"
     showguides="true"
     inkscape:guide-bbox="true" />
  <g
     inkscape:groupmode="layer"
     inkscape:label="Image"
     id="g8">
    <circle
       style="fill:#000000;fill-opacity:1;stroke:#ffffff;stroke-width:9.877;stroke-miterlimit:4;stroke-dasharray:none;stroke-opacity:1"
       id="path851"
       cx="149.86972"
       cy="150.41068"
       r="142.94501" />
    <path
       style="fill:#ffffff;stroke-width:1.03311"
       d="m 108.62941,234.70869 c -0.2521,-0.42616 -0.78488,-2.74823 -1.18398,-5.16016 -0.39909,-2.41193 -1.15007,-4.64765 -1.66884,-4.96826 -0.51878,-0.32062 -0.94322,-1.50991 -0.94322,-2.64288 0,-1.13297 -1.13186,-6.10323 -2.51524,-11.04502 -4.508054,-16.10392 -9.021639,-34.56587 -11.50504,-47.0591 -1.338854,-6.7354 -2.874517,-12.77912 -3.412584,-13.4305 -0.538067,-0.65137 -1.313554,-3.04392 -1.723298,-5.31678 -0.409743,-2.27285 -1.194084,-5.00027 -1.742978,-6.06094 -1.728514,-3.34014 -4.066639,0.44138 -6.118776,9.89611 -1.022133,4.70922 -2.613481,12.04897 -3.536331,16.31057 -2.699694,12.46671 -0.945631,11.82911 -33.525895,12.18653 l -27.86707,0.30571 v -3.53497 -3.53498 l 21.64243,-0.43685 c 24.447647,-0.49348 24.912601,-0.64011 26.78727,-8.44765 1.070152,-4.4569 3.466626,-12.01298 5.782828,-18.2332 0.740547,-1.98874 2.592529,-7.56756 4.115537,-12.39737 1.522997,-4.82981 3.434176,-10.24645 4.247072,-12.03696 0.812886,-1.79051 1.477974,-3.71907 1.477974,-4.28568 0,-2.54909 6.596138,-18.802501 7.627992,-18.795982 1.316973,0.0083 7.543535,22.453332 8.940048,32.226412 0.511484,3.57947 1.931418,10.22732 3.155401,14.77303 1.223993,4.5457 3.79194,14.77354 5.70655,22.72852 3.95235,16.42148 6.85051,25.57705 8.23331,26.00979 1.45848,0.45642 9.72752,-20.1851 9.72752,-24.28223 0,-0.86067 0.63084,-2.29882 1.40186,-3.19589 0.77103,-0.89706 1.89226,-3.49062 2.49162,-5.76347 0.59936,-2.27286 2.33716,-7.38677 3.86179,-11.36427 1.52462,-3.97749 3.22262,-8.77153 3.77331,-10.65343 0.5507,-1.8819 1.46713,-3.26635 2.03653,-3.07656 1.08056,0.36019 4.9866,7.30256 10.05007,17.86245 1.63475,3.40928 3.92487,8.0583 5.08915,10.33115 1.16427,2.27285 3.84648,7.73545 5.96045,12.1391 2.11396,4.40365 4.36099,7.98378 4.99341,7.95586 0.63241,-0.0279 6.72058,-5.34869 13.52925,-11.82393 l 12.37941,-11.77314 50.64059,0.60098 c 27.85232,0.33054 50.71096,0.65362 50.79696,0.71794 0.0861,0.0644 0.48885,3.25505 0.8952,7.09048 l 0.7388,6.97353 h -50.682 c -32.38367,0 -50.91056,0.36982 -51.31507,1.02432 -1.80386,2.91871 -26.69374,24.80252 -28.20265,24.79649 -1.90983,-0.007 -5.74495,-5.13445 -6.95015,-9.29098 -0.41188,-1.42053 -4.04609,-9.22247 -8.076,-17.33762 -7.74145,-15.58917 -9.60064,-17.33435 -11.24441,-10.55489 -0.48199,1.98788 -1.32079,4.54412 -1.86399,5.68055 -1.08471,2.26929 -6.50886,21.00956 -10.76484,37.19213 -4.09123,15.55613 -8.94703,30.47688 -9.9184,30.47688 -0.47476,0 -1.06948,-0.34868 -1.32157,-0.77484 z"
       id="path2291" />
  </g>
</svg>
