<?xml version="1.0" encoding="UTF-8" standalone="no"?>
<!-- Created with Inkscape (http://www.inkscape.org/) -->

<svg
   version="1.1"
   id="svg2"
   width="300"
   height="300"
   viewBox="0 0 300 300"
   sodipodi:docname="ubuntu.svg"
   inkscape:version="1.1.2 (0a00cf5339, 2022-02-04)"
   inkscape:export-filename="/home/tux/.icons/Moonless Night/ubuntu.png"
   inkscape:export-xdpi="127"
   inkscape:export-ydpi="127"
   xmlns:inkscape="http://www.inkscape.org/namespaces/inkscape"
   xmlns:sodipodi="http://sodipodi.sourceforge.net/DTD/sodipodi-0.dtd"
   xmlns="http://www.w3.org/2000/svg"
   xmlns:svg="http://www.w3.org/2000/svg">
  <defs
     id="defs6">
    <style
       id="style3231">.cls-1{fill:#2d3e50;}.cls-2{fill:#2e79bd;}</style>
  </defs>
  <sodipodi:namedview
     id="namedview4"
     pagecolor="#ffffff"
     bordercolor="#666666"
     borderopacity="1.0"
     inkscape:pageshadow="2"
     inkscape:pageopacity="0.0"
     inkscape:pagecheckerboard="0"
     showgrid="false"
     inkscape:zoom="0.73546996"
     inkscape:cx="271.25513"
     inkscape:cy="344.67757"
     inkscape:window-width="1920"
     inkscape:window-height="987"
     inkscape:window-x="0"
     inkscape:window-y="0"
     inkscape:window-maximized="1"
     inkscape:current-layer="g8"
     showguides="true"
     inkscape:guide-bbox="true" />
  <g
     inkscape:groupmode="layer"
     inkscape:label="Image"
     id="g8">
    <circle
       style="fill:#000000;fill-opacity:1;stroke:#ffffff;stroke-width:9.877;stroke-miterlimit:4;stroke-dasharray:none;stroke-opacity:1"
       id="path851"
       cx="149.86972"
       cy="150.41068"
       r="142.94501" />
    <path
       style="fill:#ffffff;stroke-width:0.0789707"
       d="m 194.46747,245.66114 c -4.35327,-0.34493 -8.19108,-1.80722 -11.41675,-4.35 -0.93066,-0.73363 -2.52024,-2.36724 -3.24077,-3.33054 -2.0914,-2.79599 -3.24868,-5.84753 -3.51924,-9.27952 -0.28575,-3.62461 0.72053,-7.48088 2.77248,-10.6247 2.8445,-4.35808 7.5018,-7.4184 12.75877,-8.38383 5.9434,-1.09147 11.80606,0.32599 16.47962,3.9844 1.51185,1.18346 3.34174,3.27161 4.32337,4.93357 2.49395,4.22234 3.12249,9.10354 1.76965,13.74294 -1.53026,5.24782 -5.67301,9.67156 -11.09965,11.85249 -1.57297,0.63216 -3.06249,1.00371 -5.47123,1.36472 -0.77164,0.11566 -2.463,0.16125 -3.35625,0.0905 z m -47.3033,-17.50035 c -3.55076,-0.18954 -5.60611,-0.36847 -8.1334,-0.70806 -6.82999,-0.91776 -13.70275,-2.76841 -20.05807,-5.40112 -2.13677,-0.88516 -2.5522,-1.09041 -2.4972,-1.23374 0.0754,-0.1964 16.07777,-26.9899 16.18586,-27.10069 0.0768,-0.0787 0.31987,-0.0172 1.19909,0.30293 3.66854,1.33603 7.58848,2.21185 11.83281,2.64378 1.69139,0.17213 5.59679,0.23425 7.43319,0.11825 4.37099,-0.27613 8.37269,-1.04676 12.39835,-2.38764 13.19889,-4.39631 23.81447,-14.39301 28.74575,-27.06986 1.06734,-2.74385 1.75477,-5.26383 2.4244,-8.88752 l 0.10215,-0.5528 16.2951,-0.0199 16.29508,-0.0199 -0.0468,0.37529 c -0.0258,0.20642 -0.0835,0.76621 -0.1283,1.24398 -0.14373,1.53401 -0.62756,4.68272 -1.02535,6.673 -2.42849,12.15056 -7.86488,23.50124 -15.90447,33.20708 -1.48945,1.79815 -4.0786,4.61977 -4.23914,4.61977 -0.034,0 -0.53487,-0.20939 -1.1131,-0.46532 -6.64736,-2.94221 -14.352,-3.13812 -21.22827,-0.53979 -1.25994,0.4761 -3.73346,1.70636 -4.8815,2.42794 -6.05935,3.80849 -10.27863,9.76177 -11.80845,16.6614 -0.24197,1.09129 -0.42902,2.33371 -0.4983,3.30962 -0.0288,0.40592 -0.0926,0.75274 -0.14675,0.79767 -0.10706,0.0889 -2.62625,0.6098 -4.38187,0.90614 -2.46688,0.4164 -5.72719,0.79502 -8.52881,0.99045 -1.19654,0.0835 -7.27393,0.16342 -8.2919,0.10909 z m -42.76367,-14.0715 c -1.86372,-1.32566 -2.44718,-1.75154 -3.42793,-2.50209 -5.198727,-3.97856 -10.299544,-9.03867 -14.28207,-14.16812 -5.149803,-6.63289 -9.129798,-13.97197 -11.808666,-21.77509 -0.240218,-0.69972 -0.491098,-1.45518 -0.557506,-1.67882 l -0.120747,-0.40659 0.686936,-0.46218 c 3.757842,-2.52831 6.914183,-6.07161 8.918528,-10.01191 1.5075,-2.96357 2.334053,-5.74352 2.72014,-9.14868 0.139718,-1.23227 0.11604,-4.18009 -0.04408,-5.48565 -0.508572,-4.14714 -1.911488,-7.95077 -4.193948,-11.37079 -1.760537,-2.63797 -4.199003,-5.14631 -6.743436,-6.93669 -0.537553,-0.37824 -1.06155,-0.75879 -1.164443,-0.84566 l -0.187065,-0.15793 0.514452,-1.5226 c 3.221329,-9.53394 8.327665,-18.34909 15.036616,-25.95796 4.120982,-4.673756 9.356439,-9.335512 14.243249,-12.68249 0.70318,-0.481603 0.86567,-0.563234 0.92818,-0.466305 0.44974,0.69732 16.0529,26.890535 16.07978,26.993315 0.0269,0.10298 -0.26803,0.38793 -1.1334,1.0949 -2.07923,1.69871 -3.77372,3.33224 -5.53957,5.34033 -12.86745,14.63254 -14.8391,35.5063 -4.92445,52.13499 2.74132,4.59767 6.59814,9.02338 10.73545,12.31894 0.48863,0.38922 0.88842,0.74836 0.88842,0.7981 0,0.15368 -16.10423,27.07755 -16.21011,27.10087 -0.0548,0.012 -0.24125,-0.0788 -0.41435,-0.20189 z M 57.888075,169.56172 c -4.241366,-0.35203 -8.055163,-1.83256 -11.253291,-4.36857 -0.725722,-0.57548 -2.218253,-2.06128 -2.820202,-2.80751 -2.16871,-2.68848 -3.546027,-6.02681 -3.888781,-9.42559 -0.350645,-3.47699 0.514325,-7.27573 2.363527,-10.38005 3.095344,-5.19629 8.67333,-8.66433 14.956838,-9.2992 1.368708,-0.1383 4.160737,-0.0574 5.41418,0.15682 6.95718,1.18915 12.558692,5.5758 14.96762,11.72143 0.849057,2.16609 1.191233,4.20873 1.125675,6.71965 -0.07002,2.68178 -0.55861,4.67177 -1.745967,7.11121 -2.720331,5.58894 -8.401876,9.55366 -14.939612,10.42526 -0.927604,0.12366 -3.407951,0.21062 -4.179987,0.14655 z M 196.8013,144.79497 c -0.0167,-0.0543 -0.1263,-0.64953 -0.24359,-1.32276 -0.27671,-1.58819 -0.93824,-4.19905 -1.4807,-5.84381 -4.38747,-13.30302 -14.89101,-23.98264 -28.40714,-28.88335 -3.79169,-1.3748 -7.63743,-2.23401 -11.94349,-2.6684 -1.70124,-0.17162 -5.53937,-0.23626 -7.32529,-0.12338 -4.69688,0.29688 -9.12159,1.19136 -13.33224,2.69517 -1.02915,0.36757 -1.33294,0.44806 -1.40281,0.37168 -0.18025,-0.19696 -16.1424,-27.010559 -16.1424,-27.116368 0,-0.118279 0.27675,-0.25206 2.09271,-1.01157 7.82222,-3.27157 16.05706,-5.290243 24.48084,-6.001173 2.49619,-0.210674 4.27371,-0.280932 7.10734,-0.280932 4.63213,0 8.30855,0.275185 12.71425,0.951662 1.9297,0.296301 5.22075,0.942509 5.37027,1.054471 0.0811,0.06076 0.1519,0.435796 0.23779,1.260223 0.94337,9.055112 6.56597,16.92494 14.98586,20.975372 2.8123,1.352875 5.48116,2.140695 8.74359,2.581005 1.49604,0.20191 5.27436,0.20069 6.75198,-0.002 3.1927,-0.43834 6.46146,-1.38384 8.66244,-2.505622 0.16037,-0.08173 0.33945,-0.130234 0.39796,-0.107781 0.18931,0.07264 2.52112,2.622523 3.89717,4.261613 9.61858,11.45727 15.5457,25.22501 17.20268,39.95903 0.0684,0.60808 0.14346,1.27439 0.16684,1.4807 l 0.0425,0.37511 h -16.27311 c -12.94966,0 -16.27931,-0.0202 -16.30345,-0.0987 z m -2.64971,-51.357199 c -0.15202,-0.01763 -0.614,-0.07036 -1.02662,-0.117131 -3.54354,-0.401647 -7.15241,-1.883009 -9.97833,-4.095877 -0.90201,-0.706326 -2.42874,-2.207699 -3.09707,-3.045605 -2.75749,-3.457189 -4.17015,-7.926411 -3.83784,-12.141708 0.3304,-4.190986 2.00627,-7.898816 4.94908,-10.949709 1.09666,-1.136939 1.971,-1.868078 3.2528,-2.720052 6.38268,-4.242355 14.90777,-4.476719 21.55349,-0.592524 4.57565,2.674307 7.85136,7.126264 8.82355,11.991888 0.27066,1.354622 0.32213,1.910263 0.32196,3.474695 0,2.17062 -0.24007,3.651544 -0.91402,5.644352 -0.32287,0.954712 -1.28455,2.908671 -1.88148,3.822784 -3.005,4.601792 -7.89966,7.672494 -13.62472,8.547567 -0.97811,0.149505 -3.83306,0.263509 -4.5408,0.18132 z"
       id="path1772" />
  </g>
</svg>
