<?xml version="1.0" encoding="UTF-8" standalone="no"?>
<!-- Created with Inkscape (http://www.inkscape.org/) -->

<svg
   version="1.1"
   id="svg2"
   width="300"
   height="300"
   viewBox="0 0 300 300"
   sodipodi:docname="videoeditor.svg"
   inkscape:version="1.1.2 (0a00cf5339, 2022-02-04)"
   inkscape:export-filename="/home/tux/.icons/Moonless Night/videoeditor.png"
   inkscape:export-xdpi="127"
   inkscape:export-ydpi="127"
   xmlns:inkscape="http://www.inkscape.org/namespaces/inkscape"
   xmlns:sodipodi="http://sodipodi.sourceforge.net/DTD/sodipodi-0.dtd"
   xmlns="http://www.w3.org/2000/svg"
   xmlns:svg="http://www.w3.org/2000/svg">
  <defs
     id="defs6">
    <style
       id="style3231">.cls-1{fill:#2d3e50;}.cls-2{fill:#2e79bd;}</style>
  </defs>
  <sodipodi:namedview
     id="namedview4"
     pagecolor="#ffffff"
     bordercolor="#666666"
     borderopacity="1.0"
     inkscape:pageshadow="2"
     inkscape:pageopacity="0.0"
     inkscape:pagecheckerboard="0"
     showgrid="false"
     inkscape:zoom="0.73546996"
     inkscape:cx="271.25513"
     inkscape:cy="344.67757"
     inkscape:window-width="1920"
     inkscape:window-height="987"
     inkscape:window-x="0"
     inkscape:window-y="0"
     inkscape:window-maximized="1"
     inkscape:current-layer="g8"
     showguides="true"
     inkscape:guide-bbox="true" />
  <g
     inkscape:groupmode="layer"
     inkscape:label="Image"
     id="g8">
    <circle
       style="fill:#000000;fill-opacity:1;stroke:#ffffff;stroke-width:9.877;stroke-miterlimit:4;stroke-dasharray:none;stroke-opacity:1"
       id="path851"
       cx="149.86972"
       cy="150.41068"
       r="142.94501" />
    <path
       style="fill:#ffffff;stroke-width:0.940348"
       d="m 80.533276,225.86591 c -0.617217,-2.1558 -0.619727,-109.28774 -0.0028,-111.43128 0.441794,-1.53457 3.217609,-1.64561 41.139614,-1.64561 h 40.66585 l 2.70273,2.82105 2.70273,2.82104 -2.68917,2.80689 -2.68917,2.8069 -26.87264,0.24924 -26.87265,0.24923 v 19.74732 19.74732 h 29.62098 29.62097 l 0.47017,-5.26138 c 0.45405,-5.0809 0.66373,-5.42367 6.11227,-9.99197 3.10315,-2.60182 6.88494,-6.05261 8.40398,-7.66841 1.51903,-1.61581 3.05658,-2.93782 3.41676,-2.93782 0.36017,0 0.82727,2.70749 1.03798,6.01666 0.31915,5.01218 0.9654,6.89366 3.87094,11.26971 l 3.48783,5.25305 v 33.39684 33.39683 h -56.82771 c -53.315243,0 -56.85682,-0.10172 -57.298841,-1.64561 z M 167.8599,196.00985 v -19.74732 h -29.62098 -29.62097 l -0.25566,18.78044 c -0.14061,10.32924 -0.0458,19.32737 0.21073,19.99584 0.37038,0.9652 6.5206,1.16423 29.87664,0.96687 l 29.41024,-0.24851 z M 99.21447,207.7642 c 0,-4.22504 -0.006,-4.23202 -3.59193,-4.52733 -4.661798,-0.38385 -6.281726,1.06851 -6.281726,5.63196 v 3.6954 l 4.936826,-0.28423 4.93683,-0.28423 z m 86.82507,2.02015 c 0.17216,-1.21629 0.0583,-3.22628 -0.253,-4.46666 -0.47625,-1.89751 -1.14738,-2.25523 -4.23115,-2.25523 -4.13791,0 -4.4746,0.48723 -3.9728,5.74907 l 0.35785,3.75245 3.89304,-0.28411 c 3.27111,-0.23871 3.94304,-0.63738 4.20606,-2.49552 z M 99.21447,182.84497 v -4.70174 h -4.70174 -4.701742 l -0.297752,3.62519 c -0.467804,5.6958 0.131818,6.39185 5.224994,6.0653 l 4.47624,-0.28701 z m 86.41144,3.68449 c 0.7318,-1.90704 0.7318,-5.46193 0,-7.36897 -0.84757,-2.20872 -7.84049,-2.07112 -8.0386,0.15818 -0.19737,2.22083 0.12099,6.08187 0.62027,7.52278 0.60606,1.74904 6.7262,1.49165 7.41833,-0.31199 z M 99.21447,157.45557 v -4.70174 h -4.70174 -4.701742 l -0.297752,3.62519 c -0.467804,5.69579 0.131818,6.39185 5.224994,6.06529 l 4.47624,-0.287 z m 86.41144,3.68448 c 0.31393,-0.81808 0.57078,-2.47611 0.57078,-3.68448 0,-4.12001 -0.95504,-5.17192 -4.69562,-5.17192 -3.25605,0 -3.58996,0.2446 -3.9822,2.9171 -0.23548,1.60442 -0.23417,3.93178 0.003,5.17192 0.36431,1.90538 0.98145,2.25481 3.98228,2.25481 2.37073,0 3.74089,-0.49443 4.12194,-1.48743 z M 99.21447,132.53634 v -4.23157 h -4.70174 c -4.636463,0 -4.705898,0.0433 -5.000989,3.11755 -0.421728,4.39357 1.217318,5.9675 5.860029,5.62723 l 3.8427,-0.28165 z m 107.29528,27.22286 c -9.32543,-3.5408 -13.33527,-9.87052 -12.50753,-19.74377 0.52092,-6.21356 0.48584,-6.3363 -2.69118,-9.41558 l -3.21897,-3.11996 -8.3419,7.93523 c -4.58804,4.36437 -10.74598,9.79671 -13.68432,12.07185 -7.55784,5.85202 -19.9141,9.59075 -21.77038,6.58723 -0.36428,-0.58941 6.45448,-8.16167 15.93043,-17.69082 9.11202,-9.16319 16.56731,-17.03013 16.56731,-17.4821 0,-0.45196 -7.45529,-8.3189 -16.56731,-17.48209 -9.47595,-9.529152 -16.29471,-17.101411 -15.93043,-17.690821 0.35029,-0.566776 1.98717,-1.02814 3.63752,-1.025253 8.47947,0.01486 16.80271,5.116652 29.7798,18.253914 4.38471,4.43883 8.42748,8.0706 8.98394,8.0706 0.55645,0 2.3642,-1.3954 4.01723,-3.10091 2.67056,-2.7553 3.00552,-3.70189 3.00552,-8.493338 0,-9.034736 3.63497,-15.286971 10.814,-18.600307 4.97876,-2.297845 9.90328,-2.221366 15.63129,0.24276 3.92054,1.686572 5.09343,2.804815 7.10453,6.773546 2.09599,4.136226 2.34842,5.596991 1.94398,11.249463 -0.44448,6.212326 -0.65159,6.682806 -4.74308,10.774286 -4.23809,4.23809 -4.34849,4.28236 -11.74675,4.71064 -4.93784,0.28585 -7.68915,0.0752 -8.11979,-0.62155 -0.35824,-0.57964 -1.04831,-1.0539 -1.53349,-1.0539 -1.39186,0 -8.41034,6.67018 -8.41034,7.99296 0,0.65543 1.72315,2.74845 3.82923,4.65117 2.98105,2.6932 4.11225,3.22459 5.10696,2.39905 0.70276,-0.58324 3.58369,-1.29842 6.40206,-1.58931 4.42636,-0.45684 5.78965,-0.16675 10.009,2.1297 7.19131,3.914 9.77113,8.74177 9.28343,17.37263 -0.35056,6.20409 -0.58228,6.78509 -4.11526,10.31807 -2.20449,2.20449 -5.859,4.51693 -8.88829,5.62417 -2.82947,1.0342 -5.15046,1.8401 -5.15776,1.79087 -0.008,-0.0492 -2.08606,-0.87652 -4.61945,-1.83843 z m 8.27487,-8.78674 c 4.05243,-1.69321 6.20496,-4.83692 6.20496,-9.06215 0,-3.75619 -1.06439,-5.41536 -5.07001,-7.9031 -2.30971,-1.43447 -3.25787,-1.52735 -6.2969,-0.61684 -9.14861,2.74099 -10.05722,13.79263 -1.44223,17.54208 3.64033,1.58435 2.91852,1.57998 6.60418,0.0401 z m -25.92025,-31.9693 c 0.48701,-2.52884 -1.81199,-3.60796 -3.81832,-1.79226 -1.29004,1.16747 -1.41991,1.79952 -0.57812,2.8138 1.45156,1.74903 3.97584,1.16251 4.39644,-1.02154 z m 29.33585,-17.53075 c 5.80127,-5.934601 1.67858,-15.953496 -6.56472,-15.953496 -3.02119,0 -9.45908,6.341014 -9.41956,9.277816 0.11374,8.45433 10.14875,12.64536 15.98428,6.67568 z"
       id="path1932" />
  </g>
</svg>
