<?xml version="1.0" encoding="UTF-8" standalone="no"?>
<!-- Created with Inkscape (http://www.inkscape.org/) -->

<svg
   version="1.1"
   id="svg2"
   width="300"
   height="300"
   viewBox="0 0 300 300"
   sodipodi:docname="vivaldibrowser.svg"
   inkscape:version="1.1.2 (0a00cf5339, 2022-02-04)"
   inkscape:export-filename="/home/tux/.icons/savetier/xaron/vivaldibrowser.png"
   inkscape:export-xdpi="127"
   inkscape:export-ydpi="127"
   xmlns:inkscape="http://www.inkscape.org/namespaces/inkscape"
   xmlns:sodipodi="http://sodipodi.sourceforge.net/DTD/sodipodi-0.dtd"
   xmlns="http://www.w3.org/2000/svg"
   xmlns:svg="http://www.w3.org/2000/svg">
  <defs
     id="defs6">
    <style
       id="style3231">.cls-1{fill:#2d3e50;}.cls-2{fill:#2e79bd;}</style>
  </defs>
  <sodipodi:namedview
     id="namedview4"
     pagecolor="#ffffff"
     bordercolor="#666666"
     borderopacity="1.0"
     inkscape:pageshadow="2"
     inkscape:pageopacity="0.0"
     inkscape:pagecheckerboard="0"
     showgrid="false"
     inkscape:zoom="0.81887858"
     inkscape:cx="144.7101"
     inkscape:cy="369.40764"
     inkscape:window-width="1920"
     inkscape:window-height="987"
     inkscape:window-x="0"
     inkscape:window-y="0"
     inkscape:window-maximized="1"
     inkscape:current-layer="g8"
     showguides="true"
     inkscape:guide-bbox="true" />
  <g
     inkscape:groupmode="layer"
     inkscape:label="Image"
     id="g8">
    <circle
       style="fill:#000000;fill-opacity:1;stroke:#ffffff;stroke-width:9.877;stroke-miterlimit:4;stroke-dasharray:none;stroke-opacity:1"
       id="path851"
       cx="149.86972"
       cy="150.41068"
       r="142.94501" />
    <g
       id="g4779"
       transform="matrix(0.89461001,0,0,0.89461001,17.585949,22.867891)">
      <path
         style="fill:#fefefe;stroke-width:0.601577"
         d="m 141.35588,249.24754 c -1.98521,-0.32991 -4.21622,-0.71829 -4.95781,-0.86306 -0.74159,-0.14477 -2.96846,-1.81523 -4.94861,-3.71214 -3.98164,-3.81426 -0.38877,2.21885 -52.377367,-87.95155 C 51.950209,109.67988 51.145631,108.19335 50.582047,104.08277 49.480208,96.046355 50.08397,85.400215 51.838946,81.919872 c 1.204122,-2.38793 4.911503,-6.363026 7.399047,-7.933343 3.453611,-2.180169 16.053686,-3.069604 24.732785,-1.745879 4.582981,0.69899 7.590601,2.712545 10.952709,7.332667 1.13415,1.558521 9.708793,16.098456 19.054763,32.310963 9.34597,16.21252 18.21537,31.37227 19.70979,33.68834 7.41708,11.49508 19.59436,18.34811 32.60314,18.34811 15.72843,0 30.49172,-10.71901 36.47369,-26.48205 1.55674,-4.10214 1.70756,-5.18934 1.70904,-12.31969 0.001,-7.18934 -0.13555,-8.16037 -1.69801,-12.03155 -4.06322,-10.06706 -4.53939,-11.8635 -4.55542,-17.186165 -0.0181,-5.986367 1.12186,-10.471154 3.68936,-14.515291 1.986,-3.128211 5.54399,-6.574826 8.14032,-7.885513 4.26325,-2.152184 17.36775,-2.492597 26.43277,-0.686637 1.50425,0.299681 6.85495,4.973665 8.76573,7.657099 1.6321,2.292091 2.48152,7.325186 2.50954,14.869972 0.046,12.375185 3.23636,5.898835 -38.96188,79.090345 -20.78102,36.04402 -38.70951,66.66444 -39.84109,68.04539 -3.23372,3.94633 -6.45245,5.86972 -10.6825,6.38347 -6.92677,0.84126 -13.3068,0.98738 -16.91685,0.38743 z"
         id="path4783" />
      <path
         style="fill:#fdfafa;stroke-width:0.601577"
         d="m 145.15334,249.53536 c 0.43426,-0.17378 0.95312,-0.15241 1.15302,0.0475 0.1999,0.1999 -0.15541,0.34208 -0.78957,0.31596 -0.70081,-0.0289 -0.84335,-0.17141 -0.36345,-0.36345 z m -4.65523,-0.71838 c -1.61708,-0.45189 -2.44424,-1.87857 -1.08914,-1.87857 0.47324,0 1.48471,0.54142 2.2477,1.20316 1.44606,1.25415 1.27316,1.35495 -1.15856,0.67541 z m 16.79957,-0.91184 c 0,-0.13004 0.42012,-0.39764 0.93361,-0.59469 0.53536,-0.20543 0.77683,-0.10458 0.56608,0.23643 -0.35329,0.57162 -1.49969,0.84548 -1.49969,0.35826 z m 3.60947,-1.85763 c 0,-0.49 0.61896,-1.04626 1.37548,-1.23613 0.75653,-0.18988 1.63634,-0.91735 1.95513,-1.6166 0.82597,-1.81166 2.4731,-2.72484 3.34401,-1.85393 0.52156,0.52157 0.30219,1.08174 -0.89085,2.27479 -0.87055,0.87054 -1.83767,1.4253 -2.14917,1.23279 -0.31149,-0.19252 -0.86017,0.19898 -1.21928,0.86998 -0.75647,1.41349 -2.41532,1.63951 -2.41532,0.3291 z m -32.58238,-6.88946 c -0.84022,-1.47691 -0.8642,-1.80893 -0.15039,-2.08284 0.54377,-0.20866 0.84916,0.0769 0.84916,0.79406 0,0.61595 0.42322,1.28232 0.9405,1.48081 0.51727,0.1985 0.772,0.63353 0.56607,0.96673 -0.60892,0.98525 -1.1462,0.70295 -2.20534,-1.15876 z m 41.43633,-2.28994 c 0.58964,-1.40283 1.41046,-2.55334 1.82404,-2.55671 1.13654,-0.009 0.88242,0.68642 -1.09652,3.00177 l -1.7996,2.10552 z m -44.34702,-3.1644 c 0,-0.33087 0.27071,-0.60158 0.60157,-0.60158 0.33087,0 0.60158,0.27071 0.60158,0.60158 0,0.33087 -0.27071,0.60158 -0.60158,0.60158 -0.33086,0 -0.60157,-0.27071 -0.60157,-0.60158 z m 46.92304,-1.44916 c 0,-0.44541 0.40606,-1.14683 0.90236,-1.55873 0.75134,-0.62356 0.90237,-0.54597 0.90237,0.46356 0,0.66685 -0.40607,1.36827 -0.90237,1.55872 -0.5267,0.20211 -0.90236,0.009 -0.90236,-0.46355 z m -49.22307,-1.89129 c 0.27208,-1.30669 1.33973,-1.38665 1.58393,-0.11862 0.12681,0.65849 -0.16825,1.05276 -0.78785,1.05276 -0.57795,0 -0.90956,-0.38912 -0.79608,-0.93414 z m 51.722,-2.05541 c 0.11449,-0.78542 0.54655,-1.53948 0.96014,-1.67569 1.08234,-0.35645 0.92702,1.36475 -0.20817,2.30688 -0.83828,0.69571 -0.93372,0.6156 -0.75197,-0.63119 z m -54.09673,-1.93587 c 0.3713,-1.11388 1.48065,-1.24018 1.87466,-0.21341 0.24952,0.65024 -0.0132,0.92779 -0.87838,0.92779 -0.6855,0 -1.12852,-0.31766 -0.99628,-0.71438 z m 56.1396,-1.64343 c -0.188,-0.3042 0.12232,-1.01723 0.68962,-1.58452 0.69187,-0.69187 1.10846,-0.80033 1.26543,-0.32944 0.55174,1.65524 -1.1097,3.28176 -1.95505,1.91396 z m -58.08219,-2.45481 c 0,-0.33087 0.28668,-0.60158 0.63708,-0.60158 0.35039,0 0.46977,0.27071 0.26528,0.60158 -0.20449,0.33087 -0.49117,0.60158 -0.63708,0.60158 -0.14591,0 -0.26528,-0.27071 -0.26528,-0.60158 z m 60.75932,-2.42519 c 0,-0.65164 0.40584,-1.18428 0.90236,-1.18428 0.4963,0 0.90237,0.37711 0.90237,0.83801 0,0.4609 -0.40607,0.99382 -0.90237,1.18427 -0.61378,0.23553 -0.90236,-0.0325 -0.90236,-0.838 z m -63.05935,-0.91526 c 0.27208,-1.3067 1.33973,-1.38665 1.58393,-0.11862 0.12681,0.65848 -0.16825,1.05276 -0.78785,1.05276 -0.57795,0 -0.90956,-0.38913 -0.79608,-0.93414 z m 65.46566,-2.94061 c 0,-0.90307 1.08003,-1.8631 1.55812,-1.385 0.41959,0.41958 -0.4111,2.25186 -1.02091,2.25186 -0.29546,0 -0.53721,-0.39009 -0.53721,-0.86686 z m -67.84039,-1.05067 c 0.37129,-1.11388 1.48065,-1.24018 1.87466,-0.21341 0.24952,0.65024 -0.0132,0.92779 -0.87838,0.92779 -0.68551,0 -1.12852,-0.31766 -0.99628,-0.71438 z m 69.64512,-2.47051 c 0,-0.48336 0.43206,-1.23742 0.96014,-1.67568 0.83828,-0.69571 0.93372,-0.6156 0.75197,0.63119 -0.2275,1.56066 -1.71211,2.46636 -1.71211,1.04449 z m -71.31166,-1.06618 c -0.21809,-0.35288 -0.25208,-0.78605 -0.0755,-0.96261 0.43092,-0.43091 1.60421,0.32836 1.60421,1.03814 0,0.7688 -1.03857,0.71748 -1.52868,-0.0755 z m 73.82691,-3.07411 c 0.10551,-0.7169 0.53023,-1.41489 0.94382,-1.5511 1.11185,-0.36617 0.9248,2.06388 -0.19185,2.49238 -0.70625,0.27101 -0.89553,0.0341 -0.75197,-0.94128 z m -76.40299,-0.82789 c 0.27208,-1.3067 1.33973,-1.38665 1.58392,-0.11862 0.12682,0.65848 -0.16824,1.05276 -0.78784,1.05276 -0.57795,0 -0.90956,-0.38913 -0.79608,-0.93414 z m 78.70036,-3.22677 c 0,-0.73894 0.38843,-1.25329 0.94647,-1.25329 0.56021,0 0.8671,0.4093 0.75197,1.00291 -0.29269,1.50922 -1.69844,1.71645 -1.69844,0.25038 z m -81.21296,-0.58735 c 0,-0.9498 1.69355,-1.22182 2.03686,-0.32717 0.21914,0.57107 -0.0702,0.86439 -0.85258,0.86439 -0.65135,0 -1.18428,-0.24175 -1.18428,-0.53722 z m 83.61927,-3.60017 c 0,-0.73389 0.38369,-1.27681 0.90236,-1.27681 0.4963,0 0.90237,0.23756 0.90237,0.52792 0,0.29035 -0.40607,0.86492 -0.90237,1.27681 -0.75389,0.62568 -0.90236,0.53882 -0.90236,-0.52792 z m -85.424,-0.42457 c 0,-1.06235 1.29505,-0.87734 1.66687,0.23812 0.13097,0.3929 -0.1905,0.71437 -0.71437,0.71437 -0.52387,0 -0.9525,-0.42862 -0.9525,-0.95249 z m 87.22873,-2.83397 c 0,-0.48336 0.43206,-1.23742 0.96014,-1.67569 0.83828,-0.6957 0.93372,-0.61559 0.75197,0.6312 -0.2275,1.56066 -1.71211,2.46636 -1.71211,1.04449 z M 103.262,196.07335 c 0.27207,-1.3067 1.33972,-1.38665 1.58392,-0.11862 0.12682,0.65848 -0.16824,1.05276 -0.78784,1.05276 -0.57795,0 -0.90957,-0.38913 -0.79608,-0.93414 z m 92.044,-3.38316 c 0.10552,-0.7169 0.53023,-1.41489 0.94382,-1.5511 1.11185,-0.36616 0.9248,2.06389 -0.19184,2.49239 -0.70626,0.27101 -0.89554,0.0341 -0.75198,-0.94129 z m -94.19699,0.26533 c -0.67524,-0.67523 -0.36133,-1.96381 0.4784,-1.96381 1.13701,0 1.69223,1.62846 0.68677,2.01429 -0.44307,0.17002 -0.96739,0.1473 -1.16517,-0.0505 z m 96.22355,-3.72004 c -0.18801,-0.30419 0.12231,-1.01723 0.68961,-1.58451 0.69187,-0.69188 1.10847,-0.80034 1.26543,-0.32944 0.55174,1.65524 -1.1097,3.28176 -1.95504,1.91395 z m -98.649719,-1.18862 c -0.183061,-0.29619 0.07167,-0.69376 0.566074,-0.88348 0.546027,-0.20953 0.898915,0.002 0.898915,0.53853 0,0.97299 -0.940043,1.19433 -1.464989,0.34495 z m 101.326839,-3.59884 c 0,-0.7339 0.3837,-1.27681 0.90236,-1.27681 0.49631,0 0.90237,0.23756 0.90237,0.52792 0,0.29035 -0.40606,0.86491 -0.90237,1.27681 -0.75389,0.62568 -0.90236,0.53882 -0.90236,-0.52792 z M 96.538361,184.02344 c 0,-0.52387 0.321468,-0.84534 0.714373,-0.71437 1.115459,0.37182 1.300466,1.66687 0.238124,1.66687 -0.523873,0 -0.952497,-0.42862 -0.952497,-0.9525 z m 105.276049,-2.83396 c 0,-0.48336 0.43207,-1.23742 0.96014,-1.67569 0.83828,-0.69571 0.93372,-0.61559 0.75197,0.63119 -0.2275,1.56066 -1.71211,2.46636 -1.71211,1.0445 z M 94.43284,180.7649 c -0.240122,-0.38853 -0.165876,-0.97712 0.164992,-1.30799 0.401051,-0.40105 0.747105,-0.36611 1.038163,0.10483 0.240122,0.38853 0.165876,0.97712 -0.164992,1.30799 -0.401051,0.40105 -0.747105,0.36611 -1.038163,-0.10483 z m 109.89683,-3.71572 c 0.10551,-0.7169 0.53023,-1.41489 0.94381,-1.5511 1.11185,-0.36616 0.9248,2.06389 -0.19184,2.49238 -0.70625,0.27101 -0.89553,0.0341 -0.75197,-0.94128 z M 91.832026,176.22129 c 0.272076,-1.30669 1.339725,-1.38665 1.583925,-0.11862 0.126813,0.65849 -0.168244,1.05276 -0.787843,1.05276 -0.577952,0 -0.909565,-0.38912 -0.796082,-0.93414 z m 114.524194,-2.62682 c -0.18801,-0.3042 0.12232,-1.01723 0.68961,-1.58452 0.69187,-0.69187 1.10847,-0.80033 1.26543,-0.32944 0.55174,1.65524 -1.10969,3.28176 -1.95504,1.91396 z M 89.457294,172.23002 c 0.371294,-1.11389 1.480655,-1.24018 1.87466,-0.21342 0.24952,0.65024 -0.01325,0.92779 -0.878379,0.92779 -0.685507,0 -1.12852,-0.31766 -0.996281,-0.71437 z m 119.576046,-3.42301 c 0,-0.7339 0.3837,-1.27682 0.90237,-1.27682 0.4963,0 0.90236,0.23757 0.90236,0.52792 0,0.29036 -0.40606,0.86492 -0.90236,1.27682 -0.7539,0.62568 -0.90237,0.53882 -0.90237,-0.52792 z M 87.5147,168.16728 c 0,-0.31134 0.27071,-0.73339 0.601577,-0.93787 0.330868,-0.20449 0.601578,0.0502 0.601578,0.56607 0,0.51583 -0.27071,0.93787 -0.601578,0.93787 -0.330867,0 -0.601577,-0.25473 -0.601577,-0.56607 z m 76.40033,-2.37166 c 0,-0.62706 0.53726,-1.27348 1.20316,-1.44762 1.88082,-0.49185 3.60946,0.20144 3.60946,1.44762 0,0.92078 -0.45072,1.133 -2.40631,1.133 -1.95558,0 -2.40631,-0.21222 -2.40631,-1.133 z m -5.67285,-0.002 c -0.39025,-0.63143 1.11073,-2.02345 1.62611,-1.50808 0.46452,0.46453 -0.14937,2.04149 -0.79473,2.04149 -0.27595,0 -0.65007,-0.24003 -0.83138,-0.53341 z m 52.59589,-0.29549 c 0,-0.95864 1.67194,-2.5125 2.1688,-2.01564 0.46037,0.46038 -0.87093,2.84435 -1.58838,2.84435 -0.31923,0 -0.58042,-0.37292 -0.58042,-0.82871 z M 85.409179,165.12388 c -0.240122,-0.38852 -0.165876,-0.97711 0.164991,-1.30798 0.401052,-0.40105 0.747106,-0.36611 1.038164,0.10483 0.240122,0.38853 0.165876,0.97712 -0.164992,1.30799 -0.401051,0.40105 -0.747106,0.3661 -1.038163,-0.10484 z m 91.941081,-0.91607 c 0,-1.10256 2.64859,-1.88964 3.49856,-1.03967 0.4031,0.4031 -0.0403,0.82741 -1.33697,1.27943 -1.06704,0.37197 -1.98992,0.67631 -2.05083,0.67631 -0.0609,0 -0.11076,-0.41223 -0.11076,-0.91607 z m -25.44935,-0.26358 c -0.48672,-0.30781 -0.71015,-0.73445 -0.49652,-0.94808 0.52599,-0.52599 2.8854,0.26319 2.8854,0.96512 0,0.7158 -1.24412,0.70693 -2.38888,-0.017 z m -4.37886,-1.57074 c -1.81758,-0.98605 -2.18936,-2.06222 -0.71243,-2.06222 1.48509,0 3.26913,1.16058 3.26913,2.12668 0,1.08972 -0.45015,1.07836 -2.5567,-0.0645 z m 34.44031,0.11248 c 0,-0.96602 2.53585,-2.77628 3.88909,-2.77628 1.68264,0 0.95732,1.56578 -1.20241,2.59568 -2.57204,1.22652 -2.68668,1.23422 -2.68668,0.1806 z m 31.37464,-0.95321 c 0.11449,-0.78542 0.54656,-1.53948 0.96014,-1.67569 1.08235,-0.35645 0.92703,1.36475 -0.20817,2.30688 -0.83828,0.69571 -0.93372,0.61559 -0.75197,-0.63119 z M 82.808365,160.58028 c 0.272076,-1.30669 1.339725,-1.38665 1.583925,-0.11862 0.126813,0.65849 -0.168244,1.05276 -0.787844,1.05276 -0.577951,0 -0.909564,-0.38912 -0.796081,-0.93414 z m 105.169765,-1.32746 c 0,-0.25128 0.52887,-0.78716 1.17527,-1.19083 0.86772,-0.54191 1.28559,-0.55545 1.59689,-0.0517 0.25942,0.41976 0.15281,0.51606 -0.27715,0.25034 -0.39114,-0.24174 -0.85767,-0.0178 -1.05968,0.50863 -0.36709,0.95658 -1.43533,1.31652 -1.43533,0.4836 z m 27.40175,-1.29937 c -0.18801,-0.30419 0.12232,-1.01722 0.68961,-1.58451 0.69188,-0.69187 1.10847,-0.80033 1.26543,-0.32944 0.55174,1.65524 -1.10969,3.28176 -1.95504,1.91395 z m -134.724507,-0.491 c -0.675236,-0.67523 -0.361327,-1.9638 0.478402,-1.9638 1.13701,0 1.692229,1.62845 0.686768,2.01428 -0.443062,0.17002 -0.967389,0.1473 -1.16517,-0.0505 z m 59.327807,-0.25202 c 0.31224,-0.93671 1.6581,-1.10076 1.70526,-0.20784 0.0175,0.33087 -0.41976,0.69511 -0.97165,0.80942 -0.62727,0.12994 -0.90228,-0.0956 -0.73361,-0.60158 z m 52.51547,-1.09615 c -0.9229,-1.49328 3.33894,-5.62993 4.55129,-4.41759 0.38286,0.38287 0.14599,1.14979 -0.67913,2.19875 -1.5787,2.007 -3.36904,3.03291 -3.87216,2.21884 z m 25.55835,-2.97181 c 0,-0.73894 0.38843,-1.25329 0.94647,-1.25329 0.56022,0 0.86711,0.4093 0.75198,1.00291 -0.2927,1.50922 -1.69845,1.71645 -1.69845,0.25038 z M 78.229208,152.55379 c -0.18306,-0.29619 0.07167,-0.69376 0.566075,-0.88348 0.546027,-0.20953 0.89891,0.002 0.89891,0.53854 0,0.97298 -0.940039,1.19433 -1.464985,0.34494 z m 55.946702,-1.20315 c -0.18306,-0.2962 0.0717,-0.69377 0.56607,-0.88349 0.54603,-0.20952 0.89891,0.002 0.89891,0.53854 0,0.97299 -0.94003,1.19433 -1.46498,0.34495 z m 64.02904,-2.11843 c 0,-0.52387 0.42862,-0.95249 0.95249,-0.95249 0.52388,0 0.84534,0.32146 0.71437,0.71437 -0.37181,1.11546 -1.66686,1.30047 -1.66686,0.23812 z m 22.25836,-0.27726 c 0,-0.73389 0.3837,-1.27681 0.90237,-1.27681 0.4963,0 0.90236,0.23756 0.90236,0.52792 0,0.29035 -0.40606,0.86492 -0.90236,1.27681 -0.7539,0.62568 -0.90237,0.53882 -0.90237,-0.52792 z M 76.084729,148.53038 c 0,-1.06235 1.295051,-0.87734 1.66687,0.23812 0.130969,0.3929 -0.190499,0.71437 -0.714373,0.71437 -0.523873,0 -0.952497,-0.42862 -0.952497,-0.95249 z m 55.721791,-0.52008 c -0.6399,-0.9766 -0.75103,-1.60474 -0.32996,-1.86497 0.68837,-0.42544 2.30942,1.36538 2.34047,2.58557 0.0311,1.22195 -0.97366,0.86183 -2.01051,-0.7206 z m 68.64044,-1.29856 c -0.58128,-0.58128 0.22771,-2.04149 1.13102,-2.04149 0.4609,0 0.83801,0.23757 0.83801,0.52792 0,0.75036 -1.54479,1.93782 -1.96903,1.51357 z m 21.82108,-1.01533 c 0,-0.48336 0.43207,-1.23742 0.96014,-1.67569 0.83828,-0.6957 0.93372,-0.61559 0.75198,0.6312 -0.22751,1.56066 -1.71212,2.46636 -1.71212,1.04449 z M 73.979208,145.27183 c -0.49059,-0.79379 0.228725,-1.92028 0.943934,-1.47825 0.730685,0.45159 0.725938,2.07983 -0.0061,2.07983 -0.311341,0 -0.733382,-0.27071 -0.937869,-0.60158 z m 56.046962,0.20052 c -0.6922,-0.69219 -0.43809,-1.40367 0.50132,-1.40367 0.4963,0 0.90236,0.40606 0.90236,0.90236 0,0.93941 -0.71148,1.19351 -1.40368,0.50131 z m 94.74795,-3.84625 c 0.11056,-0.75539 0.56219,-1.49247 1.00362,-1.63795 0.54533,-0.17974 0.73816,0.1757 0.60157,1.10891 -0.11055,0.75539 -0.56218,1.49246 -1.00361,1.63795 -0.54533,0.17973 -0.73816,-0.17571 -0.60158,-1.10891 z m -153.142408,0.19534 c -0.675236,-0.67523 -0.361327,-1.96381 0.478401,-1.96381 1.13701,0 1.69223,1.62846 0.686768,2.01429 -0.443062,0.17002 -0.967388,0.1473 -1.165169,-0.0505 z m 55.975658,-0.44806 c -0.32289,-0.84145 1.02045,-1.71094 1.65814,-1.07324 0.60034,0.60032 0.40594,1.21572 -0.49297,1.56067 -0.46892,0.17994 -0.99325,-0.0394 -1.16517,-0.48743 z m 74.92392,0.24387 c 0.11856,-0.35569 0.47274,-0.6467 0.78706,-0.6467 0.31433,0 0.66851,0.29101 0.78707,0.6467 0.11856,0.35568 -0.23562,0.64669 -0.78707,0.64669 -0.55144,0 -0.90562,-0.29101 -0.78706,-0.64669 z m -76.51564,-3.22805 c 0,-0.51583 0.27071,-0.93788 0.60158,-0.93788 0.33087,0 0.60158,0.25474 0.60158,0.56608 0,0.31134 -0.27071,0.73338 -0.60158,0.93787 -0.33087,0.20449 -0.60158,-0.0502 -0.60158,-0.56607 z m 100.91847,-0.0818 c -0.60921,-0.60921 0.20577,-2.05924 1.15738,-2.05924 0.50013,0 0.79789,0.43429 0.68761,1.00291 -0.20878,1.07653 -1.23642,1.6649 -1.84499,1.05633 z M 68.8658,136.91411 c 0,-0.29547 0.406064,-0.69304 0.902366,-0.88349 0.549668,-0.21092 0.902366,-0.001 0.902366,0.53722 0,0.48591 -0.406065,0.88348 -0.902366,0.88348 -0.496302,0 -0.902366,-0.24175 -0.902366,-0.53721 z m 55.04433,-1.8691 c -0.24012,-0.38852 -0.16588,-0.97711 0.16499,-1.30798 0.40106,-0.40106 0.74711,-0.36611 1.03817,0.10483 0.24012,0.38853 0.16588,0.97712 -0.16499,1.30799 -0.40105,0.40105 -0.74711,0.3661 -1.03817,-0.10484 z m 105.57684,-1.73107 c 0,-0.7339 0.3837,-1.27681 0.90237,-1.27681 0.4963,0 0.90236,0.23756 0.90236,0.52792 0,0.29035 -0.40606,0.86492 -0.90236,1.27681 -0.7539,0.62568 -0.90237,0.53882 -0.90237,-0.52792 z M 67.061067,132.88936 c 0,-1.06234 1.295052,-0.87733 1.666871,0.23813 0.130969,0.3929 -0.190499,0.71437 -0.714373,0.71437 -0.523874,0 -0.952498,-0.42862 -0.952498,-0.9525 z M 205.42387,132.6387 c 0,-0.33086 0.28669,-0.60157 0.63709,-0.60157 0.35039,0 0.46977,0.27071 0.26528,0.60157 -0.20449,0.33087 -0.49117,0.60158 -0.63708,0.60158 -0.14591,0 -0.26529,-0.27071 -0.26529,-0.60158 z m -83.61926,-1.46844 c 0,-0.51582 0.27071,-0.93787 0.60158,-0.93787 0.33087,0 0.60158,0.25474 0.60158,0.56608 0,0.31134 -0.27071,0.73338 -0.60158,0.93787 -0.33087,0.20449 -0.60158,-0.0502 -0.60158,-0.56608 z M 231.2917,130.0554 c 0,-0.48336 0.43207,-1.23742 0.96015,-1.67569 0.83828,-0.69571 0.93372,-0.61559 0.75197,0.63119 -0.22751,1.56066 -1.71212,2.46636 -1.71212,1.0445 z M 64.761042,129.29825 c 0.272076,-1.30669 1.339725,-1.38665 1.583925,-0.11862 0.126813,0.65849 -0.168244,1.05276 -0.787843,1.05276 -0.577952,0 -0.909565,-0.38912 -0.796082,-0.93414 z m 140.983248,-1.44041 c -0.52893,-0.85583 0.14557,-1.83649 1.26314,-1.83649 0.52707,0 0.829,0.42265 0.71647,1.00291 -0.23433,1.20825 -1.43546,1.71403 -1.97961,0.83358 z m -86.34599,-0.953 c 0,-0.48592 0.40607,-0.88349 0.90237,-0.88349 0.4963,0 0.90237,0.24175 0.90237,0.53722 0,0.29547 -0.40607,0.69304 -0.90237,0.88348 -0.54967,0.21093 -0.90237,9.7e-4 -0.90237,-0.53721 z m 114.40866,-0.98974 c 0.10551,-0.7169 0.53023,-1.41489 0.94381,-1.5511 1.11185,-0.36616 0.9248,2.06389 -0.19184,2.49238 -0.70625,0.27102 -0.89553,0.0341 -0.75197,-0.94128 z M 62.446585,125.66999 c -0.583296,-1.52005 0.784676,-2.38756 1.539847,-0.97651 0.505982,0.94543 0.447837,1.28376 -0.26783,1.55839 -0.523959,0.20106 -1.066876,-0.0473 -1.272017,-0.58188 z m 143.085845,-2.1992 c 0.28527,-1.99949 2.29775,-2.17523 2.29775,-0.20065 0,1.16435 -0.30859,1.54806 -1.24499,1.54806 -0.94559,0 -1.19876,-0.32403 -1.05276,-1.34741 z m -88.54044,-0.75811 c 0,-0.4963 0.40607,-0.90237 0.90237,-0.90237 0.4963,0 0.90237,0.40607 0.90237,0.90237 0,0.4963 -0.40607,0.90236 -0.90237,0.90236 -0.4963,0 -0.90237,-0.40606 -0.90237,-0.90236 z m 118.84152,-0.25229 c -0.188,-0.3042 0.12232,-1.01723 0.68961,-1.58451 0.69188,-0.69188 1.10847,-0.80034 1.26543,-0.32945 0.55175,1.65524 -1.10969,3.28176 -1.95504,1.91396 z M 59.98,121.09594 c 0.371819,-1.11546 1.66687,-1.30047 1.66687,-0.23813 0,0.52388 -0.428623,0.9525 -0.952497,0.9525 -0.523874,0 -0.845342,-0.32147 -0.714373,-0.71437 z m 54.67243,-2.1688 c -0.50598,-0.94543 -0.44783,-1.28376 0.26783,-1.55838 1.10742,-0.42496 1.89367,1.25079 1.00419,2.14026 -0.43325,0.43325 -0.82453,0.25426 -1.27202,-0.58188 z m 123.8582,-1.25421 c 0,-0.7339 0.3837,-1.27682 0.90237,-1.27682 0.4963,0 0.90237,0.23757 0.90237,0.52792 0,0.29036 -0.40607,0.86492 -0.90237,1.27682 -0.7539,0.62568 -0.90237,0.53882 -0.90237,-0.52792 z M 58.037406,117.24835 c 0,-0.52387 0.321468,-0.84534 0.714373,-0.71437 1.115459,0.37182 1.300466,1.66687 0.238124,1.66687 -0.523873,0 -0.952497,-0.42863 -0.952497,-0.9525 z m 54.442754,-2.05539 c -0.24012,-0.38853 -0.16588,-0.97712 0.16499,-1.30799 0.40106,-0.40105 0.74711,-0.36611 1.03817,0.10483 0.24012,0.38853 0.16588,0.97713 -0.16499,1.30799 -0.40105,0.40105 -0.74711,0.36611 -1.03817,-0.10483 z m 127.83521,-0.77857 c 0,-0.48337 0.43206,-1.23742 0.96014,-1.67569 0.83828,-0.69571 0.93372,-0.6156 0.75197,0.63119 -0.22751,1.56066 -1.71211,2.46636 -1.71211,1.0445 z M 55.746399,113.34311 c 0.11856,-0.35568 0.472739,-0.6467 0.787063,-0.6467 0.314325,0 0.668503,0.29102 0.787064,0.6467 0.118561,0.35568 -0.235617,0.64669 -0.787064,0.64669 -0.551446,0 -0.905624,-0.29101 -0.787063,-0.64669 z m 148.157081,-0.60828 c -0.2351,-0.74073 -0.0906,-1.56137 0.34574,-1.96386 0.57032,-0.52607 0.64806,-0.51159 0.32504,0.0605 -0.2335,0.41359 -0.13786,0.75198 0.21253,0.75198 0.7847,0 0.84554,1.60488 0.0788,2.07875 -0.30705,0.18976 -0.74001,-0.22758 -0.96213,-0.92742 z m -93.52884,-1.75291 c 0,-0.33087 0.27071,-0.60158 0.60158,-0.60158 0.33087,0 0.60158,0.27071 0.60158,0.60158 0,0.33087 -0.27071,0.60158 -0.60158,0.60158 -0.33087,0 -0.60158,-0.27071 -0.60158,-0.60158 z m 132.34704,-0.5468 c 0,-0.61084 0.40606,-1.44762 0.90236,-1.85951 0.76143,-0.63193 0.90237,-0.51255 0.90237,0.76434 0,0.83229 -0.40607,1.66907 -0.90237,1.85951 -0.60129,0.23074 -0.90236,-0.0243 -0.90236,-0.76434 z M 53.224787,109.47797 c 0,-0.4963 0.406064,-0.90236 0.902366,-0.90236 0.496301,0 0.902366,0.40606 0.902366,0.90236 0,0.49631 -0.406065,0.90237 -0.902366,0.90237 -0.496302,0 -0.902366,-0.40606 -0.902366,-0.90237 z m 54.743543,-2.42519 c 0,-0.48591 0.40607,-0.88348 0.90237,-0.88348 0.4963,0 0.90236,0.24175 0.90236,0.53721 0,0.29547 -0.40606,0.69304 -0.90236,0.88349 -0.54967,0.21093 -0.90237,9.6e-4 -0.90237,-0.53722 z m 93.84608,-0.0312 c 0,-1.06234 1.29505,-0.87733 1.66687,0.23813 0.13097,0.3929 -0.1905,0.71437 -0.71437,0.71437 -0.52388,0 -0.9525,-0.42862 -0.9525,-0.9525 z m 43.91515,-1.97068 c 0,-1.026 0.71234,-2.49102 1.2112,-2.49102 0.60443,0 0.0316,2.31083 -0.68224,2.75198 -0.29093,0.17981 -0.52896,0.0624 -0.52896,-0.26096 z m -140.36598,-2.14044 c -0.17994,-0.46892 0.0353,-0.99169 0.4784,-1.16171 0.94868,-0.36404 1.52477,0.094 1.52477,1.21219 0,1.06972 -1.58867,1.02969 -2.00317,-0.0505 z m -1.96168,-3.584602 c -0.50966,-1.328168 0.16839,-2.006222 1.08731,-1.087305 0.54257,0.542567 0.54487,0.878861 0.01,1.414038 -0.53518,0.535179 -0.79608,0.457469 -1.097,-0.326733 z m -2.05092,-3.984903 c 0,-0.330867 0.27071,-0.601577 0.60158,-0.601577 0.33087,0 0.60158,0.27071 0.60158,0.601577 0,0.330868 -0.27071,0.601578 -0.60158,0.601578 -0.33087,0 -0.60158,-0.27071 -0.60158,-0.601578 z m 98.12273,-3.229623 c -0.87066,-1.049075 -0.0617,-1.722579 1.16124,-0.966775 0.62396,0.385629 0.68494,0.720511 0.21649,1.188957 -0.46845,0.468446 -0.8565,0.405866 -1.37773,-0.222182 z M 98.746229,91.480438 c -0.179941,-0.468919 0.03534,-0.991686 0.478402,-1.161705 0.948679,-0.364042 1.524769,0.09395 1.524769,1.212182 0,1.069724 -1.588671,1.029692 -2.003171,-0.05048 z M 50.660863,89.527942 c -0.161376,-0.276979 -0.08563,-1.045019 0.16832,-1.706754 0.43465,-1.13259 0.487843,-1.139039 0.906968,-0.109958 0.448645,1.10156 -0.529305,2.753818 -1.075288,1.816712 z m 46.262195,-1.221794 c -0.677487,-0.677487 -0.412616,-1.387326 0.517669,-1.387326 0.496302,0 0.902366,0.254733 0.902366,0.566074 0,0.758576 -0.939416,1.30187 -1.420035,0.821252 z M 201.21283,85.164221 c 0,-0.73894 0.38844,-1.253286 0.94648,-1.253286 0.56021,0 0.8671,0.409295 0.75197,1.00291 -0.2927,1.509218 -1.69845,1.716447 -1.69845,0.250376 z M 94.733629,83.841923 c 0,-0.685507 0.317657,-1.12852 0.714373,-0.996282 1.113886,0.371295 1.240179,1.480656 0.213418,1.874661 -0.65024,0.24952 -0.927791,-0.01325 -0.927791,-0.878379 z M 54.427941,80.602259 c 0,-0.551446 0.291013,-0.905625 0.646696,-0.787064 0.355683,0.118561 0.646696,0.47274 0.646696,0.787064 0,0.314324 -0.291013,0.668503 -0.646696,0.787063 -0.355683,0.118562 -0.646696,-0.235617 -0.646696,-0.787063 z M 204.8223,80.903048 c 0,-0.330868 0.28669,-0.601578 0.63708,-0.601578 0.35039,0 0.46977,0.27071 0.26528,0.601578 -0.20448,0.330867 -0.49117,0.601577 -0.63708,0.601577 -0.14591,0 -0.26528,-0.27071 -0.26528,-0.601577 z M 90.030631,78.672534 c -0.797669,-0.859209 -1.242103,-1.898572 -1.0386,-2.428892 0.288802,-0.752606 0.689427,-0.599578 2.129583,0.813444 1.852845,1.817936 2.341056,3.289473 1.055311,3.180864 -0.413585,-0.03494 -1.379417,-0.739374 -2.146294,-1.565416 z M 208.23124,77.494109 c -0.6922,-0.692195 -0.43809,-1.403681 0.50131,-1.403681 0.4963,0 0.90237,0.406065 0.90237,0.902366 0,0.939408 -0.71149,1.19351 -1.40368,0.501315 z M 58.939772,76.692006 c -0.204488,-0.330868 0.06622,-0.601578 0.601577,-0.601578 0.535356,0 0.806066,0.27071 0.601578,0.601578 -0.204488,0.330867 -0.475198,0.601577 -0.601578,0.601577 -0.126379,0 -0.397089,-0.27071 -0.601577,-0.601577 z M 237.61395,76.541611 c -0.23936,-0.579018 -0.94765,-1.05276 -1.57399,-1.05276 -0.62633,0 -1.13879,-0.406065 -1.13879,-0.902366 0,-0.496302 0.3459,-0.902366 0.76867,-0.902366 1.04725,0 2.97247,2.333553 2.64447,3.205374 -0.1633,0.43409 -0.43236,0.300446 -0.70036,-0.347882 z M 85.847829,74.774478 c 0.37182,-1.115459 1.666871,-1.300466 1.666871,-0.238125 0,0.523874 -0.428624,0.952498 -0.952498,0.952498 -0.523874,0 -0.845342,-0.321468 -0.714373,-0.714373 z M 62.248448,74.049269 c 0,-1.019998 1.62692,-1.741119 2.121759,-0.940455 0.195556,0.316418 0.188249,0.846014 -0.01624,1.176882 -0.555887,0.899444 -2.105521,0.725438 -2.105521,-0.236427 z m 20.780111,-0.323582 c -0.190357,-0.308006 -0.09934,-0.712515 0.20225,-0.898911 0.301594,-0.186396 0.703579,0.06561 0.893298,0.560009 0.374001,0.974629 -0.529845,1.254228 -1.095548,0.338902 z M 231.66232,73.367216 c -0.53471,-0.534705 -0.97219,-1.064798 -0.97219,-1.177984 0,-0.504009 2.99107,0.655478 3.04156,1.179058 0.0977,1.012796 -1.0561,1.012197 -2.06937,-0.0011 z"
         id="path4781" />
    </g>
  </g>
</svg>
