<?xml version="1.0" encoding="UTF-8" standalone="no"?>
<!-- Created with Inkscape (http://www.inkscape.org/) -->

<svg
   version="1.1"
   id="svg2"
   width="300"
   height="300"
   viewBox="0 0 300 300"
   sodipodi:docname="writer.svg"
   inkscape:version="1.1.2 (0a00cf5339, 2022-02-04)"
   inkscape:export-filename="/home/tux/.icons/savetier/xaron/obsstudio.png"
   inkscape:export-xdpi="127"
   inkscape:export-ydpi="127"
   xmlns:inkscape="http://www.inkscape.org/namespaces/inkscape"
   xmlns:sodipodi="http://sodipodi.sourceforge.net/DTD/sodipodi-0.dtd"
   xmlns="http://www.w3.org/2000/svg"
   xmlns:svg="http://www.w3.org/2000/svg">
  <defs
     id="defs6">
    <style
       id="style3231">.cls-1{fill:#2d3e50;}.cls-2{fill:#2e79bd;}</style>
  </defs>
  <sodipodi:namedview
     id="namedview4"
     pagecolor="#ffffff"
     bordercolor="#666666"
     borderopacity="1.0"
     inkscape:pageshadow="2"
     inkscape:pageopacity="0.0"
     inkscape:pagecheckerboard="0"
     showgrid="false"
     inkscape:zoom="0.95462859"
     inkscape:cx="201.64911"
     inkscape:cy="211.07686"
     inkscape:window-width="1920"
     inkscape:window-height="987"
     inkscape:window-x="0"
     inkscape:window-y="0"
     inkscape:window-maximized="1"
     inkscape:current-layer="g8"
     showguides="true"
     inkscape:guide-bbox="true" />
  <g
     inkscape:groupmode="layer"
     inkscape:label="Image"
     id="g8">
    <circle
       style="fill:#000000;fill-opacity:1;stroke:#ffffff;stroke-width:9.877;stroke-miterlimit:4;stroke-dasharray:none;stroke-opacity:1"
       id="path851"
       cx="149.86972"
       cy="150.41068"
       r="142.94501" />
    <g
       id="g3250"
       transform="matrix(1.5718845,0,0,1.5718845,49.776357,45.366638)"
       style="fill:#ffffff">
      <path
         class="cls-1"
         d="m 121.496,48.42564 a 1.88661,1.88661 0 0 0 -1.8793,-1.70605 h -2.7901 l -0.33766,-3.52315 -1.06626,-11.28921 c -11.29363,0.70642 -22.1741,3.26548 -32.17044,9.752 -9.99633,-6.4865 -20.87678,-9.04556 -32.17041,-9.752 l -1.07071,11.28921 -0.33321,3.52315 h -2.7901 a 1.88659,1.88659 0 0 0 -1.8793,1.70605 l -2.67459,28.25184 h 0.8086 a 5.01326,5.01326 0 0 1 5.01148,5.00706 v 5.27807 a 6.47733,6.47733 0 0 1 0.26214,0.87967 l 1.98151,5.85118 c 12.511,0.2488 24.05782,2.137 32.46362,9.38322 L 50.793,94.85305 l 1.79491,5.29138 30.66429,7.85934 42.8465,-10.98265 z M 67.15148,90.61459 A 86.71647,86.71647 0 0 0 50.48206,88.91743 l 3.44318,-36.36 0.44428,-4.68274 0.10662,-1.15512 0.33321,-3.52315 0.582,-6.11776 a 59.22068,59.22068 0 0 1 21.03227,6.11776 q 2.16587,1.13293 4.22957,2.4702 l 1.62164,1.05294 0.9774,0.63532 0.97742,-0.63532 1.62164,-1.05294 c 1.37726,-0.893 2.78121,-1.71492 4.22954,-2.4702 a 59.22083,59.22083 0 0 1 21.0323,-6.11776 l 0.57756,6.11776 0.33321,3.52315 0.11107,1.15512 0.44428,4.68274 3.44318,36.36 A 86.80482,86.80482 0 0 0 99.34856,90.61459 43.12744,43.12744 0 0 0 83.25222,97.32768 43.149,43.149 0 0 0 67.15148,90.61459 Z m 16.49617,12.46209 c 9.34325,-8.05925 22.57839,-9.48985 36.69322,-9.40988 z"
         id="path3237"
         style="fill:#ffffff" />
      <path
         class="cls-2"
         d="M 45.19566,88.71379 A 3.08406,3.08406 0 0 0 44.8208,87.69284 V 81.68617 A 1.679,1.679 0 0 0 43.141,80.00761 H 23.3644 a 1.679,1.679 0 0 0 -1.67983,1.67856 v 6.00667 a 3.05625,3.05625 0 0 1 0.47848,-0.61921 h 9.49044 a 1.599215,1.599215 0 0 1 0,3.19843 H 20.78133 l -4.78741,14.1256 a 3.07654,3.07654 0 0 0 3.02954,3.60783 h 28.45972 a 3.075,3.075 0 0 0 3.02829,-3.60783 z"
         id="path3239"
         style="fill:#ffffff" />
      <path
         class="cls-2"
         d="m 25.95468,71.02645 a 4.21524,4.21524 0 0 0 1.72379,0.39986 l 2.93672,5.60238 H 35.3068 L 31.35713,69.49811 A 4.27408,4.27408 0 0 0 32.00579,67.84984 22.75962,22.75962 0 0 0 29.7,52.33553 C 29.61559,52.1756 29.53117,52.02011 29.44676,51.86015 l -1.284,3.68756 a 1.31212,1.31212 0 0 1 -1.44836,0.86633 1.32146,1.32146 0 0 1 -1.10626,-1.27509 l -0.16438,-9.361 C 22.396,41.38845 18.93503,36.51914 15.56294,32.01857 l -0.65755,1.88375 a 1.32936,1.32936 0 0 1 -0.63087,0.72863 1.28679,1.28679 0 0 1 -0.81746,0.13328 1.30507,1.30507 0 0 1 -1.10184,-1.27064 L 12.2486,27.68683 v -0.0045 C 10.63586,25.62091 9.08532,23.71938 7.65474,22.0711 a 6.91259,6.91259 0 0 0 -1.866,-1.54609 2.68739,2.68739 0 0 0 -2.62127,-0.311 2.6995,2.6995 0 0 0 -1.23954,2.33692 7.06715,7.06715 0 0 0 0.21325,2.41245 c 1.4617,5.7179 3.98077,13.24848 6.57536,20.468 l 4.54056,1.57722 a 1.31218,1.31218 0 0 1 0.86635,1.44836 1.31315,1.31315 0 0 1 -1.27509,1.10626 l -2.61238,0.04442 c 0.95964,2.608 1.90151,5.10482 2.77676,7.3973 a 30.9748,30.9748 0 0 0 1.48833,3.301 22.801,22.801 0 0 0 11.45361,10.72051 z"
         id="path3241"
         style="fill:#ffffff" />
    </g>
  </g>
</svg>
