<?xml version="1.0" encoding="UTF-8" standalone="no"?>
<!-- Created with Inkscape (http://www.inkscape.org/) -->

<svg
   version="1.1"
   id="svg2"
   width="300"
   height="300"
   viewBox="0 0 300 300"
   sodipodi:docname="xubuntu.svg"
   inkscape:version="1.1.2 (0a00cf5339, 2022-02-04)"
   inkscape:export-filename="/home/tux/.icons/Moonless Night/phone.png"
   inkscape:export-xdpi="127"
   inkscape:export-ydpi="127"
   xmlns:inkscape="http://www.inkscape.org/namespaces/inkscape"
   xmlns:sodipodi="http://sodipodi.sourceforge.net/DTD/sodipodi-0.dtd"
   xmlns="http://www.w3.org/2000/svg"
   xmlns:svg="http://www.w3.org/2000/svg">
  <defs
     id="defs6">
    <style
       id="style3231">.cls-1{fill:#2d3e50;}.cls-2{fill:#2e79bd;}</style>
  </defs>
  <sodipodi:namedview
     id="namedview4"
     pagecolor="#ffffff"
     bordercolor="#666666"
     borderopacity="1.0"
     inkscape:pageshadow="2"
     inkscape:pageopacity="0.0"
     inkscape:pagecheckerboard="0"
     showgrid="false"
     inkscape:zoom="0.81887858"
     inkscape:cx="144.7101"
     inkscape:cy="369.40764"
     inkscape:window-width="1920"
     inkscape:window-height="987"
     inkscape:window-x="0"
     inkscape:window-y="0"
     inkscape:window-maximized="1"
     inkscape:current-layer="g8"
     showguides="true"
     inkscape:guide-bbox="true" />
  <g
     inkscape:groupmode="layer"
     inkscape:label="Image"
     id="g8">
    <circle
       style="fill:#000000;fill-opacity:1;stroke:#ffffff;stroke-width:9.877;stroke-miterlimit:4;stroke-dasharray:none;stroke-opacity:1"
       id="path851"
       cx="149.86972"
       cy="150.41068"
       r="142.94501" />
    <path
       style="fill:#ffffff"
       d="m 100.69454,228.22341 c -10.64553,-2.31527 -16.23998,-5.89958 -21.79329,-13.96273 -4.66662,-6.77572 -6.44727,-14.9873 -6.51511,-30.04476 -0.0772,-17.13931 4.25611,-39.71446 9.5312,-49.65429 1.66827,-3.14351 1.82745,-6.46884 0.35327,-7.37993 -0.58045,-0.35874 -0.88491,-1.3978 -0.67658,-2.30902 0.20833,-0.91122 -0.25444,-2.94479 -1.02838,-4.51905 -2.26049,-4.59803 -2.26032,-18.32264 2.9e-4,-23.29143 2.15631,-4.73956 3.94434,-6.49712 8.40078,-8.25765 2.72034,-1.07468 3.66817,-0.97168 7.08109,0.76946 5.13596,2.62017 8.61095,7.30694 14.52936,19.59595 6.23528,12.94694 6.18468,12.85792 7.57025,13.31977 1.51147,0.50383 1.55993,-5.06867 0.085,-9.78041 -1.16801,-3.73142 -1.89637,-8.812 -1.88917,-13.17766 0.002,-1.47635 -0.45046,-2.9654 -1.00644,-3.30902 -1.2364,-0.76413 -1.34248,-5.18375 -0.14223,-5.92554 0.47776,-0.29527 1.14425,-2.2604 1.48111,-4.36695 0.7217,-4.51332 3.52685,-7.40925 9.46093,-9.76713 4.81381,-1.91274 6.701,-1.44681 12.71285,3.13865 3.4726,2.64868 6.47646,9.38944 6.47646,14.53337 0,1.51957 0.45097,3.04156 1.00217,3.38222 0.58051,0.35878 0.73312,2.30187 0.36272,4.61825 -0.36857,2.30491 -0.16568,4.9269 0.47897,6.18964 0.61512,1.20492 1.2394,4.66577 1.38728,7.69077 l 0.26886,5.5 6.64177,0.6569 c 3.65298,0.36129 7.53131,1.13295 8.61852,1.71481 1.08721,0.58186 2.20044,0.83423 2.47385,0.56082 0.83832,-0.83832 18.68229,3.45473 29.52748,7.10396 5.64389,1.89908 13.74389,5.21247 18,7.36309 8.63529,4.36343 18.73808,13.25889 19.78193,17.4179 0.3729,1.48578 1.07816,2.94872 1.56723,3.25099 0.48907,0.30226 0.88922,3.56781 0.88922,7.25677 v 6.70721 l -6.25,6.63647 c -6.50002,6.90194 -14.75255,12.9164 -25.71898,18.74405 -3.53238,1.87713 -7.8082,4.35213 -9.50184,5.5 -1.69363,1.14787 -4.86805,2.83453 -7.05425,3.74815 -2.18621,0.91362 -8.92493,3.76346 -14.97493,6.33298 -6.05,2.56952 -11.9,5.04937 -13,5.51076 -8.89241,3.72996 -19.82154,6.69252 -31.41287,8.5151 -11.32141,1.78013 -19.49314,1.77646 -27.71857,-0.0125 z M 205.30462,124.15975 c -1.25096,-3.2903 2.83578,-16.39485 7.05383,-22.6188 1.61213,-2.37877 2.93932,-4.65779 2.94933,-5.06449 0.01,-0.4067 1.81761,-3.3317 4.01689,-6.5 2.19928,-3.1683 3.99928,-6.31354 4,-6.98943 7.2e-4,-0.67588 2.52582,-3.71338 5.61134,-6.75 7.74588,-7.6231 10.42112,-7.43422 7.90564,0.55818 -2.37683,7.55182 -10.57248,25.22727 -16.88735,36.42071 -2.09376,3.71129 -7.98825,11.99444 -9.06232,12.73469 -2.16914,1.49497 -4.63907,0.70331 -5.58736,-1.79086 z m -15.01229,-2.98438 c -1.26112,-1.51955 -1.44549,-11.87348 -0.37322,-20.95945 0.7169,-6.0747 1.34095,-11.82882 1.46412,-13.5 0.0608,-0.825 0.37143,-2.175 0.69028,-3 0.31886,-0.825 0.68807,-2.625 0.82048,-4 0.75608,-7.85154 3.92994,-15.5 6.43199,-15.5 1.22051,0 1.61468,2.32909 2.11546,12.5 0.33851,6.875 0.33851,12.95 0,13.5 -0.54442,0.88457 -0.82189,3.32385 -1.12721,9.90943 -0.0487,1.05018 -0.54367,2.75986 -1.09995,3.79928 -0.55628,1.03942 -1.23195,3.78018 -1.50148,6.09057 -0.51512,4.41555 -4.00747,12.70072 -5.35358,12.70072 -0.43359,0 -1.36369,-0.69325 -2.06689,-1.54055 z"
       id="path1459" />
  </g>
</svg>
